RobotoFlexCondensed-Regular.ufo
<glyph name="exclam" format="2">
  <advance width="611"/>
  <unicode hex="0021"/>
  <outline>
    <contour>
      <point x="186.0" y="94.86666666666666" type="curve" smooth="yes"/>
      <point x="186" y="159"/>
      <point x="228" y="212"/>
      <point x="305.73333333333335" y="211.73333333333332" type="curve" smooth="yes"/>
      <point x="383" y="212"/>
      <point x="425" y="159"/>
      <point x="425.46666666666664" y="94.86666666666666" type="curve" smooth="yes"/>
      <point x="425" y="31"/>
      <point x="383" y="-22"/>
      <point x="305.73333333333335" y="-22.0" type="curve" smooth="yes"/>
      <point x="228" y="-22"/>
      <point x="186" y="31"/>
    </contour>
    <contour>
      <point x="226.93333333333334" y="407.8666666666667" type="line"/>
      <point x="213.0" y="1456.0" type="line"/>
      <point x="397.4" y="1456.0" type="line"/>
      <point x="383.46666666666664" y="407.8666666666667" type="line"/>
    </contour>
  </outline>
</glyph>
<glyph name="quotedbl" format="2">
  <advance width="746"/>
  <unicode hex="0022"/>
  <outline>
    <contour>
      <point x="113.93333333333334" y="975.6" type="line"/>
      <point x="100.0" y="1322.1333333333334" type="line"/>
      <point x="100.0" y="1456.0" type="line"/>
      <point x="273.6" y="1456.0" type="line"/>
      <point x="273.6" y="1322.1333333333334" type="line"/>
      <point x="258.6" y="975.6" type="line"/>
    </contour>
    <contour>
      <point x="487.53333333333336" y="975.6" type="line"/>
      <point x="473.6" y="1322.1333333333334" type="line"/>
      <point x="473.6" y="1456.0" type="line"/>
      <point x="646.1333333333333" y="1456.0" type="line"/>
      <point x="646.1333333333333" y="1322.1333333333334" type="line"/>
      <point x="631.1333333333333" y="975.6" type="line"/>
    </contour>
  </outline>
</glyph>
<glyph name="ampersand" format="2">
  <advance width="1105"/>
  <unicode hex="0026"/>
  <outline>
    <contour>
      <point x="80.0" y="380.0" type="curve" smooth="yes"/>
      <point x="79" y="593"/>
      <point x="227" y="726"/>
      <point x="392.4" y="858.9333333333333" type="curve" smooth="yes"/>
      <point x="522.5333333333333" y="963.2" type="line" smooth="yes"/>
      <point x="610" y="1032"/>
      <point x="629" y="1087"/>
      <point x="629.4666666666667" y="1170.0" type="curve" smooth="yes"/>
      <point x="629" y="1278"/>
      <point x="589" y="1338"/>
      <point x="500.3333333333333" y="1338.2666666666667" type="curve" smooth="yes"/>
      <point x="415" y="1338"/>
      <point x="367" y="1268"/>
      <point x="367.4666666666667" y="1160.0" type="curve" smooth="yes"/>
      <point x="367" y="1066"/>
      <point x="397" y="1005"/>
      <point x="507.06666666666666" y="844.2666666666667" type="curve" smooth="yes"/>
      <point x="1081.0666666666666" y="0.0" type="line"/>
      <point x="880.4" y="0.0" type="line"/>
      <point x="376.6666666666667" y="741.0666666666667" type="line" smooth="yes"/>
      <point x="255" y="920"/>
      <point x="193" y="1026"/>
      <point x="192.93333333333334" y="1160.0" type="curve" smooth="yes"/>
      <point x="193" y="1359"/>
      <point x="321" y="1486"/>
      <point x="500.3333333333333" y="1486.0" type="curve" smooth="yes"/>
      <point x="679" y="1486"/>
      <point x="794" y="1366"/>
      <point x="794.0" y="1180.0" type="curve" smooth="yes"/>
      <point x="794" y="1021"/>
      <point x="722" y="926"/>
      <point x="612.9333333333334" y="841.0666666666667" type="curve" smooth="yes"/>
      <point x="481.73333333333335" y="737.8666666666667" type="line" smooth="yes"/>
      <point x="331" y="621"/>
      <point x="255" y="527"/>
      <point x="255.46666666666667" y="380.0" type="curve" smooth="yes"/>
      <point x="255" y="230"/>
      <point x="343" y="128"/>
      <point x="479.6" y="127.73333333333333" type="curve" smooth="yes"/>
      <point x="675" y="128"/>
      <point x="837" y="331"/>
      <point x="837.4666666666667" y="674.0" type="curve"/>
      <point x="1002.0" y="674.0" type="line"/>
      <point x="1002" y="280"/>
      <point x="777" y="-20"/>
      <point x="479.6" y="-20.0" type="curve" smooth="yes"/>
      <point x="229" y="-20"/>
      <point x="81" y="151"/>
    </contour>
  </outline>
</glyph>
<glyph name="quotesingle" format="2">
  <advance width="393"/>
  <unicode hex="0027"/>
  <outline>
    <contour>
      <point x="123.93333333333334" y="975.6" type="line"/>
      <point x="100.0" y="1322.1333333333334" type="line"/>
      <point x="100.0" y="1456.0" type="line"/>
      <point x="292.53333333333336" y="1456.0" type="line"/>
      <point x="292.53333333333336" y="1322.1333333333334" type="line"/>
      <point x="267.53333333333336" y="975.6" type="line"/>
    </contour>
  </outline>
</glyph>
<glyph name="parenright" format="2">
  <advance width="691"/>
  <unicode hex="0029"/>
  <outline>
    <contour>
      <point x="108.53333333333333" y="-436.0" type="curve"/>
      <point x="108.53333333333333" y="-282.6666666666667" type="line"/>
      <point x="258" y="-179"/>
      <point x="381" y="36"/>
      <point x="381.0" y="508.0" type="curve" smooth="yes"/>
      <point x="381.0" y="532.0" type="line" smooth="yes"/>
      <point x="381" y="1003"/>
      <point x="258" y="1219"/>
      <point x="108.53333333333333" y="1322.6666666666667" type="curve"/>
      <point x="108.53333333333333" y="1476.0" type="line"/>
      <point x="362" y="1342"/>
      <point x="567" y="1055"/>
      <point x="567.4666666666667" y="525.0" type="curve" smooth="yes"/>
      <point x="567.4666666666667" y="515.0" type="line" smooth="yes"/>
      <point x="567" y="-16"/>
      <point x="362" y="-302"/>
    </contour>
  </outline>
</glyph>
<glyph name="slash" format="2">
  <advance width="473"/>
  <unicode hex="002F"/>
  <outline>
    <contour>
      <point x="-106.4" y="-125.0" type="line"/>
      <point x="401.3333333333333" y="1456.0" type="line"/>
      <point x="579.4666666666667" y="1456.0" type="line"/>
      <point x="71.73333333333333" y="-125.0" type="line"/>
    </contour>
  </outline>
</glyph>
<glyph name="two" format="2">
  <advance width="1030"/>
  <unicode hex="0032"/>
  <outline>
    <contour>
      <point x="118.53333333333333" y="0.0" type="line"/>
      <point x="118.53333333333333" y="135.73333333333332" type="line"/>
      <point x="559.6" y="754.4" type="line" smooth="yes"/>
      <point x="665" y="895"/>
      <point x="717" y="983"/>
      <point x="717.3333333333334" y="1106.6666666666667" type="curve" smooth="yes"/>
      <point x="717" y="1244"/>
      <point x="646" y="1333"/>
      <point x="522.0666666666667" y="1333.3333333333333" type="curve" smooth="yes"/>
      <point x="397" y="1333"/>
      <point x="300" y="1242"/>
      <point x="300.0" y="1030.0" type="curve" smooth="yes"/>
      <point x="300.0" y="1020.0" type="line"/>
      <point x="118.53333333333333" y="1020.0" type="line"/>
      <point x="118.53333333333333" y="1030.0" type="line" smooth="yes"/>
      <point x="119" y="1318"/>
      <point x="295" y="1486"/>
      <point x="522.0666666666667" y="1486.0" type="curve" smooth="yes"/>
      <point x="749" y="1486"/>
      <point x="899" y="1332"/>
      <point x="898.8" y="1116.6666666666667" type="curve" smooth="yes"/>
      <point x="899" y="959"/>
      <point x="823" y="851"/>
      <point x="685.6666666666666" y="662.2" type="curve" smooth="yes"/>
      <point x="316.0" y="150.0" type="line"/>
      <point x="932.4" y="150.0" type="line"/>
      <point x="932.4" y="0.0" type="line"/>
    </contour>
  </outline>
</glyph>
<glyph name="five" format="2">
  <advance width="1030"/>
  <unicode hex="0035"/>
  <outline>
    <contour>
      <point x="108.53333333333333" y="365.0" type="curve" smooth="yes"/>
      <point x="108.53333333333333" y="375.0" type="line"/>
      <point x="284.0" y="375.0" type="line"/>
      <point x="284.0" y="365.0" type="line" smooth="yes"/>
      <point x="284" y="215"/>
      <point x="371" y="123"/>
      <point x="507.06666666666666" y="122.66666666666667" type="curve" smooth="yes"/>
      <point x="644" y="123"/>
      <point x="738" y="248"/>
      <point x="738.0" y="465.0" type="curve" smooth="yes"/>
      <point x="738" y="681"/>
      <point x="644" y="796"/>
      <point x="508.1333333333333" y="796.2" type="curve" smooth="yes"/>
      <point x="406" y="796"/>
      <point x="328" y="748"/>
      <point x="266.0" y="676.5333333333333" type="curve"/>
      <point x="152.13333333333333" y="730.0" type="line"/>
      <point x="224.0" y="1456.0" type="line"/>
      <point x="855.2" y="1456.0" type="line"/>
      <point x="855.2" y="1292.4" type="line"/>
      <point x="373.6" y="1292.4" type="line"/>
      <point x="330.6666666666667" y="888.8" type="line"/>
      <point x="388" y="926"/>
      <point x="453" y="950"/>
      <point x="531.7333333333333" y="949.8666666666667" type="curve" smooth="yes"/>
      <point x="749" y="950"/>
      <point x="919" y="772"/>
      <point x="919.4666666666667" y="465.0" type="curve" smooth="yes"/>
      <point x="919" y="157"/>
      <point x="747" y="-30"/>
      <point x="507.06666666666666" y="-30.0" type="curve" smooth="yes"/>
      <point x="274" y="-30"/>
      <point x="109" y="137"/>
    </contour>
  </outline>
</glyph>
<glyph name="seven" format="2">
  <advance width="1030"/>
  <unicode hex="0037"/>
  <outline>
    <contour>
      <point x="240.66666666666666" y="0.0" type="line"/>
      <point x="730.4" y="1304.6" type="line"/>
      <point x="84.4" y="1304.6" type="line"/>
      <point x="84.4" y="1456.0" type="line"/>
      <point x="917.6" y="1456.0" type="line"/>
      <point x="917.6" y="1354.1333333333334" type="line"/>
      <point x="428.1333333333333" y="0.0" type="line"/>
    </contour>
  </outline>
</glyph>
<glyph name="semicolon" format="2">
  <advance width="591"/>
  <unicode hex="003B"/>
  <outline>
    <contour>
      <point x="123.2" y="-213.73333333333332" type="line"/>
      <point x="185" y="-131"/>
      <point x="220" y="-50"/>
      <point x="220.0" y="67.86666666666666" type="curve" smooth="yes"/>
      <point x="220.0" y="215.73333333333332" type="line"/>
      <point x="392.53333333333336" y="215.73333333333332" type="line"/>
      <point x="392.53333333333336" y="68.93333333333334" type="line" smooth="yes"/>
      <point x="393" y="-77"/>
      <point x="327" y="-196"/>
      <point x="223.93333333333334" y="-284.6" type="curve"/>
    </contour>
    <contour>
      <point x="176.0" y="951.1333333333333" type="curve" smooth="yes"/>
      <point x="176" y="1015"/>
      <point x="218" y="1068"/>
      <point x="295.73333333333335" y="1068.0" type="curve" smooth="yes"/>
      <point x="373" y="1068"/>
      <point x="415" y="1015"/>
      <point x="415.46666666666664" y="951.1333333333333" type="curve" smooth="yes"/>
      <point x="415" y="887"/>
      <point x="373" y="834"/>
      <point x="295.73333333333335" y="834.2666666666667" type="curve" smooth="yes"/>
      <point x="218" y="834"/>
      <point x="176" y="887"/>
    </contour>
  </outline>
</glyph>
<glyph name="question" format="2">
  <advance width="951"/>
  <unicode hex="003F"/>
  <outline>
    <contour>
      <point x="315.73333333333335" y="94.86666666666666" type="curve" smooth="yes"/>
      <point x="316" y="159"/>
      <point x="358" y="212"/>
      <point x="434.4" y="211.73333333333332" type="curve" smooth="yes"/>
      <point x="512" y="212"/>
      <point x="554" y="159"/>
      <point x="554.1333333333333" y="94.86666666666666" type="curve" smooth="yes"/>
      <point x="554" y="31"/>
      <point x="513" y="-22"/>
      <point x="435.46666666666664" y="-22.0" type="curve" smooth="yes"/>
      <point x="358" y="-22"/>
      <point x="316" y="31"/>
    </contour>
    <contour>
      <point x="111.2" y="1095.0" type="line"/>
      <point x="111.2" y="1115.0" type="line" smooth="yes"/>
      <point x="111" y="1346"/>
      <point x="242" y="1476"/>
      <point x="458.26666666666665" y="1476.0" type="curve" smooth="yes"/>
      <point x="674" y="1476"/>
      <point x="800" y="1339"/>
      <point x="800.4" y="1102.1333333333334" type="curve" smooth="yes"/>
      <point x="800" y="918"/>
      <point x="693" y="781"/>
      <point x="609.2" y="694.0" type="curve" smooth="yes"/>
      <point x="518" y="598"/>
      <point x="515" y="511"/>
      <point x="515.2" y="420.0" type="curve" smooth="yes"/>
      <point x="515.2" y="410.0" type="line"/>
      <point x="337.73333333333335" y="410.0" type="line"/>
      <point x="337.73333333333335" y="420.0" type="line" smooth="yes"/>
      <point x="338" y="585"/>
      <point x="355" y="652"/>
      <point x="472.1333333333333" y="786.2" type="curve" smooth="yes"/>
      <point x="565" y="892"/>
      <point x="623" y="967"/>
      <point x="622.9333333333334" y="1102.1333333333334" type="curve" smooth="yes"/>
      <point x="623" y="1245"/>
      <point x="570" y="1319"/>
      <point x="458.26666666666665" y="1319.3333333333333" type="curve" smooth="yes"/>
      <point x="347" y="1319"/>
      <point x="288" y="1252"/>
      <point x="287.6666666666667" y="1115.0" type="curve" smooth="yes"/>
      <point x="287.6666666666667" y="1095.0" type="line"/>
    </contour>
  </outline>
</glyph>
<glyph name="at" format="2">
  <advance width="1843"/>
  <unicode hex="0040"/>
  <outline>
    <contour>
      <point x="537.1333333333333" y="400.0" type="curve" smooth="yes"/>
      <point x="537" y="775"/>
      <point x="737" y="1052"/>
      <point x="963.4666666666667" y="1052.0" type="curve" smooth="yes"/>
      <point x="1064" y="1052"/>
      <point x="1153" y="997"/>
      <point x="1208.6666666666667" y="946.0" type="curve"/>
      <point x="1306.1333333333332" y="946.0" type="line"/>
      <point x="1202.1333333333332" y="350.0" type="line" smooth="yes"/>
      <point x="1173" y="186"/>
      <point x="1229" y="132"/>
      <point x="1310.1333333333332" y="131.73333333333332" type="curve" smooth="yes"/>
      <point x="1456" y="132"/>
      <point x="1557" y="339"/>
      <point x="1556.8" y="650.0" type="curve" smooth="yes"/>
      <point x="1557" y="1015"/>
      <point x="1340" y="1335"/>
      <point x="960.2666666666667" y="1335.3333333333333" type="curve" smooth="yes"/>
      <point x="579" y="1335"/>
      <point x="291" y="945"/>
      <point x="291.46666666666664" y="460.0" type="curve" smooth="yes"/>
      <point x="291" y="-25"/>
      <point x="539" y="-295"/>
      <point x="874.1333333333333" y="-295.3333333333333" type="curve" smooth="yes"/>
      <point x="1036" y="-295"/>
      <point x="1144" y="-254"/>
      <point x="1220.8" y="-205.33333333333334" type="curve"/>
      <point x="1220.8" y="-356.0" type="line"/>
      <point x="1138" y="-415"/>
      <point x="1036" y="-446"/>
      <point x="874.1333333333333" y="-446.0" type="curve" smooth="yes"/>
      <point x="459" y="-446"/>
      <point x="114" y="-103"/>
      <point x="114.0" y="460.0" type="curve" smooth="yes"/>
      <point x="114" y="1023"/>
      <point x="500" y="1486"/>
      <point x="960.2666666666667" y="1486.0" type="curve" smooth="yes"/>
      <point x="1421" y="1486"/>
      <point x="1729" y="1119"/>
      <point x="1729.3333333333333" y="650.0" type="curve" smooth="yes"/>
      <point x="1729" y="261"/>
      <point x="1550" y="0"/>
      <point x="1320.5333333333333" y="0.0" type="curve" smooth="yes"/>
      <point x="1187" y="0"/>
      <point x="1083" y="73"/>
      <point x="1036.4" y="180.0" type="curve"/>
      <point x="981" y="73"/>
      <point x="900" y="0"/>
      <point x="806.9333333333334" y="0.0" type="curve" smooth="yes"/>
      <point x="641" y="0"/>
      <point x="537" y="159"/>
    </contour>
    <contour>
      <point x="718.6" y="400.0" type="curve" smooth="yes"/>
      <point x="719" y="236"/>
      <point x="764" y="151"/>
      <point x="847.3333333333334" y="150.66666666666666" type="curve" smooth="yes"/>
      <point x="928" y="151"/>
      <point x="996" y="213"/>
      <point x="1029.6" y="390.0" type="curve" smooth="yes"/>
      <point x="1117.8666666666668" y="873.2" type="line"/>
      <point x="1083" y="901"/>
      <point x="1034" y="916"/>
      <point x="987.0666666666666" y="916.2666666666667" type="curve" smooth="yes"/>
      <point x="831" y="916"/>
      <point x="719" y="698"/>
    </contour>
  </outline>
</glyph>
<glyph name="E" format="2">
  <advance width="1023"/>
  <unicode hex="0045"/>
  <outline>
    <contour>
      <point x="170.0" y="0.0" type="line"/>
      <point x="170.0" y="1456.0" type="line"/>
      <point x="945.3333333333334" y="1456.0" type="line"/>
      <point x="945.3333333333334" y="1303.3333333333333" type="line"/>
      <point x="353.46666666666664" y="1303.3333333333333" type="line"/>
      <point x="353.46666666666664" y="827.8666666666667" type="line"/>
      <point x="853.3333333333334" y="827.8666666666667" type="line"/>
      <point x="853.3333333333334" y="674.1333333333333" type="line"/>
      <point x="353.46666666666664" y="674.1333333333333" type="line"/>
      <point x="353.46666666666664" y="152.66666666666666" type="line"/>
      <point x="955.3333333333334" y="152.66666666666666" type="line"/>
      <point x="955.3333333333334" y="0.0" type="line"/>
    </contour>
  </outline>
</glyph>
<glyph name="H" format="2">
  <advance width="1292"/>
  <unicode hex="0048"/>
  <outline>
    <contour>
      <point x="170.0" y="0.0" type="line"/>
      <point x="170.0" y="1456.0" type="line"/>
      <point x="353.46666666666664" y="1456.0" type="line"/>
      <point x="353.46666666666664" y="827.8666666666667" type="line"/>
      <point x="938.1333333333333" y="827.8666666666667" type="line"/>
      <point x="938.1333333333333" y="1456.0" type="line"/>
      <point x="1121.6" y="1456.0" type="line"/>
      <point x="1121.6" y="0.0" type="line"/>
      <point x="938.1333333333333" y="0.0" type="line"/>
      <point x="938.1333333333333" y="674.1333333333333" type="line"/>
      <point x="353.46666666666664" y="674.1333333333333" type="line"/>
      <point x="353.46666666666664" y="0.0" type="line"/>
    </contour>
  </outline>
</glyph>
<glyph name="M" format="2">
  <advance width="1560"/>
  <unicode hex="004D"/>
  <outline>
    <contour>
      <point x="170.0" y="0.0" type="line"/>
      <point x="170.0" y="1456.0" type="line"/>
      <point x="412.6666666666667" y="1456.0" type="line"/>
      <point x="745.4666666666667" y="351.1904761904762" type="line" smooth="yes"/>
      <point x="760" y="304"/>
      <point x="767" y="276"/>
      <point x="774.7333333333333" y="221.92380952380952" type="curve"/>
      <point x="780.6" y="221.92380952380952" type="line"/>
      <point x="788" y="276"/>
      <point x="795" y="305"/>
      <point x="809.8666666666667" y="352.25714285714287" type="curve" smooth="yes"/>
      <point x="1148.0" y="1456.0" type="line"/>
      <point x="1389.6" y="1456.0" type="line"/>
      <point x="1389.6" y="0.0" type="line"/>
      <point x="1212.1333333333332" y="0.0" type="line"/>
      <point x="1212.1333333333332" y="1009.4666666666667" type="line" smooth="yes"/>
      <point x="1212" y="1058"/>
      <point x="1218" y="1122"/>
      <point x="1220.057142857143" y="1169.0" type="curve"/>
      <point x="1211.2" y="1169.0" type="line"/>
      <point x="1205" y="1122"/>
      <point x="1185" y="1058"/>
      <point x="1170.2666666666667" y="1009.4666666666667" type="curve" smooth="yes"/>
      <point x="859.7333333333333" y="0.0" type="line"/>
      <point x="695.8666666666667" y="0.0" type="line"/>
      <point x="383.2" y="1009.4666666666667" type="line" smooth="yes"/>
      <point x="369" y="1058"/>
      <point x="352" y="1122"/>
      <point x="345.46666666666664" y="1169.0" type="curve"/>
      <point x="336.6095238095238" y="1169.0" type="line"/>
      <point x="339" y="1122"/>
      <point x="343" y="1058"/>
      <point x="343.46666666666664" y="1009.4666666666667" type="curve" smooth="yes"/>
      <point x="343.46666666666664" y="0.0" type="line"/>
    </contour>
  </outline>
</glyph>
<glyph name="O" format="2">
  <advance width="1262"/>
  <unicode hex="004F"/>
  <outline>
    <contour>
      <point x="115.0" y="682.0" type="curve" smooth="yes"/>
      <point x="115.0" y="774.0" type="line" smooth="yes"/>
      <point x="115" y="1253"/>
      <point x="322" y="1486"/>
      <point x="630.8" y="1486.0" type="curve" smooth="yes"/>
      <point x="940" y="1486"/>
      <point x="1146" y="1253"/>
      <point x="1145.5333333333333" y="774.0" type="curve" smooth="yes"/>
      <point x="1145.5333333333333" y="682.0" type="line" smooth="yes"/>
      <point x="1146" y="203"/>
      <point x="940" y="-30"/>
      <point x="630.8" y="-30.0" type="curve" smooth="yes"/>
      <point x="322" y="-30"/>
      <point x="115" y="203"/>
    </contour>
    <contour>
      <point x="299.4" y="650.0" type="line" smooth="yes"/>
      <point x="299" y="304"/>
      <point x="423" y="129"/>
      <point x="630.8" y="128.66666666666666" type="curve" smooth="yes"/>
      <point x="838" y="129"/>
      <point x="960" y="304"/>
      <point x="960.0666666666666" y="650.0" type="curve" smooth="yes"/>
      <point x="960.0666666666666" y="807.0666666666666" type="line" smooth="yes"/>
      <point x="960" y="1153"/>
      <point x="838" y="1327"/>
      <point x="630.8" y="1327.3333333333333" type="curve" smooth="yes"/>
      <point x="423" y="1327"/>
      <point x="299" y="1153"/>
      <point x="299.4" y="807.0666666666666" type="curve" smooth="yes"/>
    </contour>
  </outline>
</glyph>
<glyph name="Q" format="2">
  <advance width="1262"/>
  <unicode hex="0051"/>
  <outline>
    <contour>
      <point x="115.0" y="682.0" type="curve" smooth="yes"/>
      <point x="115.0" y="774.0" type="line" smooth="yes"/>
      <point x="115" y="1253"/>
      <point x="322" y="1486"/>
      <point x="630.8" y="1486.0" type="curve" smooth="yes"/>
      <point x="940" y="1486"/>
      <point x="1146" y="1253"/>
      <point x="1145.5333333333333" y="774.0" type="curve" smooth="yes"/>
      <point x="1145.5333333333333" y="682.0" type="line" smooth="yes"/>
      <point x="1146" y="203"/>
      <point x="940" y="-30"/>
      <point x="630.8" y="-30.0" type="curve" smooth="yes"/>
      <point x="322" y="-30"/>
      <point x="115" y="203"/>
    </contour>
    <contour>
      <point x="299.4" y="639.3333333333334" type="line" smooth="yes"/>
      <point x="299" y="293"/>
      <point x="423" y="129"/>
      <point x="630.8" y="128.66666666666666" type="curve" smooth="yes"/>
      <point x="838" y="129"/>
      <point x="960" y="293"/>
      <point x="960.0666666666666" y="639.3333333333334" type="curve" smooth="yes"/>
      <point x="960.0666666666666" y="816.6666666666666" type="line" smooth="yes"/>
      <point x="960" y="1163"/>
      <point x="838" y="1327"/>
      <point x="630.8" y="1327.3333333333333" type="curve" smooth="yes"/>
      <point x="423" y="1327"/>
      <point x="299" y="1163"/>
      <point x="299.4" y="816.6666666666666" type="curve" smooth="yes"/>
    </contour>
    <contour>
      <point x="1001.6" y="-247.86666666666667" type="line"/>
      <point x="660.1333333333333" y="26.8" type="line"/>
      <point x="779.8" y="147.53333333333333" type="line"/>
      <point x="1125.2" y="-122.13333333333334" type="line"/>
    </contour>
  </outline>
</glyph>
<glyph name="R" format="2">
  <advance width="1094"/>
  <unicode hex="0052"/>
  <outline>
    <contour>
      <point x="170.0" y="0.0" type="line"/>
      <point x="170.0" y="1456.0" type="line"/>
      <point x="560.8" y="1456.0" type="line" smooth="yes"/>
      <point x="834" y="1456"/>
      <point x="987" y="1316"/>
      <point x="986.9333333333334" y="1029.0666666666666" type="curve" smooth="yes"/>
      <point x="987" y="742"/>
      <point x="834" y="596"/>
      <point x="560.8" y="596.1333333333333" type="curve" smooth="yes"/>
      <point x="353.46666666666664" y="596.1333333333333" type="line"/>
      <point x="353.46666666666664" y="0.0" type="line"/>
    </contour>
    <contour>
      <point x="353.46666666666664" y="747.8666666666667" type="line"/>
      <point x="560.8" y="747.8666666666667" type="line" smooth="yes"/>
      <point x="742" y="748"/>
      <point x="803" y="865"/>
      <point x="803.4666666666667" y="1029.0666666666666" type="curve" smooth="yes"/>
      <point x="803" y="1195"/>
      <point x="742" y="1305"/>
      <point x="560.8" y="1305.3333333333333" type="curve" smooth="yes"/>
      <point x="353.46666666666664" y="1305.3333333333333" type="line"/>
    </contour>
    <contour>
      <point x="853.0666666666666" y="0.0" type="line"/>
      <point x="546.1333333333333" y="672.0" type="line"/>
      <point x="739.3333333333334" y="672.0" type="line"/>
      <point x="1054.2666666666667" y="0.0" type="line"/>
    </contour>
  </outline>
</glyph>
<glyph name="S" format="2">
  <advance width="1060"/>
  <unicode hex="0053"/>
  <outline>
    <contour>
      <point x="90.0" y="387.3333333333333" type="curve" smooth="yes"/>
      <point x="90.0" y="410.0" type="line"/>
      <point x="273.46666666666664" y="410.0" type="line"/>
      <point x="273.46666666666664" y="387.3333333333333" type="line" smooth="yes"/>
      <point x="273" y="213"/>
      <point x="370" y="129"/>
      <point x="538.9333333333334" y="128.66666666666666" type="curve" smooth="yes"/>
      <point x="708" y="129"/>
      <point x="799" y="225"/>
      <point x="798.5333333333333" y="368.26666666666665" type="curve" smooth="yes"/>
      <point x="799" y="507"/>
      <point x="734" y="557"/>
      <point x="488.8" y="667.0666666666667" type="curve" smooth="yes"/>
      <point x="248" y="775"/>
      <point x="114" y="875"/>
      <point x="113.6" y="1101.7333333333333" type="curve" smooth="yes"/>
      <point x="114" y="1351"/>
      <point x="269" y="1486"/>
      <point x="531.0666666666666" y="1486.0" type="curve" smooth="yes"/>
      <point x="794" y="1486"/>
      <point x="958" y="1330"/>
      <point x="958.4" y="1074.6666666666667" type="curve" smooth="yes"/>
      <point x="958.4" y="1052.0" type="line"/>
      <point x="774.9333333333334" y="1052.0" type="line"/>
      <point x="774.9333333333334" y="1074.6666666666667" type="line" smooth="yes"/>
      <point x="775" y="1227"/>
      <point x="693" y="1327"/>
      <point x="531.0666666666666" y="1327.3333333333333" type="curve" smooth="yes"/>
      <point x="362" y="1327"/>
      <point x="295" y="1243"/>
      <point x="295.06666666666666" y="1129.1285714285714" type="curve" smooth="yes"/>
      <point x="295" y="1015"/>
      <point x="344" y="939"/>
      <point x="598.0" y="821.8666666666667" type="curve" smooth="yes"/>
      <point x="830" y="713"/>
      <point x="980" y="608"/>
      <point x="980.0" y="368.26666666666665" type="curve" smooth="yes"/>
      <point x="980" y="106"/>
      <point x="812" y="-30"/>
      <point x="538.9333333333334" y="-30.0" type="curve" smooth="yes"/>
      <point x="266" y="-30"/>
      <point x="90" y="99"/>
    </contour>
  </outline>
</glyph>
<glyph name="T" format="2">
  <advance width="1012"/>
  <unicode hex="0054"/>
  <outline>
    <contour>
      <point x="24.0" y="1303.3333333333333" type="line"/>
      <point x="24.0" y="1456.0" type="line"/>
      <point x="987.7333333333333" y="1456.0" type="line"/>
      <point x="987.7333333333333" y="1303.3333333333333" type="line"/>
      <point x="596.5333333333333" y="1303.3333333333333" type="line"/>
      <point x="596.5333333333333" y="0.0" type="line"/>
      <point x="414.1333333333333" y="0.0" type="line"/>
      <point x="414.1333333333333" y="1303.3333333333333" type="line"/>
    </contour>
  </outline>
</glyph>
<glyph name="U" format="2">
  <advance width="1208"/>
  <unicode hex="0055"/>
  <outline>
    <contour>
      <point x="155.0" y="470.0" type="curve" smooth="yes"/>
      <point x="155.0" y="1456.0" type="line"/>
      <point x="337.4" y="1456.0" type="line"/>
      <point x="337.4" y="427.3333333333333" type="line" smooth="yes"/>
      <point x="337" y="224"/>
      <point x="437" y="129"/>
      <point x="604.1333333333333" y="128.66666666666666" type="curve" smooth="yes"/>
      <point x="769" y="129"/>
      <point x="869" y="225"/>
      <point x="868.7333333333333" y="427.3333333333333" type="curve" smooth="yes"/>
      <point x="868.7333333333333" y="1456.0" type="line"/>
      <point x="1052.2" y="1456.0" type="line"/>
      <point x="1052.2" y="470.0" type="line" smooth="yes"/>
      <point x="1052" y="106"/>
      <point x="863" y="-30"/>
      <point x="604.1333333333333" y="-30.0" type="curve" smooth="yes"/>
      <point x="345" y="-30"/>
      <point x="155" y="106"/>
    </contour>
  </outline>
</glyph>
<glyph name="W" format="2">
  <advance width="1570"/>
  <unicode hex="0057"/>
  <outline>
    <contour>
      <point x="341.8666666666667" y="-10.0" type="line"/>
      <point x="50.0" y="1456.0" type="line"/>
      <point x="227.4952380952381" y="1456.0" type="line"/>
      <point x="425.5761904761905" y="369.46666666666664" type="line" smooth="yes"/>
      <point x="435" y="321"/>
      <point x="436" y="306"/>
      <point x="440.0952380952381" y="257.18095238095236" type="curve"/>
      <point x="447.1047619047619" y="257.18095238095236" type="line"/>
      <point x="452" y="306"/>
      <point x="453" y="321"/>
      <point x="463.4761904761905" y="369.46666666666664" type="curve" smooth="yes"/>
      <point x="689.0380952380953" y="1456.0" type="line"/>
      <point x="881.7619047619048" y="1456.0" type="line"/>
      <point x="1120.5238095238096" y="369.46666666666664" type="line" smooth="yes"/>
      <point x="1131" y="321"/>
      <point x="1131" y="306"/>
      <point x="1137.9619047619049" y="257.18095238095236" type="curve"/>
      <point x="1145.252380952381" y="257.18095238095236" type="line"/>
      <point x="1150" y="306"/>
      <point x="1153" y="321"/>
      <point x="1160.557142857143" y="369.46666666666664" type="curve" smooth="yes"/>
      <point x="1343.304761904762" y="1456.0" type="line"/>
      <point x="1519.8666666666668" y="1456.0" type="line"/>
      <point x="1229.0666666666666" y="-10.0" type="line"/>
      <point x="1042.6380952380953" y="-10.0" type="line"/>
      <point x="808.5666666666666" y="1084.9333333333334" type="line" smooth="yes"/>
      <point x="798" y="1133"/>
      <point x="794" y="1159"/>
      <point x="788.1857142857143" y="1206.5333333333333" type="curve"/>
      <point x="780.6142857142858" y="1206.5333333333333" type="line"/>
      <point x="774" y="1159"/>
      <point x="772" y="1133"/>
      <point x="761.3" y="1084.9333333333334" type="curve" smooth="yes"/>
      <point x="526.1619047619048" y="-10.0" type="line"/>
    </contour>
  </outline>
</glyph>
<glyph name="bracketleft" format="2">
  <advance width="638"/>
  <unicode hex="005B"/>
  <outline>
    <contour>
      <point x="144.0" y="-310.0" type="line"/>
      <point x="144.0" y="1456.0" type="line"/>
      <point x="547.4666666666667" y="1456.0" type="line"/>
      <point x="547.4666666666667" y="1301.3333333333333" type="line"/>
      <point x="320.46666666666664" y="1301.3333333333333" type="line"/>
      <point x="320.46666666666664" y="-155.33333333333334" type="line"/>
      <point x="547.4666666666667" y="-155.33333333333334" type="line"/>
      <point x="547.4666666666667" y="-310.0" type="line"/>
    </contour>
  </outline>
</glyph>
<glyph name="backslash" format="2">
  <advance width="472"/>
  <unicode hex="005C"/>
  <outline>
    <contour>
      <point x="-107.46666666666667" y="1456.0" type="line"/>
      <point x="72.8" y="1456.0" type="line"/>
      <point x="579.4666666666667" y="-125.0" type="line"/>
      <point x="400.26666666666665" y="-125.0" type="line"/>
    </contour>
  </outline>
</glyph>
<glyph name="asciicircum" format="2">
  <advance width="1012"/>
  <unicode hex="005E"/>
  <outline>
    <contour>
      <point x="25.0" y="720.0" type="line"/>
      <point x="425.3333333333333" y="1456.0" type="line"/>
      <point x="586.8" y="1456.0" type="line"/>
      <point x="987.1333333333333" y="720.0" type="line"/>
      <point x="795.6666666666666" y="720.0" type="line"/>
      <point x="506.06666666666666" y="1275.0666666666666" type="line"/>
      <point x="216.46666666666667" y="720.0" type="line"/>
    </contour>
  </outline>
</glyph>
<glyph name="c" format="2">
  <advance width="888"/>
  <unicode hex="0063"/>
  <outline>
    <contour>
      <point x="85.0" y="522.4285714285714" type="curve" smooth="yes"/>
      <point x="85.0" y="554.4285714285714" type="line" smooth="yes"/>
      <point x="85" y="909"/>
      <point x="238" y="1107"/>
      <point x="495.26666666666665" y="1106.857142857143" type="curve" smooth="yes"/>
      <point x="732" y="1107"/>
      <point x="855" y="940"/>
      <point x="855.0" y="735.5714285714286" type="curve" smooth="yes"/>
      <point x="855.0" y="730.5714285714286" type="line"/>
      <point x="683.5333333333333" y="730.5714285714286" type="line"/>
      <point x="683.5333333333333" y="735.5714285714286" type="line" smooth="yes"/>
      <point x="684" y="855"/>
      <point x="638" y="958"/>
      <point x="494.2" y="958.0571428571428" type="curve" smooth="yes"/>
      <point x="341" y="958"/>
      <point x="266" y="815"/>
      <point x="266.46666666666664" y="586.4285714285714" type="curve" smooth="yes"/>
      <point x="266.46666666666664" y="490.42857142857144" type="line" smooth="yes"/>
      <point x="266" y="262"/>
      <point x="338" y="118"/>
      <point x="484.6" y="117.73333333333333" type="curve" smooth="yes"/>
      <point x="632" y="118"/>
      <point x="684" y="222"/>
      <point x="683.5333333333333" y="341.2857142857143" type="curve" smooth="yes"/>
      <point x="683.5333333333333" y="346.2857142857143" type="line"/>
      <point x="855.0" y="346.2857142857143" type="line"/>
      <point x="855.0" y="341.2857142857143" type="line" smooth="yes"/>
      <point x="855" y="137"/>
      <point x="735" y="-30"/>
      <point x="486.73333333333335" y="-30.0" type="curve" smooth="yes"/>
      <point x="241" y="-30"/>
      <point x="85" y="167"/>
    </contour>
  </outline>
</glyph>
<glyph name="e" format="2">
  <advance width="919"/>
  <unicode hex="0065"/>
  <outline>
    <contour>
      <point x="85.0" y="522.4285714285714" type="curve" smooth="yes"/>
      <point x="85.0" y="554.4285714285714" type="line" smooth="yes"/>
      <point x="85" y="909"/>
      <point x="244" y="1107"/>
      <point x="486.3333333333333" y="1106.857142857143" type="curve" smooth="yes"/>
      <point x="729" y="1107"/>
      <point x="863" y="930"/>
      <point x="862.9333333333334" y="572.4285714285714" type="curve" smooth="yes"/>
      <point x="862.9333333333334" y="498.56190476190477" type="line"/>
      <point x="183.0" y="498.56190476190477" type="line"/>
      <point x="183.0" y="642.2952380952381" type="line"/>
      <point x="682.7571428571429" y="642.2952380952381" type="line"/>
      <point x="682.7571428571429" y="659.2380952380952" type="line" smooth="yes"/>
      <point x="683" y="832"/>
      <point x="636" y="959"/>
      <point x="484.0857142857143" y="959.1238095238095" type="curve" smooth="yes"/>
      <point x="341" y="959"/>
      <point x="263" y="843"/>
      <point x="263.26666666666665" y="586.4285714285714" type="curve" smooth="yes"/>
      <point x="263.26666666666665" y="490.42857142857144" type="line" smooth="yes"/>
      <point x="263" y="245"/>
      <point x="333" y="118"/>
      <point x="501.4" y="117.73333333333333" type="curve" smooth="yes"/>
      <point x="620" y="118"/>
      <point x="687" y="186"/>
      <point x="737.0666666666666" y="264.6666666666667" type="curve"/>
      <point x="868.8" y="186.73333333333332" type="line"/>
      <point x="805" y="59"/>
      <point x="680" y="-30"/>
      <point x="512.0666666666666" y="-30.0" type="curve" smooth="yes"/>
      <point x="235" y="-30"/>
      <point x="85" y="167"/>
    </contour>
  </outline>
</glyph>
<glyph name="i" format="2">
  <advance width="491"/>
  <unicode hex="0069"/>
  <outline>
    <contour>
      <point x="157.0" y="0.0" type="line"/>
      <point x="157.0" y="1076.857142857143" type="line"/>
      <point x="334.46666666666664" y="1076.857142857143" type="line"/>
      <point x="334.46666666666664" y="0.0" type="line"/>
    </contour>
    <contour>
      <point x="140.4" y="1376.4190476190477" type="curve" smooth="yes"/>
      <point x="140" y="1435"/>
      <point x="178" y="1480"/>
      <point x="245.73333333333332" y="1479.952380952381" type="curve" smooth="yes"/>
      <point x="314" y="1480"/>
      <point x="351" y="1435"/>
      <point x="351.06666666666666" y="1376.4190476190477" type="curve" smooth="yes"/>
      <point x="351" y="1318"/>
      <point x="314" y="1273"/>
      <point x="245.73333333333332" y="1272.8857142857144" type="curve" smooth="yes"/>
      <point x="178" y="1273"/>
      <point x="140" y="1318"/>
    </contour>
  </outline>
</glyph>
<glyph name="k" format="2">
  <advance width="889"/>
  <unicode hex="006B"/>
  <outline>
    <contour>
      <point x="148.0" y="0.0" type="line"/>
      <point x="148.0" y="1536.0" type="line"/>
      <point x="325.46666666666664" y="1536.0" type="line"/>
      <point x="325.46666666666664" y="633.7904761904762" type="line"/>
      <point x="662.3904761904762" y="1076.857142857143" type="line"/>
      <point x="865.9333333333334" y="1076.857142857143" type="line"/>
      <point x="325.46666666666664" y="394.6428571428571" type="line"/>
      <point x="325.46666666666664" y="0.0" type="line"/>
    </contour>
    <contour>
      <point x="701.6190476190476" y="0.0" type="line"/>
      <point x="402.55238095238093" y="607.1904761904761" type="line"/>
      <point x="517.7047619047619" y="748.6476190476191" type="line"/>
      <point x="905.3333333333334" y="0.0" type="line"/>
    </contour>
  </outline>
</glyph>
<glyph name="m" format="2">
  <advance width="1502"/>
  <unicode hex="006D"/>
  <outline>
    <contour>
      <point x="148.0" y="0.0" type="line"/>
      <point x="148.0" y="1076.857142857143" type="line"/>
      <point x="310.6666666666667" y="1076.857142857143" type="line"/>
      <point x="317.6" y="957.8571428571429" type="line"/>
      <point x="321.46666666666664" y="957.8571428571429" type="line"/>
      <point x="382" y="1046"/>
      <point x="467" y="1097"/>
      <point x="571.6" y="1096.857142857143" type="curve" smooth="yes"/>
      <point x="689" y="1097"/>
      <point x="772" y="1043"/>
      <point x="814.0" y="925.2571428571429" type="curve"/>
      <point x="817.8666666666667" y="925.2571428571429" type="line"/>
      <point x="878" y="1034"/>
      <point x="967" y="1097"/>
      <point x="1086.0" y="1096.857142857143" type="curve" smooth="yes"/>
      <point x="1260" y="1097"/>
      <point x="1364" y="967"/>
      <point x="1363.6" y="804.1238095238095" type="curve" smooth="yes"/>
      <point x="1363.6" y="0.0" type="line"/>
      <point x="1185.0666666666666" y="0.0" type="line"/>
      <point x="1185.0666666666666" y="773.0571428571428" type="line" smooth="yes"/>
      <point x="1185" y="895"/>
      <point x="1128" y="946"/>
      <point x="1036.7333333333333" y="946.1904761904761" type="curve" smooth="yes"/>
      <point x="937" y="946"/>
      <point x="868" y="879"/>
      <point x="844.5333333333333" y="811.5238095238095" type="curve"/>
      <point x="844.5333333333333" y="0.0" type="line"/>
      <point x="666.0" y="0.0" type="line"/>
      <point x="666.0" y="775.1904761904761" type="line" smooth="yes"/>
      <point x="666" y="894"/>
      <point x="599" y="946"/>
      <point x="521.9333333333334" y="946.1904761904761" type="curve" smooth="yes"/>
      <point x="437" y="946"/>
      <point x="355" y="879"/>
      <point x="325.46666666666664" y="811.5238095238095" type="curve"/>
      <point x="325.46666666666664" y="0.0" type="line"/>
    </contour>
  </outline>
</glyph>
<glyph name="o" format="2">
  <advance width="1006"/>
  <unicode hex="006F"/>
  <outline>
    <contour>
      <point x="85.0" y="522.4285714285714" type="curve" smooth="yes"/>
      <point x="85.0" y="554.4285714285714" type="line" smooth="yes"/>
      <point x="85" y="909"/>
      <point x="247" y="1107"/>
      <point x="503.1333333333333" y="1106.857142857143" type="curve" smooth="yes"/>
      <point x="759" y="1107"/>
      <point x="922" y="909"/>
      <point x="922.3333333333334" y="554.4285714285714" type="curve" smooth="yes"/>
      <point x="922.3333333333334" y="522.4285714285714" type="line" smooth="yes"/>
      <point x="922" y="167"/>
      <point x="759" y="-30"/>
      <point x="503.1333333333333" y="-30.0" type="curve" smooth="yes"/>
      <point x="247" y="-30"/>
      <point x="85" y="167"/>
    </contour>
    <contour>
      <point x="266.46666666666664" y="586.4285714285714" type="curve" smooth="yes"/>
      <point x="266.46666666666664" y="490.42857142857144" type="line" smooth="yes"/>
      <point x="266" y="262"/>
      <point x="345" y="118"/>
      <point x="503.1333333333333" y="117.73333333333333" type="curve" smooth="yes"/>
      <point x="661" y="118"/>
      <point x="741" y="262"/>
      <point x="740.8666666666667" y="490.42857142857144" type="curve" smooth="yes"/>
      <point x="740.8666666666667" y="586.4285714285714" type="line" smooth="yes"/>
      <point x="741" y="822"/>
      <point x="670" y="959"/>
      <point x="503.1333333333333" y="959.1238095238095" type="curve" smooth="yes"/>
      <point x="337" y="959"/>
      <point x="266" y="815"/>
    </contour>
  </outline>
</glyph>
<glyph name="p" format="2">
  <advance width="1023"/>
  <unicode hex="0070"/>
  <outline>
    <contour>
      <point x="148.0" y="-416.0" type="line"/>
      <point x="148.0" y="1076.857142857143" type="line"/>
      <point x="310.6666666666667" y="1076.857142857143" type="line"/>
      <point x="317.6" y="955.8571428571429" type="line"/>
      <point x="321.46666666666664" y="955.8571428571429" type="line"/>
      <point x="365" y="1036"/>
      <point x="458" y="1097"/>
      <point x="576.7333333333333" y="1096.857142857143" type="curve" smooth="yes"/>
      <point x="798" y="1097"/>
      <point x="938" y="870"/>
      <point x="937.8" y="554.4285714285714" type="curve" smooth="yes"/>
      <point x="937.8" y="522.4285714285714" type="line" smooth="yes"/>
      <point x="938" y="207"/>
      <point x="798" y="-20"/>
      <point x="576.7333333333333" y="-20.0" type="curve" smooth="yes"/>
      <point x="458" y="-20"/>
      <point x="376" y="22"/>
      <point x="325.46666666666664" y="100.53333333333333" type="curve"/>
      <point x="325.46666666666664" y="-416.0" type="line"/>
    </contour>
    <contour>
      <point x="325.46666666666664" y="273.6" type="line"/>
      <point x="351" y="214"/>
      <point x="417" y="128"/>
      <point x="533.5333333333333" y="127.73333333333333" type="curve" smooth="yes"/>
      <point x="683" y="128"/>
      <point x="756" y="266"/>
      <point x="756.3333333333334" y="490.42857142857144" type="curve" smooth="yes"/>
      <point x="756.3333333333334" y="586.4285714285714" type="line" smooth="yes"/>
      <point x="756" y="811"/>
      <point x="686" y="949"/>
      <point x="538.8666666666667" y="949.1238095238095" type="curve" smooth="yes"/>
      <point x="432" y="949"/>
      <point x="356" y="872"/>
      <point x="325.46666666666664" y="801.1238095238095" type="curve"/>
    </contour>
  </outline>
</glyph>
<glyph name="q" format="2">
  <advance width="1023"/>
  <unicode hex="0071"/>
  <outline>
    <contour>
      <point x="85.0" y="522.4285714285714" type="curve" smooth="yes"/>
      <point x="85.0" y="554.4285714285714" type="line" smooth="yes"/>
      <point x="85" y="870"/>
      <point x="225" y="1097"/>
      <point x="446.06666666666666" y="1096.857142857143" type="curve" smooth="yes"/>
      <point x="565" y="1097"/>
      <point x="658" y="1036"/>
      <point x="701.3333333333334" y="955.8571428571429" type="curve"/>
      <point x="705.2" y="955.8571428571429" type="line"/>
      <point x="712.1333333333333" y="1076.857142857143" type="line"/>
      <point x="874.8" y="1076.857142857143" type="line"/>
      <point x="874.8" y="-416.0" type="line"/>
      <point x="697.3333333333334" y="-416.0" type="line"/>
      <point x="697.3333333333334" y="108.21428571428571" type="line"/>
      <point x="697.3333333333334" y="108.0" type="line"/>
      <point x="647" y="29"/>
      <point x="565" y="-20"/>
      <point x="446.06666666666666" y="-20.0" type="curve" smooth="yes"/>
      <point x="225" y="-20"/>
      <point x="85" y="207"/>
    </contour>
    <contour>
      <point x="266.46666666666664" y="490.42857142857144" type="line" smooth="yes"/>
      <point x="266" y="266"/>
      <point x="335" y="128"/>
      <point x="489.26666666666665" y="127.73333333333333" type="curve" smooth="yes"/>
      <point x="592" y="128"/>
      <point x="664" y="203"/>
      <point x="697.3333333333334" y="286.4" type="curve"/>
      <point x="697.3333333333334" y="801.1238095238095" type="line"/>
      <point x="670" y="872"/>
      <point x="605" y="949"/>
      <point x="499.93333333333334" y="949.1238095238095" type="curve" smooth="yes"/>
      <point x="346" y="949"/>
      <point x="266" y="826"/>
      <point x="266.46666666666664" y="586.4285714285714" type="curve" smooth="yes"/>
    </contour>
  </outline>
</glyph>
<glyph name="u" format="2">
  <advance width="1003"/>
  <unicode hex="0075"/>
  <outline>
    <contour>
      <point x="138.0" y="352.73333333333335" type="curve" smooth="yes"/>
      <point x="138.0" y="1076.857142857143" type="line"/>
      <point x="315.46666666666664" y="1076.857142857143" type="line"/>
      <point x="315.46666666666664" y="350.73333333333335" type="line" smooth="yes"/>
      <point x="315" y="193"/>
      <point x="362" y="131"/>
      <point x="475.93333333333334" y="130.66666666666666" type="curve" smooth="yes"/>
      <point x="575" y="131"/>
      <point x="632" y="181"/>
      <point x="677.0666666666666" y="265.3333333333333" type="curve"/>
      <point x="677.0666666666666" y="1076.857142857143" type="line"/>
      <point x="854.5333333333333" y="1076.857142857143" type="line"/>
      <point x="854.5333333333333" y="0.0" type="line"/>
      <point x="691.8666666666667" y="0.0" type="line"/>
      <point x="686.0" y="97.66666666666666" type="line"/>
      <point x="680.0" y="97.66666666666666" type="line"/>
      <point x="622" y="28"/>
      <point x="544" y="-20"/>
      <point x="410.26666666666665" y="-20.0" type="curve" smooth="yes"/>
      <point x="252" y="-20"/>
      <point x="138" y="83"/>
    </contour>
  </outline>
</glyph>
<glyph name="v" format="2">
  <advance width="801"/>
  <unicode hex="0076"/>
  <outline>
    <contour>
      <point x="0.0" y="1076.857142857143" type="line"/>
      <point x="180.0" y="1076.857142857143" type="line"/>
      <point x="368.5047619047619" y="386.3142857142857" type="line" smooth="yes"/>
      <point x="383" y="332"/>
      <point x="394" y="290"/>
      <point x="400.3857142857143" y="228.55238095238096" type="curve"/>
      <point x="406.3857142857143" y="228.55238095238096" type="line"/>
      <point x="412" y="290"/>
      <point x="424" y="332"/>
      <point x="438.26666666666665" y="386.3142857142857" type="curve" smooth="yes"/>
      <point x="626.2666666666667" y="1076.857142857143" type="line"/>
      <point x="801.2" y="1076.857142857143" type="line"/>
      <point x="471.6" y="0.0" type="line"/>
      <point x="329.6" y="0.0" type="line"/>
    </contour>
  </outline>
</glyph>
<glyph name="w" format="2">
  <advance width="1322"/>
  <unicode hex="0077"/>
  <outline>
    <contour>
      <point x="25.0" y="1076.857142857143" type="line"/>
      <point x="197.53333333333333" y="1076.857142857143" type="line"/>
      <point x="337.34285714285716" y="396.3142857142857" type="line" smooth="yes"/>
      <point x="349" y="343"/>
      <point x="361" y="292"/>
      <point x="365.93333333333334" y="238.55238095238096" type="curve"/>
      <point x="371.93333333333334" y="238.55238095238096" type="line"/>
      <point x="379" y="292"/>
      <point x="390" y="343"/>
      <point x="404.2285714285714" y="396.3142857142857" type="curve" smooth="yes"/>
      <point x="583.7333333333333" y="1076.857142857143" type="line"/>
      <point x="745.0666666666666" y="1076.857142857143" type="line"/>
      <point x="923.6714285714286" y="396.3142857142857" type="line" smooth="yes"/>
      <point x="938" y="343"/>
      <point x="948" y="292"/>
      <point x="954.6190476190476" y="238.55238095238096" type="curve"/>
      <point x="960.6190476190476" y="238.55238095238096" type="line"/>
      <point x="967" y="292"/>
      <point x="981" y="343"/>
      <point x="990.8380952380953" y="396.3142857142857" type="curve" smooth="yes"/>
      <point x="1130.2" y="1076.857142857143" type="line"/>
      <point x="1295.9333333333334" y="1076.857142857143" type="line"/>
      <point x="1041.3333333333333" y="0.0" type="line"/>
      <point x="879.2666666666667" y="0.0" type="line"/>
      <point x="697.2" y="671.7523809523809" type="line" smooth="yes"/>
      <point x="683" y="725"/>
      <point x="670" y="778"/>
      <point x="661.8666666666667" y="831.7523809523809" type="curve"/>
      <point x="655.8666666666667" y="831.7523809523809" type="line"/>
      <point x="647" y="778"/>
      <point x="636" y="725"/>
      <point x="621.6" y="671.7523809523809" type="curve" smooth="yes"/>
      <point x="442.73333333333335" y="0.0" type="line"/>
      <point x="280.6666666666667" y="0.0" type="line"/>
    </contour>
  </outline>
</glyph>
<glyph name="y" format="2">
  <advance width="816"/>
  <unicode hex="0079"/>
  <outline>
    <contour>
      <point x="52.13333333333333" y="-416.0" type="curve"/>
      <point x="52.13333333333333" y="-263.3333333333333" type="line"/>
      <point x="81" y="-274"/>
      <point x="120" y="-281"/>
      <point x="152.93333333333334" y="-281.3333333333333" type="curve" smooth="yes"/>
      <point x="230" y="-281"/>
      <point x="258" y="-277"/>
      <point x="337.53809523809525" y="-12.952380952380953" type="curve"/>
      <point x="345.8952380952381" y="11.404761904761905" type="line"/>
      <point x="17.46666666666667" y="1076.857142857143" type="line"/>
      <point x="197.46666666666667" y="1076.857142857143" type="line"/>
      <point x="390.3666666666667" y="383.5047619047619" type="line" smooth="yes"/>
      <point x="406" y="330"/>
      <point x="415" y="286"/>
      <point x="420.2809523809524" y="228.55238095238096" type="curve"/>
      <point x="426.2809523809524" y="228.55238095238096" type="line"/>
      <point x="430" y="286"/>
      <point x="441" y="330"/>
      <point x="455.9142857142857" y="383.5047619047619" type="curve" smooth="yes"/>
      <point x="642.2666666666667" y="1076.857142857143" type="line"/>
      <point x="816.1333333333333" y="1076.857142857143" type="line"/>
      <point x="476.6" y="-57.866666666666674" type="line" smooth="yes"/>
      <point x="385" y="-356"/>
      <point x="301" y="-436"/>
      <point x="161.86666666666667" y="-436.0" type="curve" smooth="yes"/>
      <point x="115" y="-436"/>
      <point x="83" y="-429"/>
    </contour>
  </outline>
</glyph>
<glyph name="z" format="2">
  <advance width="790"/>
  <unicode hex="007A"/>
  <outline>
    <contour>
      <point x="54.0" y="0.0" type="line"/>
      <point x="54.0" y="132.8" type="line"/>
      <point x="519.3428571428572" y="929.1238095238095" type="line"/>
      <point x="60.93333333333334" y="929.1238095238095" type="line"/>
      <point x="60.93333333333334" y="1076.857142857143" type="line"/>
      <point x="715.6" y="1076.857142857143" type="line"/>
      <point x="715.6" y="947.0571428571428" type="line"/>
      <point x="248.25714285714287" y="147.73333333333332" type="line"/>
      <point x="741.3333333333334" y="147.73333333333332" type="line"/>
      <point x="741.3333333333334" y="0.0" type="line"/>
    </contour>
  </outline>
</glyph>
<glyph name="bar" format="2">
  <advance width="583"/>
  <unicode hex="007C"/>
  <outline>
    <contour>
      <point x="210.0" y="-416.0" type="line"/>
      <point x="210.0" y="1450.6666666666667" type="line"/>
      <point x="373.46666666666664" y="1450.6666666666667" type="line"/>
      <point x="373.46666666666664" y="-416.0" type="line"/>
    </contour>
  </outline>
</glyph>
<glyph name="braceright" format="2">
  <advance width="691"/>
  <unicode hex="007D"/>
  <outline>
    <contour>
      <point x="82.26666666666667" y="-312.0" type="curve"/>
      <point x="82.26666666666667" y="-170.26666666666668" type="line"/>
      <point x="232" y="-170"/>
      <point x="321" y="-78"/>
      <point x="284.8" y="101.66666666666667" type="curve" smooth="yes"/>
      <point x="238.0" y="334.0" type="line" smooth="yes"/>
      <point x="214" y="447"/>
      <point x="260" y="532"/>
      <point x="392.26666666666665" y="574.0" type="curve"/>
      <point x="260" y="616"/>
      <point x="214" y="701"/>
      <point x="238.0" y="814.0" type="curve" smooth="yes"/>
      <point x="284.8" y="1046.3333333333333" type="line" smooth="yes"/>
      <point x="321" y="1226"/>
      <point x="232" y="1318"/>
      <point x="82.26666666666667" y="1318.2666666666667" type="curve"/>
      <point x="82.26666666666667" y="1460.0" type="line"/>
      <point x="338" y="1460"/>
      <point x="508" y="1267"/>
      <point x="462.26666666666665" y="1046.3333333333333" type="curve" smooth="yes"/>
      <point x="415.46666666666664" y="814.0" type="line" smooth="yes"/>
      <point x="386" y="669"/>
      <point x="470" y="638"/>
      <point x="599.7333333333333" y="637.8666666666667" type="curve"/>
      <point x="599.7333333333333" y="510.1333333333333" type="line"/>
      <point x="470" y="510"/>
      <point x="386" y="479"/>
      <point x="415.46666666666664" y="334.0" type="curve" smooth="yes"/>
      <point x="462.26666666666665" y="101.66666666666667" type="line" smooth="yes"/>
      <point x="508" y="-119"/>
      <point x="338" y="-312"/>
    </contour>
  </outline>
</glyph>
<glyph name="asciitilde" format="2">
  <advance width="1180"/>
  <unicode hex="007E"/>
  <outline>
    <contour>
      <point x="313.8" y="532.0" type="curve"/>
      <point x="313.8" y="734.0" type="line"/>
      <point x="344" y="789"/>
      <point x="381" y="816"/>
      <point x="436.2" y="816.3333333333334" type="curve" smooth="yes"/>
      <point x="478" y="816"/>
      <point x="533" y="801"/>
      <point x="601.9333333333334" y="767.8666666666667" type="curve" smooth="yes"/>
      <point x="661" y="739"/>
      <point x="709" y="727"/>
      <point x="744.2" y="726.6" type="curve" smooth="yes"/>
      <point x="807" y="727"/>
      <point x="843" y="763"/>
      <point x="873.4666666666667" y="829.0" type="curve"/>
      <point x="873.4666666666667" y="626.0" type="line"/>
      <point x="845" y="573"/>
      <point x="806" y="545"/>
      <point x="747.3333333333334" y="544.7333333333333" type="curve" smooth="yes"/>
      <point x="711" y="545"/>
      <point x="661" y="558"/>
      <point x="602.9333333333334" y="584.9333333333333" type="curve" smooth="yes"/>
      <point x="534" y="618"/>
      <point x="481" y="633"/>
      <point x="440.4666666666667" y="633.4" type="curve" smooth="yes"/>
      <point x="382" y="633"/>
      <point x="345" y="601"/>
    </contour>
  </outline>
</glyph>
<glyph name="cent" format="2">
  <advance width="929"/>
  <unicode hex="00A2"/>
  <outline>
    <contour>
      <point x="486.2" y="282.0" type="curve" smooth="yes"/>
      <point x="636" y="282"/>
      <point x="685" y="384"/>
      <point x="684.6666666666666" y="506.93333333333334" type="curve"/>
      <point x="856.4" y="506.93333333333334" type="line"/>
      <point x="857" y="298"/>
      <point x="740" y="134"/>
      <point x="488.3333333333333" y="134.26666666666668" type="curve" smooth="yes"/>
      <point x="244" y="134"/>
      <point x="86" y="325"/>
      <point x="86.33333333333333" y="674.2666666666667" type="curve" smooth="yes"/>
      <point x="86.33333333333333" y="705.6" type="line" smooth="yes"/>
      <point x="86" y="1055"/>
      <point x="241" y="1246"/>
      <point x="496.8666666666667" y="1245.6" type="curve" smooth="yes"/>
      <point x="736" y="1246"/>
      <point x="857" y="1082"/>
      <point x="856.4" y="874.9333333333333" type="curve"/>
      <point x="684.6666666666666" y="874.9333333333333" type="line"/>
      <point x="685" y="998"/>
      <point x="642" y="1097"/>
      <point x="495.8" y="1096.8" type="curve" smooth="yes"/>
      <point x="344" y="1097"/>
      <point x="268" y="961"/>
      <point x="268.06666666666666" y="737.6" type="curve" smooth="yes"/>
      <point x="268.06666666666666" y="642.2666666666667" type="line" smooth="yes"/>
      <point x="268" y="419"/>
      <point x="341" y="282"/>
    </contour>
    <contour>
      <point x="395.4" y="0.0" type="line"/>
      <point x="395.4" y="237.0" type="line"/>
      <point x="400.4" y="251.0" type="line"/>
      <point x="400.4" y="708.0" type="line"/>
      <point x="540.4" y="708.0" type="line"/>
      <point x="540.4" y="250.0" type="line"/>
      <point x="545.4" y="240.0" type="line"/>
      <point x="545.4" y="0.0" type="line"/>
    </contour>
    <contour>
      <point x="400.4" y="708.0" type="line"/>
      <point x="400.4" y="1182.0" type="line"/>
      <point x="395.4" y="1192.0" type="line"/>
      <point x="395.4" y="1402.0" type="line"/>
      <point x="545.4" y="1402.0" type="line"/>
      <point x="545.4" y="1192.0" type="line"/>
      <point x="540.4" y="1179.0" type="line"/>
      <point x="540.4" y="708.0" type="line"/>
    </contour>
  </outline>
</glyph>
<glyph name="sterling" format="2">
  <advance width="927"/>
  <unicode hex="00A3"/>
  <outline>
    <contour>
      <point x="921.3333333333334" y="0.0" type="line"/>
      <point x="36.0" y="0.0" type="line"/>
      <point x="36.0" y="160.0" type="line"/>
      <point x="92.0" y="160.0" type="line" smooth="yes"/>
      <point x="215" y="160"/>
      <point x="269" y="275"/>
      <point x="250.0" y="467.0" type="curve" smooth="yes"/>
      <point x="195.0" y="1039.0" type="line" smooth="yes"/>
      <point x="168" y="1324"/>
      <point x="285" y="1476"/>
      <point x="527.6666666666666" y="1476.0" type="curve" smooth="yes"/>
      <point x="754" y="1476"/>
      <point x="877" y="1345"/>
      <point x="877.3333333333334" y="1103.0" type="curve" smooth="yes"/>
      <point x="877.3333333333334" y="1087.0" type="line"/>
      <point x="685.3333333333334" y="1087.0" type="line"/>
      <point x="685.3333333333334" y="1103.0" type="line" smooth="yes"/>
      <point x="685" y="1234"/>
      <point x="632" y="1309"/>
      <point x="529.6666666666666" y="1309.0" type="curve" smooth="yes"/>
      <point x="417" y="1309"/>
      <point x="367" y="1212"/>
      <point x="383.0" y="1039.0" type="curve" smooth="yes"/>
      <point x="434.0" y="508.0" type="line" smooth="yes"/>
      <point x="451" y="326"/>
      <point x="416" y="221"/>
      <point x="322.0" y="166.0" type="curve"/>
      <point x="921.3333333333334" y="166.0" type="line"/>
    </contour>
    <contour>
      <point x="717.3333333333334" y="629.2666666666667" type="line"/>
      <point x="52.0" y="629.2666666666667" type="line"/>
      <point x="52.0" y="775.7333333333333" type="line"/>
      <point x="717.3333333333334" y="775.7333333333333" type="line"/>
    </contour>
  </outline>
</glyph>
<glyph name="yen" format="2">
  <advance width="969"/>
  <unicode hex="00A5"/>
  <outline>
    <contour>
      <point x="59.0" y="311.0" type="line"/>
      <point x="59.0" y="470.0" type="line"/>
      <point x="917.5333333333333" y="470.0" type="line"/>
      <point x="917.5333333333333" y="311.0" type="line"/>
    </contour>
    <contour>
      <point x="59.0" y="621.0" type="line"/>
      <point x="59.0" y="775.0" type="line"/>
      <point x="388.73333333333335" y="775.0" type="line"/>
      <point x="441.73333333333335" y="669.0" type="line"/>
      <point x="550.7333333333333" y="669.0" type="line"/>
      <point x="598.7333333333333" y="775.0" type="line"/>
      <point x="917.5333333333333" y="775.0" type="line"/>
      <point x="917.5333333333333" y="621.0" type="line"/>
    </contour>
    <contour>
      <point x="399.73333333333335" y="0.0" type="line"/>
      <point x="399.73333333333335" y="548.0" type="line"/>
      <point x="-19.0" y="1456.0" type="line"/>
      <point x="190.0" y="1456.0" type="line"/>
      <point x="429.73333333333335" y="849.0" type="line" smooth="yes"/>
      <point x="446" y="809"/>
      <point x="474" y="729"/>
      <point x="483.73333333333335" y="679.0" type="curve"/>
      <point x="503.73333333333335" y="679.0" type="line"/>
      <point x="516" y="754"/>
      <point x="539" y="809"/>
      <point x="557.7333333333333" y="849.0" type="curve" smooth="yes"/>
      <point x="786.5333333333333" y="1456.0" type="line"/>
      <point x="987.5333333333333" y="1456.0" type="line"/>
      <point x="583.7333333333333" y="548.0" type="line"/>
      <point x="583.7333333333333" y="0.0" type="line"/>
    </contour>
  </outline>
</glyph>
<glyph name="section" format="2">
  <advance width="1256"/>
  <unicode hex="00A7"/>
  <guideline x="0" y="1658.0" angle="0" identifier="QzZ5gIiCyn"/>
  <guideline x="0" y="578.0" angle="0" identifier="9Hxjf2sdFw"/>
  <outline>
    <contour>
      <point x="691.0" y="133.0" type="curve"/>
      <point x="691.0" y="252.0" type="line"/>
      <point x="814" y="252"/>
      <point x="901" y="339"/>
      <point x="900.6666666666666" y="463.0" type="curve"/>
      <point x="901" y="588"/>
      <point x="849" y="651"/>
      <point x="606.0" y="734.0" type="curve" smooth="yes"/>
      <point x="352" y="813"/>
      <point x="249" y="932"/>
      <point x="249.33333333333334" y="1129.0" type="curve" smooth="yes"/>
      <point x="249" y="1362"/>
      <point x="381" y="1490"/>
      <point x="623.0" y="1491.0" type="curve" smooth="yes"/>
      <point x="859" y="1492"/>
      <point x="987" y="1353"/>
      <point x="985.6666666666666" y="1100.0" type="curve"/>
      <point x="820.6666666666666" y="1100.0" type="line"/>
      <point x="822" y="1254"/>
      <point x="752" y="1337"/>
      <point x="623.0" y="1337.0" type="curve" smooth="yes"/>
      <point x="490" y="1337"/>
      <point x="414" y="1267"/>
      <point x="414.3333333333333" y="1140.0" type="curve" smooth="yes"/>
      <point x="414" y="1031"/>
      <point x="496" y="957"/>
      <point x="684.0" y="897.0" type="curve" smooth="yes"/>
      <point x="931" y="819"/>
      <point x="1082" y="711"/>
      <point x="1081.6666666666667" y="478.0" type="curve" smooth="yes"/>
      <point x="1082" y="277"/>
      <point x="921" y="133"/>
    </contour>
    <contour>
      <point x="547.6666666666666" y="894.0" type="curve"/>
      <point x="546.6666666666666" y="756.0" type="line"/>
      <point x="427" y="756"/>
      <point x="354" y="677"/>
      <point x="354.3333333333333" y="567.0" type="curve" smooth="yes"/>
      <point x="354" y="460"/>
      <point x="383" y="411"/>
      <point x="636.0" y="317.0" type="curve" smooth="yes"/>
      <point x="893" y="221"/>
      <point x="995" y="94"/>
      <point x="994.6666666666666" y="-113.0" type="curve" smooth="yes"/>
      <point x="995" y="-369"/>
      <point x="856" y="-509"/>
      <point x="599.0" y="-509.0" type="curve" smooth="yes"/>
      <point x="329" y="-509"/>
      <point x="184" y="-353"/>
      <point x="184.33333333333334" y="-72.0" type="curve"/>
      <point x="348.3333333333333" y="-70.0" type="line"/>
      <point x="348" y="-252"/>
      <point x="434" y="-355"/>
      <point x="599.0" y="-355.0" type="curve" smooth="yes"/>
      <point x="750" y="-355"/>
      <point x="831" y="-278"/>
      <point x="830.6666666666666" y="-136.0" type="curve" smooth="yes"/>
      <point x="831" y="5"/>
      <point x="744" y="93"/>
      <point x="540.0" y="161.0" type="curve" smooth="yes"/>
      <point x="292" y="243"/>
      <point x="172" y="367"/>
      <point x="172.33333333333334" y="577.0" type="curve" smooth="yes"/>
      <point x="172" y="761"/>
      <point x="318" y="894"/>
    </contour>
  </outline>
</glyph>
<glyph name="dieresis" format="2">
  <advance width="1024"/>
  <unicode hex="00A8"/>
  <outline>
    <contour>
      <point x="229.66666666666666" y="1311.0" type="curve" smooth="yes"/>
      <point x="230" y="1371"/>
      <point x="268" y="1418"/>
      <point x="338.6666666666667" y="1418.0" type="curve" smooth="yes"/>
      <point x="411" y="1418"/>
      <point x="449" y="1371"/>
      <point x="448.6666666666667" y="1311.0" type="curve" smooth="yes"/>
      <point x="449" y="1253"/>
      <point x="411" y="1207"/>
      <point x="338.6666666666667" y="1207.0" type="curve" smooth="yes"/>
      <point x="268" y="1207"/>
      <point x="230" y="1253"/>
    </contour>
    <contour>
      <point x="575.3333333333334" y="1309.0" type="curve" smooth="yes"/>
      <point x="575" y="1369"/>
      <point x="612" y="1416"/>
      <point x="684.3333333333334" y="1416.0" type="curve" smooth="yes"/>
      <point x="755" y="1416"/>
      <point x="794" y="1369"/>
      <point x="794.3333333333334" y="1309.0" type="curve" smooth="yes"/>
      <point x="794" y="1251"/>
      <point x="755" y="1205"/>
      <point x="684.3333333333334" y="1205.0" type="curve" smooth="yes"/>
      <point x="612" y="1205"/>
      <point x="575" y="1251"/>
    </contour>
  </outline>
</glyph>
<glyph name="copyright" format="2">
  <advance width="1541"/>
  <unicode hex="00A9"/>
  <guideline x="0" y="901.0" angle="0" identifier="0Pjz0qKr8z"/>
  <guideline x="0" y="555.0" angle="0" identifier="sJo8BlDiJ7"/>
  <outline>
    <contour>
      <point x="920.1333333333333" y="546.0" type="curve"/>
      <point x="1102.1333333333334" y="546.0" type="line"/>
      <point x="1102" y="327"/>
      <point x="982" y="205"/>
      <point x="756.4666666666667" y="205.0" type="curve" smooth="yes"/>
      <point x="534" y="205"/>
      <point x="416" y="368"/>
      <point x="415.8" y="664.0" type="curve" smooth="yes"/>
      <point x="415.8" y="703.0" type="line" smooth="yes"/>
      <point x="416" y="1004"/>
      <point x="541" y="1170"/>
      <point x="773.4666666666667" y="1170.0" type="curve" smooth="yes"/>
      <point x="985" y="1170"/>
      <point x="1103" y="1050"/>
      <point x="1103.1333333333334" y="829.0" type="curve"/>
      <point x="921.1333333333333" y="829.0" type="line"/>
      <point x="921" y="943"/>
      <point x="868" y="1006"/>
      <point x="772.4666666666667" y="1006.0" type="curve" smooth="yes"/>
      <point x="668" y="1006"/>
      <point x="609" y="915"/>
      <point x="608.8" y="747.0" type="curve" smooth="yes"/>
      <point x="608.8" y="621.0" type="line" smooth="yes"/>
      <point x="609" y="453"/>
      <point x="670" y="362"/>
      <point x="781.4666666666667" y="362.0" type="curve" smooth="yes"/>
      <point x="870" y="362"/>
      <point x="920" y="427"/>
    </contour>
    <contour>
      <point x="182.8" y="687.0" type="curve" smooth="yes"/>
      <point x="183" y="302"/>
      <point x="416" y="4"/>
      <point x="771.4666666666667" y="4.0" type="curve" smooth="yes"/>
      <point x="1125" y="4"/>
      <point x="1359" y="302"/>
      <point x="1359.1333333333334" y="687.0" type="curve" smooth="yes"/>
      <point x="1359" y="1073"/>
      <point x="1125" y="1367"/>
      <point x="771.4666666666667" y="1367.0" type="curve" smooth="yes"/>
      <point x="416" y="1367"/>
      <point x="183" y="1073"/>
    </contour>
    <contour>
      <point x="34.8" y="687.0" type="curve" smooth="yes"/>
      <point x="35" y="1159"/>
      <point x="334" y="1519"/>
      <point x="770.4666666666667" y="1519.0" type="curve" smooth="yes"/>
      <point x="1206" y="1519"/>
      <point x="1506" y="1159"/>
      <point x="1506.1333333333334" y="687.0" type="curve" smooth="yes"/>
      <point x="1506" y="218"/>
      <point x="1206" y="-147"/>
      <point x="770.4666666666667" y="-147.0" type="curve" smooth="yes"/>
      <point x="334" y="-147"/>
      <point x="35" y="218"/>
    </contour>
  </outline>
</glyph>
<glyph name="registered" format="2">
  <advance width="1541"/>
  <unicode hex="00AE"/>
  <outline>
    <contour>
      <point x="34.8" y="687.0" type="curve" smooth="yes"/>
      <point x="35" y="1159"/>
      <point x="334" y="1519"/>
      <point x="770.4666666666667" y="1519.0" type="curve" smooth="yes"/>
      <point x="1206" y="1519"/>
      <point x="1506" y="1159"/>
      <point x="1506.1333333333334" y="687.0" type="curve" smooth="yes"/>
      <point x="1506" y="218"/>
      <point x="1206" y="-147"/>
      <point x="770.4666666666667" y="-147.0" type="curve" smooth="yes"/>
      <point x="334" y="-147"/>
      <point x="35" y="218"/>
    </contour>
    <contour>
      <point x="182.8" y="687.0" type="curve" smooth="yes"/>
      <point x="183" y="302"/>
      <point x="416" y="4"/>
      <point x="771.4666666666667" y="4.0" type="curve" smooth="yes"/>
      <point x="1125" y="4"/>
      <point x="1359" y="302"/>
      <point x="1359.1333333333334" y="687.0" type="curve" smooth="yes"/>
      <point x="1359" y="1073"/>
      <point x="1125" y="1367"/>
      <point x="771.4666666666667" y="1367.0" type="curve" smooth="yes"/>
      <point x="416" y="1367"/>
      <point x="183" y="1073"/>
    </contour>
    <contour>
      <point x="798.4666666666667" y="597.0" type="line"/>
      <point x="660.8" y="597.0" type="line"/>
      <point x="660.8" y="225.0" type="line"/>
      <point x="495.8" y="225.0" type="line"/>
      <point x="495.8" y="1158.0" type="line"/>
      <point x="764.4666666666667" y="1158.0" type="line" smooth="yes"/>
      <point x="974" y="1158"/>
      <point x="1087" y="1057"/>
      <point x="1087.1333333333334" y="877.0" type="curve" smooth="yes"/>
      <point x="1087" y="734"/>
      <point x="1025" y="640"/>
      <point x="912.8666666666667" y="618.0" type="curve"/>
      <point x="954" y="587"/>
      <point x="967" y="572"/>
      <point x="985.8666666666667" y="530.0" type="curve" smooth="yes"/>
      <point x="1111.1333333333334" y="243.0" type="line"/>
      <point x="1111.1333333333334" y="225.0" type="line"/>
      <point x="932.1333333333333" y="225.0" type="line"/>
    </contour>
    <contour>
      <point x="765.4666666666667" y="1007.0" type="curve" smooth="yes"/>
      <point x="660.8" y="1007.0" type="line"/>
      <point x="660.8" y="738.0" type="line"/>
      <point x="790.4666666666667" y="738.0" type="line" smooth="yes"/>
      <point x="865" y="738"/>
      <point x="906" y="782"/>
      <point x="906.1333333333333" y="859.0" type="curve" smooth="yes"/>
      <point x="906" y="952"/>
      <point x="854" y="1006"/>
    </contour>
  </outline>
</glyph>
<glyph name="plusminus" format="2">
  <advance width="1024"/>
  <unicode hex="00B1"/>
  <outline>
    <contour>
      <point x="84.73333333333333" y="613.1333333333333" type="line"/>
      <point x="84.73333333333333" y="772.8666666666667" type="line"/>
      <point x="939.2666666666667" y="772.8666666666667" type="line"/>
      <point x="939.2666666666667" y="613.1333333333333" type="line"/>
    </contour>
    <contour>
      <point x="426.26666666666665" y="248.0" type="line"/>
      <point x="426.26666666666665" y="1160.0" type="line"/>
      <point x="597.7333333333333" y="1160.0" type="line"/>
      <point x="597.7333333333333" y="248.0" type="line"/>
    </contour>
    <contour>
      <point x="84.73333333333333" y="1.0" type="line"/>
      <point x="84.73333333333333" y="165.0" type="line"/>
      <point x="939.2666666666667" y="165.0" type="line"/>
      <point x="939.2666666666667" y="1.0" type="line"/>
    </contour>
  </outline>
</glyph>
<glyph name="guillemotright" format="2">
  <advance width="1031"/>
  <unicode hex="00BB"/>
  <guideline x="0" y="98.0" angle="0" identifier="MTEldNnfdj"/>
  <guideline x="0" y="443.0" angle="0" identifier="G9bQni2n1K"/>
  <outline>
    <contour>
      <point x="548.8666666666667" y="153.0" type="line"/>
      <point x="753.5333333333333" y="551.0" type="line"/>
      <point x="548.8666666666667" y="949.0" type="line"/>
      <point x="710.8666666666667" y="949.0" type="line"/>
      <point x="952.5333333333333" y="579.9333333333333" type="line"/>
      <point x="952.5333333333333" y="520.9333333333333" type="line"/>
      <point x="710.8666666666667" y="153.0" type="line"/>
    </contour>
    <contour>
      <point x="50.19999999999999" y="153.0" type="line"/>
      <point x="254.86666666666667" y="551.0" type="line"/>
      <point x="50.19999999999999" y="949.0" type="line"/>
      <point x="212.2" y="949.0" type="line"/>
      <point x="453.8666666666667" y="579.9333333333333" type="line"/>
      <point x="453.8666666666667" y="520.9333333333333" type="line"/>
      <point x="212.2" y="153.0" type="line"/>
    </contour>
  </outline>
</glyph>
<glyph name="questiondown" format="2">
  <advance width="951"/>
  <unicode hex="00BF"/>
  <guideline x="0" y="-181.0" angle="0" identifier="apukwP5ffL"/>
  <guideline x="0" y="921.0" angle="0" identifier="5ZPZZL8Rim"/>
  <outline>
    <contour>
      <point x="635.2" y="1053.1333333333334" type="curve" smooth="yes"/>
      <point x="635" y="989"/>
      <point x="593" y="936"/>
      <point x="516.5333333333333" y="936.2666666666667" type="curve" smooth="yes"/>
      <point x="439" y="936"/>
      <point x="397" y="989"/>
      <point x="396.8" y="1053.1333333333334" type="curve" smooth="yes"/>
      <point x="397" y="1117"/>
      <point x="438" y="1170"/>
      <point x="515.4666666666667" y="1170.0" type="curve" smooth="yes"/>
      <point x="593" y="1170"/>
      <point x="635" y="1117"/>
    </contour>
    <contour>
      <point x="839.7333333333333" y="53.0" type="line"/>
      <point x="839.7333333333333" y="33.0" type="line" smooth="yes"/>
      <point x="840" y="-198"/>
      <point x="709" y="-328"/>
      <point x="492.6666666666667" y="-328.0" type="curve" smooth="yes"/>
      <point x="277" y="-328"/>
      <point x="151" y="-191"/>
      <point x="150.53333333333333" y="45.86666666666667" type="curve" smooth="yes"/>
      <point x="151" y="230"/>
      <point x="258" y="367"/>
      <point x="341.73333333333335" y="454.0" type="curve" smooth="yes"/>
      <point x="433" y="550"/>
      <point x="436" y="637"/>
      <point x="435.73333333333335" y="728.0" type="curve" smooth="yes"/>
      <point x="435.73333333333335" y="738.0" type="line"/>
      <point x="613.2" y="738.0" type="line"/>
      <point x="613.2" y="728.0" type="line" smooth="yes"/>
      <point x="613" y="563"/>
      <point x="596" y="496"/>
      <point x="478.8" y="361.8" type="curve" smooth="yes"/>
      <point x="386" y="256"/>
      <point x="328" y="181"/>
      <point x="328.0" y="45.86666666666667" type="curve" smooth="yes"/>
      <point x="328" y="-97"/>
      <point x="381" y="-171"/>
      <point x="492.6666666666667" y="-171.33333333333334" type="curve" smooth="yes"/>
      <point x="604" y="-171"/>
      <point x="663" y="-104"/>
      <point x="663.2666666666667" y="33.0" type="curve" smooth="yes"/>
      <point x="663.2666666666667" y="53.0" type="line"/>
    </contour>
  </outline>
</glyph>
<glyph name="germandbls" format="2">
  <advance width="1177"/>
  <unicode hex="00DF"/>
  <outline>
    <contour>
      <point x="326.6666666666667" y="1092.0" type="curve" name="hr00"/>
      <point x="326.6666666666667" y="0.0" type="line"/>
      <point x="148.0" y="0.0" type="line"/>
      <point x="148.0" y="1092.0" type="line" smooth="yes"/>
      <point x="148" y="1364"/>
      <point x="288" y="1534"/>
      <point x="555.0" y="1534.0" type="curve" smooth="yes"/>
      <point x="775" y="1534"/>
      <point x="896" y="1411"/>
      <point x="895.6666666666666" y="1215.0" type="curve" smooth="yes"/>
      <point x="896" y="1097"/>
      <point x="869" y="1031"/>
      <point x="819.3333333333334" y="973.0" type="curve" smooth="yes"/>
      <point x="776" y="922"/>
      <point x="734" y="869"/>
      <point x="733.6666666666666" y="830.0" type="curve" smooth="yes"/>
      <point x="734" y="766"/>
      <point x="823" y="702"/>
      <point x="931.6666666666666" y="619.0" type="curve" smooth="yes"/>
      <point x="1036" y="540"/>
      <point x="1095" y="455"/>
      <point x="1095.3333333333333" y="282.0" type="curve" smooth="yes"/>
      <point x="1095" y="84"/>
      <point x="975" y="-20"/>
      <point x="753.0" y="-20.0" type="curve" smooth="yes"/>
      <point x="546" y="-20"/>
      <point x="435" y="85"/>
      <point x="434.6666666666667" y="278.0" type="curve" smooth="yes"/>
      <point x="434.6666666666667" y="304.0" type="line"/>
      <point x="597.6666666666666" y="304.0" type="line"/>
      <point x="597.6666666666666" y="295.0" type="line" smooth="yes"/>
      <point x="598" y="190"/>
      <point x="653" y="131"/>
      <point x="755.0" y="131.0" type="curve" smooth="yes"/>
      <point x="862" y="131"/>
      <point x="920" y="192"/>
      <point x="920.3333333333334" y="302.0" type="curve" smooth="yes"/>
      <point x="920" y="394"/>
      <point x="862" y="450"/>
      <point x="785.6666666666666" y="512.0" type="curve" smooth="yes"/>
      <point x="689" y="588"/>
      <point x="563" y="675"/>
      <point x="563.0" y="797.0" type="curve" smooth="yes"/>
      <point x="563" y="896"/>
      <point x="624" y="967"/>
      <point x="667.3333333333334" y="1026.0" type="curve" smooth="yes"/>
      <point x="706" y="1080"/>
      <point x="721" y="1130"/>
      <point x="720.6666666666666" y="1204.0" type="curve" smooth="yes"/>
      <point x="721" y="1323"/>
      <point x="661" y="1383"/>
      <point x="551.0" y="1383.0" type="curve" smooth="yes"/>
      <point x="413" y="1383"/>
      <point x="327" y="1292"/>
    </contour>
  </outline>
</glyph>
<glyph name="ae" format="2">
  <advance width="1482"/>
  <unicode hex="00E6"/>
  <outline>
    <contour>
      <point x="267.46666666666664" y="307.2" type="curve" smooth="yes"/>
      <point x="267" y="178"/>
      <point x="322" y="124"/>
      <point x="424.93333333333334" y="123.73333333333333" type="curve" smooth="yes"/>
      <point x="535" y="124"/>
      <point x="648" y="206"/>
      <point x="647.8666666666667" y="342.6" type="curve" smooth="yes"/>
      <point x="647.8666666666667" y="518.1333333333333" type="line"/>
      <point x="486.4" y="518.1333333333333" type="line" smooth="yes"/>
      <point x="345" y="518"/>
      <point x="267" y="456"/>
    </contour>
    <contour>
      <point x="90.0" y="308.53333333333336" type="curve" smooth="yes"/>
      <point x="90" y="529"/>
      <point x="233" y="646"/>
      <point x="469.6" y="645.8666666666667" type="curve" smooth="yes"/>
      <point x="647.8666666666667" y="645.8666666666667" type="line"/>
      <point x="647.8666666666667" y="720.0" type="line" smooth="yes"/>
      <point x="648" y="850"/>
      <point x="606" y="938"/>
      <point x="486.4" y="938.2666666666667" type="curve" smooth="yes"/>
      <point x="367" y="938"/>
      <point x="320" y="860"/>
      <point x="319.93333333333334" y="770.0" type="curve" smooth="yes"/>
      <point x="319.93333333333334" y="765.0" type="line"/>
      <point x="143.46666666666667" y="765.0" type="line"/>
      <point x="143.46666666666667" y="770.0" type="line" smooth="yes"/>
      <point x="143" y="952"/>
      <point x="277" y="1082"/>
      <point x="490.3333333333333" y="1082.0" type="curve" smooth="yes"/>
      <point x="616" y="1082"/>
      <point x="711" y="1048"/>
      <point x="769.1333333333333" y="961.6" type="curve"/>
      <point x="843" y="1042"/>
      <point x="938" y="1082"/>
      <point x="1049.8" y="1082.0" type="curve" smooth="yes"/>
      <point x="1292" y="1082"/>
      <point x="1426" y="910"/>
      <point x="1426.4" y="560.0" type="curve" smooth="yes"/>
      <point x="1426.4" y="486.1333333333333" type="line"/>
      <point x="746.4666666666667" y="486.1333333333333" type="line"/>
      <point x="746.4666666666667" y="629.8666666666667" type="line"/>
      <point x="1246.9333333333334" y="629.8666666666667" type="line"/>
      <point x="1246.8666666666668" y="650.6666666666666" type="line" smooth="yes"/>
      <point x="1247" y="813"/>
      <point x="1195" y="934"/>
      <point x="1050.0" y="934.2666666666667" type="curve" smooth="yes"/>
      <point x="904" y="934"/>
      <point x="827" y="824"/>
      <point x="826.7333333333333" y="574.0" type="curve" smooth="yes"/>
      <point x="826.7333333333333" y="478.0" type="line" smooth="yes"/>
      <point x="827" y="240"/>
      <point x="896" y="118"/>
      <point x="1064.8666666666668" y="117.73333333333333" type="curve" smooth="yes"/>
      <point x="1183" y="118"/>
      <point x="1250" y="186"/>
      <point x="1300.5333333333333" y="264.6666666666667" type="curve"/>
      <point x="1432.2666666666667" y="186.73333333333332" type="line"/>
      <point x="1368" y="59"/>
      <point x="1244" y="-30"/>
      <point x="1075.5333333333333" y="-30.0" type="curve" smooth="yes"/>
      <point x="914" y="-30"/>
      <point x="797" y="36"/>
      <point x="725.6666666666666" y="157.53333333333333" type="curve"/>
      <point x="652" y="42"/>
      <point x="536" y="-20"/>
      <point x="393.4666666666667" y="-20.0" type="curve" smooth="yes"/>
      <point x="222" y="-20"/>
      <point x="90" y="80"/>
    </contour>
  </outline>
</glyph>
<glyph name="thorn" format="2">
  <advance width="1023"/>
  <unicode hex="00FE"/>
  <outline>
    <contour>
      <point x="148.0" y="-416.0" type="line"/>
      <point x="148.0" y="1536.0" type="line"/>
      <point x="316.93333333333334" y="1536.0" type="line"/>
      <point x="316.93333333333334" y="930.1333333333333" type="line"/>
      <point x="365.7093333333333" y="1010.0866666666666"/>
      <point x="457.91999999999996" y="1072.0"/>
      <point x="576.7333333333333" y="1072.0" type="curve" smooth="yes"/>
      <point x="797.5653333333333" y="1072.0"/>
      <point x="937.8" y="850.2"/>
      <point x="937.8" y="542.0" type="curve" smooth="yes"/>
      <point x="937.8" y="510.0" type="line" smooth="yes"/>
      <point x="937.8" y="201.79999999999995"/>
      <point x="797.5653333333333" y="-20.0"/>
      <point x="576.7333333333333" y="-20.0" type="curve" smooth="yes"/>
      <point x="457.91999999999996" y="-20.0"/>
      <point x="375.4746666666667" y="22.029333333333327"/>
      <point x="324.73333333333335" y="101.0" type="curve"/>
      <point x="325.0" y="101.0" type="line"/>
      <point x="325.53333333333336" y="-416.0" type="line"/>
    </contour>
    <contour>
      <point x="325.46666666666664" y="273.6" type="line"/>
      <point x="351.28400000000005" y="214.10399999999998"/>
      <point x="416.68533333333335" y="127.73333333333333"/>
      <point x="533.5333333333333" y="127.73333333333333" type="curve" smooth="yes"/>
      <point x="683.0773333333334" y="127.73333333333333"/>
      <point x="756.3333333333334" y="260.74133333333333"/>
      <point x="756.3333333333334" y="478.0" type="curve" smooth="yes"/>
      <point x="756.3333333333334" y="574.0" type="line" smooth="yes"/>
      <point x="756.3333333333334" y="791.2586666666666"/>
      <point x="685.552" y="924.2666666666667"/>
      <point x="538.8666666666667" y="924.2666666666667" type="curve" smooth="yes"/>
      <point x="432.024" y="924.2666666666667"/>
      <point x="355.572" y="847.1973333333334"/>
      <point x="325.46666666666664" y="776.2666666666667" type="curve"/>
    </contour>
  </outline>
</glyph>
<glyph name="oe" format="2">
  <advance width="1576"/>
  <unicode hex="0153"/>
  <outline>
    <contour>
      <point x="266.46666666666664" y="574.0" type="curve" smooth="yes"/>
      <point x="266.46666666666664" y="478.0" type="line" smooth="yes"/>
      <point x="266.46666666666664" y="256.7213333333333"/>
      <point x="345.192" y="117.73333333333333"/>
      <point x="503.1333333333333" y="117.73333333333333" type="curve" smooth="yes"/>
      <point x="661.0746666666666" y="117.73333333333333"/>
      <point x="740.8666666666667" y="256.81066666666663"/>
      <point x="740.8666666666667" y="478.0" type="curve" smooth="yes"/>
      <point x="740.8666666666667" y="574.0" type="line" smooth="yes"/>
      <point x="740.8666666666667" y="802.336"/>
      <point x="669.6506666666667" y="934.2666666666667"/>
      <point x="503.1333333333333" y="934.2666666666667" type="curve" smooth="yes"/>
      <point x="336.616" y="934.2666666666667"/>
      <point x="266.46666666666664" y="795.2786666666667"/>
    </contour>
    <contour>
      <point x="829.8" y="911.8666666666667" type="curve"/>
      <point x="903.768" y="1026.5706666666667"/>
      <point x="1011.5759999999999" y="1082.0"/>
      <point x="1141.4666666666667" y="1082.0" type="curve" smooth="yes"/>
      <point x="1386.3293333333334" y="1082.0"/>
      <point x="1519.9333333333334" y="910.1866666666667"/>
      <point x="1519.9333333333334" y="560.0" type="curve" smooth="yes"/>
      <point x="1519.9333333333334" y="486.1333333333333" type="line"/>
      <point x="840.0" y="486.1333333333333" type="line"/>
      <point x="840.0" y="629.8666666666667" type="line"/>
      <point x="1340.4666666666667" y="629.8666666666667" type="line"/>
      <point x="1340.4" y="650.6666666666666" type="line" smooth="yes"/>
      <point x="1340.4893333333334" y="813.432"/>
      <point x="1289.128" y="934.2666666666667"/>
      <point x="1142.8" y="934.2666666666667" type="curve" smooth="yes"/>
      <point x="997.3653333333333" y="934.2666666666667"/>
      <point x="920.2666666666667" y="823.776"/>
      <point x="920.2666666666667" y="574.0" type="curve" smooth="yes"/>
      <point x="920.2666666666667" y="478.0" type="line" smooth="yes"/>
      <point x="920.2666666666667" y="239.65866666666665"/>
      <point x="990.584" y="117.73333333333333"/>
      <point x="1159.0666666666666" y="117.73333333333333" type="curve" smooth="yes"/>
      <point x="1277.3439999999998" y="117.73333333333333"/>
      <point x="1343.772" y="185.69599999999997"/>
      <point x="1394.0666666666666" y="264.6666666666667" type="curve"/>
      <point x="1525.8" y="186.73333333333332" type="line"/>
      <point x="1461.6586666666667" y="59.07599999999999"/>
      <point x="1337.668" y="-30.0"/>
      <point x="1167.6666666666667" y="-30.0" type="curve" smooth="yes"/>
      <point x="1019.4626666666666" y="-30.0"/>
      <point x="904.1706666666666" y="25.76933333333332"/>
      <point x="829.6666666666666" y="139.13333333333333" type="curve"/>
      <point x="753.7333333333333" y="25.679999999999993"/>
      <point x="640.652" y="-30.0"/>
      <point x="505.1333333333333" y="-30.0" type="curve" smooth="yes"/>
      <point x="246.7813333333333" y="-30.0"/>
      <point x="85.0" y="162.49333333333328"/>
      <point x="85.0" y="510.0" type="curve" smooth="yes"/>
      <point x="85.0" y="542.0" type="line" smooth="yes"/>
      <point x="85.0" y="889.5066666666667"/>
      <point x="247.2786666666666" y="1082.0666666666666"/>
      <point x="503.93333333333334" y="1082.0666666666666" type="curve" smooth="yes"/>
      <point x="640.256" y="1082.0666666666666"/>
      <point x="754.4026666666666" y="1027.0173333333332"/>
    </contour>
  </outline>
</glyph>
<glyph name="Schwa" format="2">
  <advance width="1297"/>
  <unicode hex="018F"/>
  <outline>
    <contour>
      <point x="64.0" y="1199.0" type="line"/>
      <point x="192.46133333333336" y="1405.0919999999999"/>
      <point x="382.16666666666663" y="1519.0"/>
      <point x="594.3333333333334" y="1519.0" type="curve" smooth="yes"/>
      <point x="1040.5533333333333" y="1519.0"/>
      <point x="1216.6666666666667" y="1197.7"/>
      <point x="1216.6666666666667" y="789.0" type="curve" smooth="yes"/>
      <point x="1216.6666666666667" y="328.03999999999996"/>
      <point x="1005.9333333333334" y="-30.0"/>
      <point x="617.3333333333334" y="-30.0" type="curve" smooth="yes"/>
      <point x="283.22666666666663" y="-30.0"/>
      <point x="102.0" y="185.7373333333333"/>
      <point x="102.0" y="578.0" type="curve" smooth="yes"/>
      <point x="102.0" y="686.0" type="line"/>
      <point x="1078.6666666666667" y="686.0" type="line"/>
      <point x="1078.6666666666667" y="554.0" type="line"/>
      <point x="590.3333333333334" y="562.0" type="line"/>
      <point x="298.0" y="556.0" type="line"/>
      <point x="298.0" y="481.0" type="line" smooth="yes"/>
      <point x="298.0" y="231.40266666666668"/>
      <point x="414.98799999999994" y="97.0"/>
      <point x="627.3333333333334" y="97.0" type="curve" smooth="yes"/>
      <point x="908.7333333333333" y="97.0"/>
      <point x="1028.3466666666668" y="364.41999999999996"/>
      <point x="1025.6666666666667" y="749.0" type="curve" smooth="yes"/>
      <point x="1022.9866666666666" y="1148.3200000000002"/>
      <point x="856.3933333333334" y="1375.0"/>
      <point x="576.3333333333334" y="1375.0" type="curve" smooth="yes"/>
      <point x="396.7733333333333" y="1375.0"/>
      <point x="248.74533333333335" y="1287.8719999999998"/>
      <point x="157.0" y="1126.0" type="curve"/>
    </contour>
  </outline>
</glyph>
<glyph name="florin" format="2">
  <advance width="940"/>
  <unicode hex="0192"/>
  <outline>
    <contour>
      <point x="782.6666666666666" y="877.7333333333333" type="line"/>
      <point x="782.6666666666666" y="744.2666666666667" type="line"/>
      <point x="512.3333333333334" y="744.2666666666667" type="line"/>
      <point x="512.3333333333334" y="111.0" type="line" smooth="yes"/>
      <point x="512.3333333333334" y="-276.70666666666676"/>
      <point x="391.18933333333337" y="-437.0"/>
      <point x="103.0" y="-437.0" type="curve" smooth="yes"/>
      <point x="61.46" y="-437.0"/>
      <point x="28.520000000000003" y="-433.4"/>
      <point x="-9.0" y="-420.0" type="curve"/>
      <point x="5.0" y="-271.0" type="line"/>
      <point x="25.1" y="-279.04"/>
      <point x="84.24" y="-284.0"/>
      <point x="103.0" y="-284.0" type="curve" smooth="yes"/>
      <point x="257.99333333333334" y="-284.0"/>
      <point x="321.616" y="-165.48666666666668"/>
      <point x="327.3333333333333" y="111.0" type="curve" smooth="yes"/>
      <point x="327.3333333333333" y="744.2666666666667" type="line"/>
      <point x="129.0" y="744.2666666666667" type="line"/>
      <point x="129.0" y="877.7333333333333" type="line"/>
      <point x="327.3333333333333" y="877.7333333333333" type="line"/>
      <point x="327.3333333333333" y="1126.0" type="line" smooth="yes"/>
      <point x="327.3333333333333" y="1360.5"/>
      <point x="433.62" y="1487.0"/>
      <point x="644.0" y="1487.0" type="curve" smooth="yes"/>
      <point x="737.8" y="1487.0"/>
      <point x="791.192" y="1469.928"/>
      <point x="877.6666666666666" y="1404.0" type="curve"/>
      <point x="796.6666666666666" y="1259.0" type="line"/>
      <point x="737.2600000000001" y="1306.2573333333332"/>
      <point x="703.8333333333333" y="1320.0"/>
      <point x="648.0" y="1320.0" type="curve" smooth="yes"/>
      <point x="554.2" y="1320.0"/>
      <point x="506.616" y="1257.32"/>
      <point x="512.3333333333334" y="1126.0" type="curve" smooth="yes"/>
      <point x="512.3333333333334" y="877.7333333333333" type="line"/>
    </contour>
  </outline>
</glyph>
<glyph name="schwa" format="2">
  <advance width="975"/>
  <unicode hex="0259"/>
  <outline>
    <contour>
      <point x="889.6666666666666" y="542.0" type="curve" smooth="yes"/>
      <point x="889.6666666666666" y="510.0" type="line" smooth="yes"/>
      <point x="889.6666666666666" y="159.6346666666666"/>
      <point x="737.2866666666666" y="-30.0"/>
      <point x="456.3333333333333" y="-30.0" type="curve" smooth="yes"/>
      <point x="195.39066666666668" y="-30.0"/>
      <point x="52.0" y="153.248"/>
      <point x="52.0" y="492.0" type="curve" smooth="yes"/>
      <point x="52.0" y="568.0" type="line"/>
      <point x="775.6666666666666" y="568.0" type="line"/>
      <point x="775.6666666666666" y="420.0" type="line"/>
      <point x="240.0" y="420.0" type="line"/>
      <point x="239.0" y="396.0" type="line"/>
      <point x="240.34" y="217.512"/>
      <point x="314.8693333333333" y="122.0"/>
      <point x="448.3333333333333" y="122.0" type="curve" smooth="yes"/>
      <point x="609.4906666666667" y="122.0"/>
      <point x="699.6666666666666" y="257.27599999999995"/>
      <point x="699.6666666666666" y="510.0" type="curve" smooth="yes"/>
      <point x="699.6666666666666" y="542.0" type="line" smooth="yes"/>
      <point x="699.6666666666666" y="794.724"/>
      <point x="601.9626666666667" y="930.0"/>
      <point x="426.3333333333333" y="930.0" type="curve" smooth="yes"/>
      <point x="340.9306666666667" y="930.0"/>
      <point x="251.73466666666667" y="878.1226666666666"/>
      <point x="180.0" y="782.0" type="curve"/>
      <point x="60.0" y="877.0" type="line"/>
      <point x="149.86933333333332" y="1011.8040000000001"/>
      <point x="279.648" y="1082.0"/>
      <point x="426.3333333333333" y="1082.0" type="curve" smooth="yes"/>
      <point x="726.0466666666666" y="1082.0"/>
      <point x="889.6666666666666" y="892.3653333333334"/>
    </contour>
  </outline>
</glyph>
<glyph name="dotaccent" format="2">
  <advance width="1024"/>
  <unicode hex="02D9"/>
  <outline>
    <contour>
      <point x="392.0" y="1341.0" type="curve" smooth="yes"/>
      <point x="392.0" y="1399.96"/>
      <point x="439.64" y="1457.0"/>
      <point x="512.0" y="1457.0" type="curve" smooth="yes"/>
      <point x="583.02" y="1457.0"/>
      <point x="632.0" y="1399.96"/>
      <point x="632.0" y="1341.0" type="curve" smooth="yes"/>
      <point x="632.0" y="1282.04"/>
      <point x="583.02" y="1226.0"/>
      <point x="512.0" y="1226.0" type="curve" smooth="yes"/>
      <point x="439.64" y="1226.0"/>
      <point x="392.0" y="1282.04"/>
    </contour>
  </outline>
</glyph>
<glyph name="hungarumlaut" format="2">
  <advance width="1024"/>
  <unicode hex="02DD"/>
  <outline>
    <contour>
      <point x="343.8" y="1290.0" type="line"/>
      <point x="564.5333333333333" y="1584.0" type="line"/>
      <point x="695.8" y="1479.0" type="line"/>
      <point x="422.4" y="1204.0" type="line"/>
    </contour>
    <contour>
      <point x="628.2" y="1290.0" type="line"/>
      <point x="848.9333333333333" y="1584.0" type="line"/>
      <point x="980.2" y="1479.0" type="line"/>
      <point x="705.7333333333333" y="1204.0" type="line"/>
    </contour>
  </outline>
</glyph>
<glyph name="hookabovecomb" format="2">
  <advance width="1024"/>
  <unicode hex="0309"/>
  <outline>
    <contour>
      <point x="454.0" y="1147.0" type="line"/>
      <point x="454.0" y="1186.0" type="line" smooth="yes"/>
      <point x="454.0" y="1255.68"/>
      <point x="487.15999999999997" y="1304.26"/>
      <point x="589.0" y="1319.0" type="curve" smooth="yes"/>
      <point x="664.04" y="1329.72"/>
      <point x="685.0" y="1345.06"/>
      <point x="685.0" y="1400.0" type="curve" smooth="yes"/>
      <point x="685.0" y="1452.26"/>
      <point x="644.36" y="1475.0"/>
      <point x="572.0" y="1475.0" type="curve" smooth="yes"/>
      <point x="486.24" y="1475.0"/>
      <point x="399.4" y="1444.72"/>
      <point x="386.0" y="1434.0" type="curve"/>
      <point x="332.0" y="1559.0" type="line"/>
      <point x="378.9" y="1584.46"/>
      <point x="493.12" y="1619.0"/>
      <point x="603.0" y="1619.0" type="curve" smooth="yes"/>
      <point x="763.8" y="1619.0"/>
      <point x="848.0" y="1537.64"/>
      <point x="848.0" y="1409.0" type="curve" smooth="yes"/>
      <point x="848.0" y="1273.66"/>
      <point x="768.62" y="1192.74"/>
      <point x="577.0" y="1178.0" type="curve"/>
      <point x="577.0" y="1147.0" type="line"/>
    </contour>
  </outline>
</glyph>
<glyph name="dieresisbelowcomb" format="2">
  <advance width="1024"/>
  <unicode hex="0324"/>
  <outline>
    <contour>
      <point x="280.1333333333333" y="-320.53333333333336" type="curve" smooth="yes"/>
      <point x="280.1333333333333" y="-261.12666666666667"/>
      <point x="317.9146666666667" y="-214.0"/>
      <point x="388.6666666666667" y="-214.0" type="curve" smooth="yes"/>
      <point x="461.116" y="-214.0"/>
      <point x="498.26666666666665" y="-260.76933333333335"/>
      <point x="498.26666666666665" y="-320.53333333333336" type="curve" smooth="yes"/>
      <point x="498.26666666666665" y="-377.17066666666665"/>
      <point x="460.7586666666667" y="-423.93333333333334"/>
      <point x="388.6666666666667" y="-423.93333333333334" type="curve" smooth="yes"/>
      <point x="317.64666666666665" y="-423.93333333333334"/>
      <point x="280.1333333333333" y="-377.4386666666667"/>
    </contour>
    <contour>
      <point x="623.8666666666667" y="-322.6666666666667" type="curve" smooth="yes"/>
      <point x="623.8666666666667" y="-263.26"/>
      <point x="660.2186666666666" y="-216.13333333333333"/>
      <point x="732.4" y="-216.13333333333333" type="curve" smooth="yes"/>
      <point x="803.42" y="-216.13333333333333"/>
      <point x="842.0" y="-262.9026666666667"/>
      <point x="842.0" y="-322.6666666666667" type="curve" smooth="yes"/>
      <point x="842.0" y="-379.304"/>
      <point x="803.0626666666667" y="-426.06666666666666"/>
      <point x="732.4" y="-426.06666666666666" type="curve" smooth="yes"/>
      <point x="659.9506666666667" y="-426.06666666666666"/>
      <point x="623.8666666666667" y="-379.572"/>
    </contour>
  </outline>
</glyph>
<glyph name="brevebelowcomb" format="2">
  <advance width="1024"/>
  <unicode hex="032E"/>
  <outline>
    <contour>
      <point x="750.7333333333333" y="-144.06666666666666" type="curve"/>
      <point x="845.8666666666667" y="-197.0" type="line"/>
      <point x="799.324" y="-329.65999999999997"/>
      <point x="680.2986666666667" y="-463.0"/>
      <point x="513.0666666666667" y="-463.0" type="curve" smooth="yes"/>
      <point x="362.9866666666666" y="-463.0"/>
      <point x="235.94400000000002" y="-348.76"/>
      <point x="180.2" y="-196.0" type="curve"/>
      <point x="284.4666666666667" y="-144.06666666666666" type="line"/>
      <point x="330.652" y="-219.91066666666666"/>
      <point x="409.70266666666663" y="-299.3333333333333"/>
      <point x="514.1333333333333" y="-299.3333333333333" type="curve" smooth="yes"/>
      <point x="625.0853333333332" y="-299.3333333333333"/>
      <point x="703.1186666666667" y="-225.18133333333333"/>
    </contour>
  </outline>
</glyph>
<glyph name="Theta" format="2">
  <advance width="1262"/>
  <unicode hex="0398"/>
  <outline>
    <contour>
      <point x="630.8" y="-30.0" type="curve" smooth="yes"/>
      <point x="321.88533333333334" y="-30.0"/>
      <point x="115.0" y="203.17333333333335"/>
      <point x="115.0" y="682.0" type="curve" smooth="yes"/>
      <point x="115.0" y="774.0" type="line" smooth="yes"/>
      <point x="115.0" y="1252.8266666666666"/>
      <point x="321.88533333333334" y="1486.0"/>
      <point x="630.8" y="1486.0" type="curve" smooth="yes"/>
      <point x="939.7146666666667" y="1486.0"/>
      <point x="1145.5333333333333" y="1252.8266666666666"/>
      <point x="1145.5333333333333" y="774.0" type="curve" smooth="yes"/>
      <point x="1145.5333333333333" y="682.0" type="line" smooth="yes"/>
      <point x="1145.5333333333333" y="203.17333333333335"/>
      <point x="939.7146666666667" y="-30.0"/>
    </contour>
    <contour>
      <point x="630.8" y="128.66666666666666" type="curve" smooth="yes"/>
      <point x="838.2320000000001" y="128.66666666666666"/>
      <point x="960.0666666666666" y="304.10133333333334"/>
      <point x="960.0666666666666" y="650.0" type="curve" smooth="yes"/>
      <point x="960.0666666666666" y="807.0666666666666" type="line" smooth="yes"/>
      <point x="960.0666666666666" y="1152.9653333333335"/>
      <point x="838.2320000000001" y="1327.3333333333333"/>
      <point x="630.8" y="1327.3333333333333" type="curve" smooth="yes"/>
      <point x="423.368" y="1327.3333333333333"/>
      <point x="299.4" y="1152.9653333333335"/>
      <point x="299.4" y="807.0666666666666" type="curve" smooth="yes"/>
      <point x="299.4" y="650.0" type="line" smooth="yes"/>
      <point x="299.4" y="304.10133333333334"/>
      <point x="423.368" y="128.66666666666666"/>
    </contour>
    <contour>
      <point x="400.8" y="659.0" type="line"/>
      <point x="400.8" y="827.0" type="line"/>
      <point x="858.6666666666666" y="827.0" type="line"/>
      <point x="858.6666666666666" y="659.0" type="line"/>
    </contour>
  </outline>
</glyph>
<glyph name="Lambda" format="2">
  <advance width="1034"/>
  <unicode hex="039B"/>
  <outline>
    <contour>
      <point x="0.0" y="0.0" type="line"/>
      <point x="418.8" y="1466.0" type="line"/>
      <point x="614.2666666666667" y="1466.0" type="line"/>
      <point x="1034.1333333333332" y="0.0" type="line"/>
      <point x="848.0" y="0.0" type="line"/>
      <point x="552.2666666666667" y="1108.5333333333333" type="line" smooth="yes"/>
      <point x="540.3853333333333" y="1154.1826666666666"/>
      <point x="527.484" y="1193.7426666666665"/>
      <point x="519.5333333333333" y="1236.5333333333333" type="curve"/>
      <point x="511.6666666666667" y="1236.5333333333333" type="line"/>
      <point x="503.716" y="1193.7426666666665"/>
      <point x="488.59200000000004" y="1154.1826666666666"/>
      <point x="476.8" y="1108.5333333333333" type="curve" smooth="yes"/>
      <point x="179.2" y="0.0" type="line"/>
    </contour>
  </outline>
</glyph>
<glyph name="Xi" format="2">
  <advance width="1012"/>
  <unicode hex="039E"/>
  <outline>
    <contour>
      <point x="68.0" y="0.0" type="line"/>
      <point x="68.0" y="172.66666666666666" type="line"/>
      <point x="944.0" y="172.66666666666666" type="line"/>
      <point x="944.0" y="0.0" type="line"/>
    </contour>
    <contour>
      <point x="170.0" y="655.6" type="line"/>
      <point x="170.0" y="829.3333333333334" type="line"/>
      <point x="842.0" y="829.3333333333334" type="line"/>
      <point x="842.0" y="655.6" type="line"/>
    </contour>
    <contour>
      <point x="68.0" y="1283.3333333333333" type="line"/>
      <point x="68.0" y="1456.0" type="line"/>
      <point x="944.0" y="1456.0" type="line"/>
      <point x="944.0" y="1283.3333333333333" type="line"/>
    </contour>
  </outline>
</glyph>
<glyph name="Sigma" format="2">
  <advance width="983"/>
  <unicode hex="03A3"/>
  <outline>
    <contour>
      <point x="34.06666666666666" y="0.0" type="line"/>
      <point x="34.06666666666666" y="125.26666666666667" type="line"/>
      <point x="386.5333333333333" y="748.0" type="line"/>
      <point x="399.33333333333337" y="702.0" type="line"/>
      <point x="48.2" y="1322.1333333333334" type="line"/>
      <point x="48.2" y="1456.0" type="line"/>
      <point x="914.9333333333334" y="1456.0" type="line"/>
      <point x="914.9333333333334" y="1303.2666666666667" type="line"/>
      <point x="222.4" y="1303.2666666666667" type="line"/>
      <point x="249.4" y="1322.0" type="line"/>
      <point x="569.0666666666666" y="756.0" type="line"/>
      <point x="569.0666666666666" y="726.6666666666666" type="line"/>
      <point x="231.13333333333333" y="135.0" type="line"/>
      <point x="231.86666666666667" y="152.66666666666666" type="line"/>
      <point x="949.0666666666666" y="152.66666666666666" type="line"/>
      <point x="949.0666666666666" y="0.0" type="line"/>
    </contour>
  </outline>
</glyph>
<glyph name="gamma" format="2">
  <advance width="801"/>
  <unicode hex="03B3"/>
  <outline>
    <contour>
      <point x="315.06666666666666" y="-366.0" type="line"/>
      <point x="315.06666666666666" y="51.42857142857143" type="line"/>
      <point x="0.0" y="1076.857142857143" type="line"/>
      <point x="180.0" y="1076.857142857143" type="line"/>
      <point x="368.93333333333334" y="385.8809523809524" type="line" smooth="yes"/>
      <point x="390.2648571428571" y="310.8409523809524"/>
      <point x="399.3137142857143" y="253.96990476190476"/>
      <point x="400.3857142857143" y="224.28571428571428" type="curve"/>
      <point x="405.31904761904764" y="224.28571428571428" type="line"/>
      <point x="406.3910476190476" y="253.96990476190476"/>
      <point x="416.5065714285715" y="310.55380952380955"/>
      <point x="437.8380952380952" y="385.8809523809524" type="curve" smooth="yes"/>
      <point x="626.2666666666667" y="1076.857142857143" type="line"/>
      <point x="801.2" y="1076.857142857143" type="line"/>
      <point x="486.1333333333333" y="51.42857142857143" type="line"/>
      <point x="486.1333333333333" y="-366.0" type="line"/>
    </contour>
  </outline>
</glyph>
<glyph name="zeta" format="2">
  <advance width="661"/>
  <unicode hex="03B6"/>
  <outline>
    <contour>
      <point x="457.4666666666667" y="-348.0" type="line"/>
      <point x="484.892" y="-257.41599999999994"/>
      <point x="493.8666666666667" y="-198.94666666666666"/>
      <point x="493.8666666666667" y="-142.66666666666666" type="curve" smooth="yes"/>
      <point x="493.8666666666667" y="-76.47066666666666"/>
      <point x="474.88666666666666" y="-51.13600000000001"/>
      <point x="359.2" y="-5.933333333333334" type="curve" smooth="yes"/>
      <point x="299.06666666666666" y="18.066666666666666" type="line" smooth="yes"/>
      <point x="125.49199999999999" y="86.94266666666667"/>
      <point x="43.66666666666667" y="180.79999999999998"/>
      <point x="43.66666666666667" y="355.0" type="curve" smooth="yes"/>
      <point x="43.66666666666667" y="542.6"/>
      <point x="145.17199999999997" y="739.38"/>
      <point x="284.8" y="998.0" type="curve" smooth="yes"/>
      <point x="504.0" y="1404.0" type="line"/>
      <point x="515.5333333333333" y="1378.2666666666667" type="line"/>
      <point x="45.93333333333334" y="1378.2666666666667" type="line"/>
      <point x="45.93333333333334" y="1536.0" type="line"/>
      <point x="696.0" y="1536.0" type="line"/>
      <point x="696.0" y="1399.0" type="line"/>
      <point x="437.4666666666667" y="916.0" type="line" smooth="yes"/>
      <point x="303.1093333333333" y="665.42"/>
      <point x="225.2" y="501.32000000000005"/>
      <point x="225.2" y="370.0" type="curve" smooth="yes"/>
      <point x="225.2" y="258.95866666666666"/>
      <point x="279.912" y="207.34533333333334"/>
      <point x="395.8666666666667" y="164.73333333333332" type="curve" smooth="yes"/>
      <point x="451.8" y="144.0" type="line" smooth="yes"/>
      <point x="643.688" y="73.60533333333333"/>
      <point x="660.6" y="13.283999999999992"/>
      <point x="660.6" y="-84.0" type="curve"/>
      <point x="660.6893333333333" y="-159.04000000000002"/>
      <point x="640.8373333333334" y="-254.2"/>
      <point x="606.5333333333333" y="-348.0" type="curve"/>
    </contour>
  </outline>
</glyph>
<glyph name="eta" format="2">
  <advance width="1003"/>
  <unicode hex="03B7"/>
  <anchor x="401.3333333333333" y="1076.857142857143" name="GRK_top"/>
  <outline>
    <contour>
      <point x="687" y="-416" type="line"/>
      <point x="687.0666666666666" y="736.7904761904762" type="line" smooth="yes"/>
      <point x="687" y="883"/>
      <point x="637.736" y="946.1904761904761"/>
      <point x="525.5333333333333" y="946.1904761904761" type="curve" smooth="yes"/>
      <point x="423.4253333333333" y="946.1904761904761"/>
      <point x="353.51733333333334" y="871.2518095238095"/>
      <point x="325.46666666666664" y="800.8571428571429" type="curve"/>
      <point x="325.46666666666664" y="0.0" type="line"/>
      <point x="148.0" y="0.0" type="line"/>
      <point x="148.0" y="1076.857142857143" type="line"/>
      <point x="310.6666666666667" y="1076.857142857143" type="line"/>
      <point x="317.6" y="957.8571428571429" type="line"/>
      <point x="321.46666666666664" y="957.8571428571429" type="line"/>
      <point x="382.124" y="1045.7611428571427"/>
      <point x="473.328" y="1096.857142857143"/>
      <point x="581.6" y="1096.857142857143" type="curve" smooth="yes"/>
      <point x="756.068" y="1096.857142857143"/>
      <point x="864" y="994"/>
      <point x="864.5333333333333" y="724.1238095238095" type="curve" smooth="yes"/>
      <point x="865" y="-416" type="line"/>
    </contour>
  </outline>
</glyph>
<glyph name="kappa" format="2">
  <advance width="891"/>
  <unicode hex="03BA"/>
  <outline>
    <contour>
      <point x="148.0" y="0.0" type="line"/>
      <point x="148.0" y="1076.857142857143" type="line"/>
      <point x="325.46666666666664" y="1076.857142857143" type="line"/>
      <point x="325.46666666666664" y="0.0" type="line"/>
    </contour>
    <contour>
      <point x="229.01904761904763" y="477.85714285714283" type="line"/>
      <point x="229.01904761904763" y="622.8571428571429" type="line"/>
      <point x="393.0857142857143" y="622.8571428571429" type="line"/>
      <point x="681.9190476190477" y="1076.857142857143" type="line"/>
      <point x="867.9190476190477" y="1076.857142857143" type="line"/>
      <point x="481.0857142857143" y="477.85714285714283" type="line"/>
    </contour>
    <contour>
      <point x="707.5619047619048" y="0.0" type="line"/>
      <point x="384.0857142857143" y="489.85714285714283" type="line"/>
      <point x="495.95238095238096" y="615.8571428571429" type="line"/>
      <point x="905.6952380952381" y="0.0" type="line"/>
    </contour>
  </outline>
</glyph>
<glyph name="xi" format="2">
  <advance width="733"/>
  <unicode hex="03BE"/>
  <outline>
    <contour>
      <point x="497.4666666666667" y="-348.0" type="line"/>
      <point x="522.0333333333333" y="-273.13866666666667"/>
      <point x="533.8666666666667" y="-198.94666666666666"/>
      <point x="533.8666666666667" y="-142.66666666666666" type="curve" smooth="yes"/>
      <point x="533.8666666666667" y="-75.04133333333334"/>
      <point x="508.6861904761905" y="-51.73780952380953"/>
      <point x="420.5333333333333" y="-14.466666666666667" type="curve" smooth="yes"/>
      <point x="345.31904761904764" y="17.038095238095238" type="line" smooth="yes"/>
      <point x="194.9710476190476" y="80.53495238095238"/>
      <point x="84.91066666666667" y="167.38095238095238"/>
      <point x="85.0" y="400.2857142857143" type="curve" smooth="yes"/>
      <point x="85.0" y="613.4605714285715"/>
      <point x="193.80266666666665" y="741.200761904762"/>
      <point x="340.6666666666667" y="779.9714285714285" type="curve"/>
      <point x="340.94761904761907" y="761.9714285714285" type="line"/>
      <point x="220.18809523809523" y="802.3628571428573"/>
      <point x="123.4" y="905.9085714285715"/>
      <point x="123.4" y="1077.4285714285713" type="curve" smooth="yes"/>
      <point x="123.4" y="1228.8485714285714"/>
      <point x="214.23266666666666" y="1348.6688571428572"/>
      <point x="368.4666666666667" y="1384.6" type="curve"/>
      <point x="368.4666666666667" y="1378.2666666666667" type="line"/>
      <point x="89.93333333333334" y="1378.2666666666667" type="line"/>
      <point x="89.93333333333334" y="1536.0" type="line"/>
      <point x="698.8" y="1536.0" type="line"/>
      <point x="698.8" y="1385.2666666666667" type="line"/>
      <point x="451.0978095238095" y="1362.6780952380952"/>
      <point x="297.06666666666666" y="1282.8520952380952"/>
      <point x="297.06666666666666" y="1077.7619047619048" type="curve" smooth="yes"/>
      <point x="297.06666666666666" y="951.5339047619048"/>
      <point x="383.22399999999993" y="856.8780952380953"/>
      <point x="557.0666666666667" y="854.5809523809523" type="curve" smooth="yes"/>
      <point x="652.8" y="854.5809523809523" type="line"/>
      <point x="652.8" y="696.847619047619" type="line"/>
      <point x="557.0666666666667" y="696.847619047619" type="line" smooth="yes"/>
      <point x="350.6173333333333" y="696.847619047619"/>
      <point x="266.46666666666664" y="605.6405714285715"/>
      <point x="266.46666666666664" y="423.2857142857143" type="curve" smooth="yes"/>
      <point x="266.46666666666664" y="261.1201904761905"/>
      <point x="342.5544761904762" y="201.04504761904764"/>
      <point x="444.8666666666667" y="162.0" type="curve" smooth="yes"/>
      <point x="492.8666666666667" y="144.0" type="line" smooth="yes"/>
      <point x="663.1360000000001" y="81.46666666666665"/>
      <point x="700.6" y="23.28933333333333"/>
      <point x="700.6" y="-84.0" type="curve" smooth="yes"/>
      <point x="700.6893333333333" y="-159.04000000000002"/>
      <point x="681.904" y="-254.2"/>
      <point x="647.6" y="-348.0" type="curve"/>
    </contour>
  </outline>
</glyph>
<glyph name="finalsigma" format="2">
  <advance width="889"/>
  <unicode hex="03C2"/>
  <outline>
    <contour>
      <point x="560.1333333333333" y="-348.0" type="line"/>
      <point x="587.5586666666667" y="-260.2746666666667"/>
      <point x="596.5333333333333" y="-198.94666666666666"/>
      <point x="596.5333333333333" y="-142.66666666666666" type="curve"/>
      <point x="596.5333333333333" y="-63.60666666666667"/>
      <point x="562.7866666666666" y="-31.12"/>
      <point x="467.2" y="-7.0" type="curve" smooth="yes"/>
      <point x="368.8" y="17.733333333333334" type="line" smooth="yes"/>
      <point x="181.11066666666667" y="65.61600000000001"/>
      <point x="85.0" y="167.95885714285714"/>
      <point x="85.0" y="497.1904761904762" type="curve" smooth="yes"/>
      <point x="85.0" y="554.0" type="line" smooth="yes"/>
      <point x="85.0" y="917.2676190476191"/>
      <point x="240.35066666666663" y="1106.857142857143"/>
      <point x="495.93333333333334" y="1106.857142857143" type="curve" smooth="yes"/>
      <point x="733.024" y="1106.857142857143"/>
      <point x="856.3333333333334" y="936.6638095238095"/>
      <point x="856.3333333333334" y="738.7904761904762" type="curve" smooth="yes"/>
      <point x="856.3333333333334" y="730.5714285714286" type="line"/>
      <point x="684.8666666666667" y="730.5714285714286" type="line"/>
      <point x="684.8666666666667" y="739.8571428571429" type="line" smooth="yes"/>
      <point x="684.8666666666667" y="853.7571428571429"/>
      <point x="643.7013333333333" y="958.0571428571428"/>
      <point x="493.8" y="958.0571428571428" type="curve" smooth="yes"/>
      <point x="334.51866666666666" y="958.0571428571428"/>
      <point x="266.46666666666664" y="829.0851428571427"/>
      <point x="266.46666666666664" y="543.3333333333334" type="curve" smooth="yes"/>
      <point x="266.46666666666664" y="495.1904761904762" type="line" smooth="yes"/>
      <point x="266.46666666666664" y="289.5961904761905"/>
      <point x="304.7186666666667" y="210.49200000000002"/>
      <point x="441.6666666666667" y="174.13333333333333" type="curve" smooth="yes"/>
      <point x="539.5333333333333" y="148.26666666666668" type="line" smooth="yes"/>
      <point x="698.3679999999999" y="105.744"/>
      <point x="763.2666666666667" y="39.012"/>
      <point x="763.2666666666667" y="-84.0" type="curve" smooth="yes"/>
      <point x="763.3560000000001" y="-159.04000000000002"/>
      <point x="743.5039999999999" y="-254.2"/>
      <point x="709.2" y="-348.0" type="curve"/>
    </contour>
  </outline>
</glyph>
<glyph name="sigma" format="2">
  <advance width="1050"/>
  <unicode hex="03C3"/>
  <outline>
    <contour>
      <point x="504.2" y="-30.0" type="curve" smooth="yes"/>
      <point x="248.52799999999996" y="-30.0"/>
      <point x="85.0" y="174.28095238095239"/>
      <point x="85.0" y="503.85714285714283" type="curve" smooth="yes"/>
      <point x="85.0" y="534.0" type="line" smooth="yes"/>
      <point x="85.0" y="867.787619047619"/>
      <point x="257.188" y="1076.857142857143"/>
      <point x="509.73333333333335" y="1076.857142857143" type="curve" smooth="yes"/>
      <point x="999.9333333333334" y="1076.857142857143" type="line"/>
      <point x="999.9333333333334" y="919.1238095238095" type="line"/>
      <point x="761.2" y="919.1238095238095" type="line"/>
      <point x="761.2" y="937.8571428571429" type="line"/>
      <point x="855.2679999999999" y="874.8771428571429"/>
      <point x="922.3333333333334" y="760.567619047619"/>
      <point x="922.3333333333334" y="538.0" type="curve" smooth="yes"/>
      <point x="922.3333333333334" y="507.85714285714283" type="line" smooth="yes"/>
      <point x="922.3333333333334" y="178.28095238095239"/>
      <point x="759.8720000000001" y="-30.0"/>
    </contour>
    <contour>
      <point x="504.2" y="117.73333333333333" type="curve" smooth="yes"/>
      <point x="662.1413333333333" y="117.73333333333333"/>
      <point x="741.9333333333334" y="260.3782857142857"/>
      <point x="741.9333333333334" y="507.85714285714283" type="curve" smooth="yes"/>
      <point x="741.9333333333334" y="538.0" type="line" smooth="yes"/>
      <point x="741.9333333333334" y="780.3102857142858"/>
      <point x="661.1173333333334" y="926.9904761904762"/>
      <point x="503.5333333333333" y="926.9904761904762" type="curve" smooth="yes"/>
      <point x="341.1125714285714" y="926.9904761904762"/>
      <point x="265.4" y="771.7542857142857"/>
      <point x="265.4" y="534.0" type="curve" smooth="yes"/>
      <point x="265.4" y="503.85714285714283" type="line" smooth="yes"/>
      <point x="265.4" y="256.3782857142857"/>
      <point x="344.8293333333333" y="117.73333333333333"/>
    </contour>
  </outline>
</glyph>
<glyph name="tau" format="2">
  <advance width="711"/>
  <unicode hex="03C4"/>
  <outline>
    <contour>
      <point x="32.0" y="919.1238095238095" type="line"/>
      <point x="32.0" y="1076.857142857143" type="line"/>
      <point x="693.2" y="1076.857142857143" type="line"/>
      <point x="693.2" y="919.1238095238095" type="line"/>
    </contour>
    <contour>
      <point x="491.6" y="-30.0" type="curve" smooth="yes"/>
      <point x="356.08133333333336" y="-30.0"/>
      <point x="269.46666666666664" y="59.0"/>
      <point x="269.46666666666664" y="260.0" type="curve" smooth="yes"/>
      <point x="269.46666666666664" y="997.9904761904762" type="line"/>
      <point x="446.93333333333334" y="997.9904761904762" type="line"/>
      <point x="446.93333333333334" y="252.53333333333333" type="line" smooth="yes"/>
      <point x="446.93333333333334" y="150.15733333333333"/>
      <point x="473.72266666666667" y="124.66666666666667"/>
      <point x="538.4" y="124.66666666666667" type="curve" smooth="yes"/>
      <point x="568.7733333333334" y="124.66666666666667"/>
      <point x="595.6266666666667" y="130.792"/>
      <point x="626.0" y="141.33333333333334" type="curve"/>
      <point x="626.0" y="0.0" type="line"/>
      <point x="596.8773333333334" y="-16.080000000000002"/>
      <point x="548.5946666666666" y="-30.0"/>
    </contour>
  </outline>
</glyph>
<glyph name="psi" format="2">
  <advance width="1306"/>
  <unicode hex="03C8"/>
  <outline>
    <contour>
      <point x="604.6666666666666" y="-416.0" type="line"/>
      <point x="604.6666666666666" y="-20.0" type="line"/>
      <point x="323.17733333333337" y="-6.6"/>
      <point x="138.0" y="154.38"/>
      <point x="138.0" y="480.0" type="curve" smooth="yes"/>
      <point x="138.0" y="1076.857142857143" type="line"/>
      <point x="315.46666666666664" y="1076.857142857143" type="line"/>
      <point x="315.46666666666664" y="490.0" type="line" smooth="yes"/>
      <point x="315.46666666666664" y="264.88"/>
      <point x="415.3693333333333" y="144.06666666666666"/>
      <point x="604.6666666666666" y="130.66666666666666" type="curve"/>
      <point x="604.6666666666666" y="1536.0" type="line"/>
      <point x="782.1333333333333" y="1536.0" type="line"/>
      <point x="782.1333333333333" y="130.66666666666666" type="line"/>
      <point x="972.86" y="144.06666666666666"/>
      <point x="1072.4" y="264.88"/>
      <point x="1072.4" y="490.0" type="curve" smooth="yes"/>
      <point x="1072.4" y="1076.857142857143" type="line"/>
      <point x="1250.9333333333334" y="1076.857142857143" type="line"/>
      <point x="1250.9333333333334" y="480.0" type="line" smooth="yes"/>
      <point x="1250.9333333333334" y="154.38"/>
      <point x="1065.0520000000001" y="-6.6"/>
      <point x="782.1333333333333" y="-20.0" type="curve"/>
      <point x="782.1333333333333" y="-416.0" type="line"/>
    </contour>
  </outline>
</glyph>
<glyph name="omega" format="2">
  <advance width="1430"/>
  <unicode hex="03C9"/>
  <anchor x="710.3333333333334" y="1076.857142857143" name="GRK_top"/>
  <outline>
    <contour>
      <point x="441.4666666666667" y="-30.0" type="curve" smooth="yes"/>
      <point x="221.97466666666668" y="-30.0"/>
      <point x="95.0" y="129.52761904761894"/>
      <point x="95.0" y="495.6666666666667" type="curve" smooth="yes"/>
      <point x="95.0" y="762.7095238095238"/>
      <point x="167.33733333333333" y="958.9371428571429"/>
      <point x="273.73333333333335" y="1076.857142857143" type="curve"/>
      <point x="456.3333333333333" y="1076.857142857143" type="line"/>
      <point x="332.696" y="925.4371428571428"/>
      <point x="276.46666666666664" y="719.1695238095239"/>
      <point x="276.46666666666664" y="493.6666666666667" type="curve" smooth="yes"/>
      <point x="276.46666666666664" y="226.8662857142857"/>
      <point x="332.27066666666667" y="121.73333333333333"/>
      <point x="456.53333333333336" y="121.73333333333333" type="curve"/>
      <point x="569.4506666666666" y="121.73333333333333"/>
      <point x="625.8666666666667" y="225.92"/>
      <point x="625.8666666666667" y="376.0" type="curve" smooth="yes"/>
      <point x="625.8666666666667" y="719.0952380952381" type="line"/>
      <point x="803.3333333333334" y="719.0952380952381" type="line"/>
      <point x="803.3333333333334" y="376.0" type="line" smooth="yes"/>
      <point x="803.3333333333334" y="228.77866666666665"/>
      <point x="857.3213333333333" y="121.73333333333333"/>
      <point x="975.8666666666667" y="121.73333333333333" type="curve" smooth="yes"/>
      <point x="1092.9826666666665" y="121.73333333333333"/>
      <point x="1151.6666666666667" y="221.14895238095238"/>
      <point x="1151.6666666666667" y="493.6666666666667" type="curve"/>
      <point x="1151.6666666666667" y="719.1695238095239"/>
      <point x="1096.9333333333334" y="925.4371428571428"/>
      <point x="971.8666666666667" y="1076.857142857143" type="curve"/>
      <point x="1155.4666666666667" y="1076.857142857143" type="line"/>
      <point x="1266.1506666666667" y="951.7904761904762"/>
      <point x="1335.2666666666667" y="757.6535238095238"/>
      <point x="1335.2666666666667" y="506.3333333333333" type="curve"/>
      <point x="1335.2666666666667" y="120.183619047619"/>
      <point x="1204.7293333333334" y="-30.0"/>
      <point x="986.6666666666666" y="-30.0" type="curve" smooth="yes"/>
      <point x="856.4186666666667" y="-30.0"/>
      <point x="741.596" y="61.81333333333333"/>
      <point x="706.6666666666666" y="233.33333333333334" type="curve"/>
      <point x="721.4666666666667" y="233.33333333333334" type="line"/>
      <point x="686.5373333333333" y="61.81333333333333"/>
      <point x="574.5733333333333" y="-30.0"/>
    </contour>
  </outline>
</glyph>
<glyph name="Kaisymbol" format="2">
  <advance width="1101"/>
  <unicode hex="03CF"/>
  <outline>
    <contour>
      <point x="497.1333333333333" y="-590.0" type="line"/>
      <point x="387.4" y="-466.6666666666667" type="line"/>
      <point x="906.4666666666667" y="15.066666666666666" type="line"/>
      <point x="478.4" y="682.6" type="line"/>
      <point x="353.46666666666664" y="525.6" type="line"/>
      <point x="353.46666666666664" y="0.0" type="line"/>
      <point x="170.0" y="0.0" type="line"/>
      <point x="170.0" y="1456.0" type="line"/>
      <point x="353.46666666666664" y="1456.0" type="line"/>
      <point x="353.46666666666664" y="759.2" type="line"/>
      <point x="891.6" y="1456.0" type="line"/>
      <point x="1095.8666666666668" y="1456.0" type="line"/>
      <point x="585.3333333333334" y="816.5333333333333" type="line"/>
      <point x="1121.2" y="-0.9333333333333336" type="line"/>
    </contour>
  </outline>
</glyph>
<glyph name="kaisymbol" format="2">
  <advance width="1078"/>
  <unicode hex="03D7"/>
  <outline>
    <contour>
      <point x="363.5761904761905" y="-590.0" type="line"/>
      <point x="234.90952380952382" y="-475.3333333333333" type="line"/>
      <point x="695.9761904761905" y="17.938095238095237" type="line"/>
      <point x="391.6714285714286" y="477.85714285714283" type="line"/>
      <point x="325.46666666666664" y="477.85714285714283" type="line"/>
      <point x="325.46666666666664" y="0.0" type="line"/>
      <point x="148.0" y="0.0" type="line"/>
      <point x="148.0" y="1076.857142857143" type="line"/>
      <point x="325.46666666666664" y="1076.857142857143" type="line"/>
      <point x="325.46666666666664" y="622.8571428571429" type="line"/>
      <point x="392.87142857142857" y="622.8571428571429" type="line"/>
      <point x="681.7047619047619" y="1076.857142857143" type="line"/>
      <point x="867.7047619047619" y="1076.857142857143" type="line"/>
      <point x="532.5238095238095" y="558.7095238095238" type="line"/>
      <point x="905.7" y="-5.152380952380952" type="line"/>
    </contour>
  </outline>
</glyph>
<glyph name="Ieukran" format="2">
  <advance width="1145"/>
  <unicode hex="0404"/>
  <guideline x="211.0" y="787.0" angle="90.0" identifier="mFTeE97JTj"/>
  <outline>
    <contour>
      <point x="207.8" y="815.0666666666667" type="line"/>
      <point x="786.6666666666666" y="815.0666666666667" type="line"/>
      <point x="786.6666666666666" y="661.3333333333334" type="line"/>
      <point x="207.8" y="661.3333333333334" type="line"/>
    </contour>
    <contour>
      <point x="115.0" y="682.0" type="curve" smooth="yes"/>
      <point x="115.0" y="774.0" type="line" smooth="yes"/>
      <point x="115.0" y="1264.2613333333331"/>
      <point x="317.7333333333333" y="1486.0"/>
      <point x="630.4" y="1486.0" type="curve" smooth="yes"/>
      <point x="924.4853333333333" y="1486.0"/>
      <point x="1096.8666666666668" y="1300.0173333333332"/>
      <point x="1096.8666666666668" y="1010.6666666666666" type="curve" smooth="yes"/>
      <point x="1096.8666666666668" y="1000.6666666666666" type="line"/>
      <point x="913.4" y="1000.6666666666666" type="line"/>
      <point x="913.4" y="1010.6666666666666" type="line" smooth="yes"/>
      <point x="913.4" y="1176.9160000000002"/>
      <point x="842.7453333333334" y="1327.3333333333333"/>
      <point x="630.4" y="1327.3333333333333" type="curve" smooth="yes"/>
      <point x="407.692" y="1327.3333333333333"/>
      <point x="299.4" y="1162.188"/>
      <point x="299.4" y="816.2" type="curve" smooth="yes"/>
      <point x="299.4" y="639.8666666666667" type="line" smooth="yes"/>
      <point x="299.4" y="308.976"/>
      <point x="428.1546666666666" y="128.66666666666666"/>
      <point x="629.3333333333334" y="128.66666666666666" type="curve" smooth="yes"/>
      <point x="819.792" y="128.66666666666666"/>
      <point x="906.1413333333334" y="288.82133333333337"/>
      <point x="913.4666666666667" y="445.3333333333333" type="curve"/>
      <point x="913.4" y="455.3333333333333" type="line"/>
      <point x="1096.8666666666668" y="455.3333333333333" type="line"/>
      <point x="1096.9333333333334" y="445.3333333333333" type="line" smooth="yes"/>
      <point x="1098.72" y="155.89333333333332"/>
      <point x="924.4853333333333" y="-30.0"/>
      <point x="630.4" y="-30.0" type="curve" smooth="yes"/>
      <point x="314.87466666666666" y="-30.0"/>
      <point x="115.0" y="198.88533333333334"/>
    </contour>
  </outline>
</glyph>
<glyph name="Lje" format="2">
  <advance width="1776"/>
  <unicode hex="0409"/>
  <outline>
    <contour>
      <point x="289.93333333333334" y="1456.0" type="line"/>
      <point x="1052.9333333333334" y="1456.0" type="line"/>
      <point x="1052.9333333333334" y="894.5333333333333" type="line"/>
      <point x="1268.2666666666667" y="894.5333333333333" type="line" smooth="yes"/>
      <point x="1546.9866666666667" y="894.5333333333333"/>
      <point x="1698.0" y="747.2826666666666"/>
      <point x="1698.0" y="449.26666666666665" type="curve" smooth="yes"/>
      <point x="1698.0" y="151.2506666666667"/>
      <point x="1546.9866666666667" y="0.0"/>
      <point x="1268.2666666666667" y="0.0" type="curve" smooth="yes"/>
      <point x="869.4666666666667" y="0.0" type="line"/>
      <point x="869.4666666666667" y="1302.2666666666667" type="line"/>
      <point x="453.4666666666667" y="1302.2666666666667" type="line"/>
      <point x="416.8" y="542.0" type="line" smooth="yes"/>
      <point x="399.648" y="170.01599999999996"/>
      <point x="337.232" y="-16.133333333333333"/>
      <point x="103.0" y="-16.133333333333333" type="curve" smooth="yes"/>
      <point x="75.128" y="-16.133333333333333"/>
      <point x="43.14266666666667" y="-12.533333333333333"/>
      <point x="10.0" y="0.8666666666666671" type="curve"/>
      <point x="10.0" y="168.06666666666666" type="line"/>
      <point x="37.872" y="157.34666666666666"/>
      <point x="58.348000000000006" y="155.06666666666666"/>
      <point x="82.2" y="155.06666666666666" type="curve" smooth="yes"/>
      <point x="198.86933333333332" y="155.06666666666666"/>
      <point x="233.83866666666665" y="267.604"/>
      <point x="248.4" y="575.0" type="curve" smooth="yes"/>
    </contour>
    <contour>
      <point x="1052.9333333333334" y="740.8" type="line"/>
      <point x="1052.9333333333334" y="152.66666666666666" type="line"/>
      <point x="1268.2666666666667" y="152.66666666666666" type="line" smooth="yes"/>
      <point x="1451.7573333333335" y="152.66666666666666"/>
      <point x="1514.5333333333333" y="277.03200000000004"/>
      <point x="1514.5333333333333" y="449.26666666666665" type="curve" smooth="yes"/>
      <point x="1514.5333333333333" y="622.9306666666666"/>
      <point x="1452.1200000000001" y="740.8"/>
      <point x="1267.2" y="740.8" type="curve" smooth="yes"/>
    </contour>
  </outline>
</glyph>
<glyph name="Tshe" format="2">
  <advance width="1479"/>
  <unicode hex="040B"/>
  <guideline x="568.0" y="683.0" angle="90.0" identifier="juO2xYoEN4"/>
  <outline>
    <contour>
      <point x="1145.2" y="0.0" type="line"/>
      <point x="1147.3333333333333" y="335.3333333333333" type="line" smooth="yes"/>
      <point x="1148.7626666666667" y="635.3146666666668"/>
      <point x="1040.0253333333333" y="696.2666666666667"/>
      <point x="842.8666666666667" y="696.2666666666667" type="curve" smooth="yes"/>
      <point x="702.8459219219217" y="696.2666666666667"/>
      <point x="605.0253333333334" y="681.576"/>
      <point x="506.1333333333333" y="659.6" type="curve"/>
      <point x="506.1333333333333" y="813.3333333333334" type="line"/>
      <point x="642.3666666666666" y="836.828"/>
      <point x="714.9942564102606" y="850.0"/>
      <point x="842.9333333333334" y="850.0" type="curve" smooth="yes"/>
      <point x="1158.6373333333333" y="850.0"/>
      <point x="1328.6666666666667" y="718.952"/>
      <point x="1328.6666666666667" y="335.5333333333333" type="curve" smooth="yes"/>
      <point x="1328.6666666666667" y="0.0" type="line"/>
    </contour>
    <contour>
      <point x="24.0" y="1303.3333333333333" type="line"/>
      <point x="24.0" y="1456.0" type="line"/>
      <point x="987.7333333333333" y="1456.0" type="line"/>
      <point x="987.7333333333333" y="1303.3333333333333" type="line"/>
      <point x="597.8666666666667" y="1303.3333333333333" type="line"/>
      <point x="597.8666666666667" y="0.0" type="line"/>
      <point x="415.4666666666667" y="0.0" type="line"/>
      <point x="415.4666666666667" y="1303.3333333333333" type="line"/>
    </contour>
  </outline>
</glyph>
<glyph name="Dzhe" format="2">
  <advance width="1282"/>
  <unicode hex="040F"/>
  <outline>
    <contour>
      <point x="727.1333333333333" y="0.0" type="line"/>
      <point x="727.1333333333333" y="-290.0" type="line"/>
      <point x="555.1333333333333" y="-290.0" type="line"/>
      <point x="555.1333333333333" y="0.0" type="line"/>
      <point x="170.0" y="0.0" type="line"/>
      <point x="170.0" y="1456.0" type="line"/>
      <point x="353.46666666666664" y="1456.0" type="line"/>
      <point x="353.46666666666664" y="153.73333333333332" type="line"/>
      <point x="928.8" y="153.73333333333332" type="line"/>
      <point x="928.8" y="1456.0" type="line"/>
      <point x="1112.2666666666667" y="1456.0" type="line"/>
      <point x="1112.2666666666667" y="0.0" type="line"/>
    </contour>
  </outline>
</glyph>
<glyph name="Be" format="2">
  <advance width="1099"/>
  <unicode hex="0411"/>
  <outline>
    <contour>
      <point x="170.0" y="0.0" type="line"/>
      <point x="170.0" y="1456.0" type="line"/>
      <point x="934.6666666666666" y="1456.0" type="line"/>
      <point x="934.6666666666666" y="1303.3333333333333" type="line"/>
      <point x="353.46666666666664" y="1303.3333333333333" type="line"/>
      <point x="353.46666666666664" y="874.5333333333333" type="line"/>
      <point x="579.4666666666667" y="874.5333333333333" type="line" smooth="yes"/>
      <point x="858.1866666666667" y="874.5333333333333"/>
      <point x="1009.2" y="730.5826666666667"/>
      <point x="1009.2" y="439.26666666666665" type="curve" smooth="yes"/>
      <point x="1009.2" y="148.04000000000002"/>
      <point x="858.1866666666667" y="0.0"/>
      <point x="579.4666666666667" y="0.0" type="curve" smooth="yes"/>
    </contour>
    <contour>
      <point x="353.46666666666664" y="720.8" type="line"/>
      <point x="353.46666666666664" y="152.66666666666666" type="line"/>
      <point x="579.4666666666667" y="152.66666666666666" type="line" smooth="yes"/>
      <point x="762.9573333333333" y="152.66666666666666"/>
      <point x="825.7333333333333" y="272.39200000000005"/>
      <point x="825.7333333333333" y="439.26666666666665" type="curve" smooth="yes"/>
      <point x="825.7333333333333" y="607.5706666666667"/>
      <point x="763.3199999999999" y="720.8"/>
      <point x="578.4" y="720.8" type="curve" smooth="yes"/>
    </contour>
  </outline>
</glyph>
<glyph name="De" format="2">
  <advance width="1253"/>
  <unicode hex="0414"/>
  <outline>
    <contour>
      <point x="1062.0" y="-290.0" type="line"/>
      <point x="1062.0" y="0.0" type="line"/>
      <point x="176.66666666666666" y="0.0" type="line"/>
      <point x="176.66666666666666" y="-290.0" type="line"/>
      <point x="4.666666666666667" y="-290.0" type="line"/>
      <point x="4.666666666666667" y="153.73333333333332" type="line"/>
      <point x="1234.0" y="153.73333333333332" type="line"/>
      <point x="1234.0" y="-290.0" type="line"/>
    </contour>
    <contour>
      <point x="242.8" y="1456.0" type="line"/>
      <point x="1075.3333333333333" y="1456.0" type="line"/>
      <point x="1075.3333333333333" y="0.0" type="line"/>
      <point x="891.8666666666667" y="0.0" type="line"/>
      <point x="891.8666666666667" y="1302.2666666666667" type="line"/>
      <point x="406.4666666666667" y="1302.2666666666667" type="line"/>
      <point x="369.73333333333335" y="534.2" type="line" smooth="yes"/>
      <point x="359.5493333333333" y="321.5866666666666"/>
      <point x="339.17199999999997" y="222.89600000000002"/>
      <point x="295.6666666666667" y="118.73333333333333" type="curve"/>
      <point x="108.66666666666666" y="118.73333333333333" type="line"/>
      <point x="169.41333333333336" y="221.10933333333332"/>
      <point x="191.19333333333336" y="365.8533333333333"/>
      <point x="201.46666666666667" y="569.5333333333333" type="curve" smooth="yes"/>
    </contour>
  </outline>
</glyph>
<glyph name="Ze" format="2">
  <advance width="1115"/>
  <unicode hex="0417"/>
  <outline>
    <contour>
      <point x="524.8666666666667" y="128.66666666666666" type="curve" smooth="yes"/>
      <point x="732.388" y="128.66666666666666"/>
      <point x="833.4666666666667" y="241.964"/>
      <point x="833.4666666666667" y="418.93333333333334" type="curve" smooth="yes"/>
      <point x="833.4666666666667" y="569.7280000000001"/>
      <point x="761.3626666666668" y="680.0"/>
      <point x="523.2" y="680.0" type="curve" smooth="yes"/>
      <point x="386.1333333333333" y="680.0" type="line"/>
      <point x="386.1333333333333" y="833.8666666666667" type="line"/>
      <point x="527.3333333333334" y="833.8666666666667" type="line" smooth="yes"/>
      <point x="709.7520000000001" y="833.8666666666667"/>
      <point x="795.4666666666667" y="927.7673048433023"/>
      <point x="795.4666666666667" y="1083.5333333333333" type="curve" smooth="yes"/>
      <point x="795.4666666666667" y="1231.5944708994716"/>
      <point x="718.8364705882775" y="1327.3333333333333"/>
      <point x="531.0" y="1327.3333333333333" type="curve" smooth="yes"/>
      <point x="325.0866666666666" y="1327.3333333333333"/>
      <point x="256.6" y="1152.58"/>
      <point x="256.6" y="1009.2" type="curve" smooth="yes"/>
      <point x="256.6" y="999.3333333333334" type="line"/>
      <point x="73.13333333333333" y="999.3333333333334" type="line"/>
      <point x="73.13333333333333" y="1009.3333333333334" type="line" smooth="yes"/>
      <point x="73.13333333333333" y="1298.684"/>
      <point x="244.19466666666665" y="1486.0"/>
      <point x="531.1333333333333" y="1486.0" type="curve" smooth="yes"/>
      <point x="810.7466666666667" y="1486.0"/>
      <point x="976.9333333333334" y="1345.7308493589755"/>
      <point x="976.9333333333334" y="1093.1333333333334" type="curve" smooth="yes"/>
      <point x="976.9333333333334" y="918.2174834437096"/>
      <point x="894.1796176582446" y="811.2373159081196"/>
      <point x="747.8666666666667" y="766.9333333333333" type="curve"/>
      <point x="747.8666666666667" y="762.9333333333333" type="line"/>
      <point x="925.2826666666666" y="720.0533333333333"/>
      <point x="1014.9333333333334" y="607.7387283236671"/>
      <point x="1014.9333333333334" y="417.8666666666667" type="curve" smooth="yes"/>
      <point x="1014.9333333333334" y="133.6644210526165"/>
      <point x="813.224" y="-30.0"/>
      <point x="527.0" y="-30.0" type="curve" smooth="yes"/>
      <point x="214.86933333333332" y="-30.0"/>
      <point x="47.733333333333334" y="160.5386666666667"/>
      <point x="47.733333333333334" y="445.3333333333333" type="curve" smooth="yes"/>
      <point x="47.733333333333334" y="455.3333333333333" type="line"/>
      <point x="231.2" y="455.3333333333333" type="line"/>
      <point x="231.2" y="445.3333333333333" type="line"/>
      <point x="239.776" y="291.76933333333335"/>
      <point x="322.52666666666664" y="128.66666666666666"/>
    </contour>
  </outline>
</glyph>
<glyph name="Icyr" format="2">
  <advance width="1301"/>
  <unicode hex="0418"/>
  <guideline x="739.0" y="930.0" angle="90.0" identifier="jpSOnFR6u4"/>
  <outline>
    <contour>
      <point x="1130.9333333333334" y="0.0" type="line"/>
      <point x="947.4666666666667" y="0.0" type="line"/>
      <point x="947.4666666666667" y="1031.0" type="line" smooth="yes"/>
      <point x="947.4666666666667" y="1076.9173333333333"/>
      <point x="947.4013333333334" y="1131.816"/>
      <point x="951.6" y="1177.7333333333333" type="curve"/>
      <point x="943.5333333333333" y="1177.7333333333333" type="line"/>
      <point x="930.4906666666666" y="1134.228"/>
      <point x="910.2093333333333" y="1091.1106666666667"/>
      <point x="890.4666666666667" y="1051.0" type="curve" smooth="yes"/>
      <point x="369.53333333333336" y="0.0" type="line"/>
      <point x="170.0" y="0.0" type="line"/>
      <point x="170.0" y="1456.0" type="line"/>
      <point x="353.46666666666664" y="1456.0" type="line"/>
      <point x="353.46666666666664" y="438.8666666666667" type="line" smooth="yes"/>
      <point x="353.46666666666664" y="395.808"/>
      <point x="354.5986666666667" y="325.61333333333334"/>
      <point x="350.4" y="278.26666666666665" type="curve"/>
      <point x="358.4" y="278.26666666666665" type="line"/>
      <point x="370.192" y="323.20133333333337"/>
      <point x="396.78266666666667" y="388.03599999999994"/>
      <point x="413.6666666666667" y="421.0" type="curve" smooth="yes"/>
      <point x="931.4" y="1456.0" type="line"/>
      <point x="1130.9333333333334" y="1456.0" type="line"/>
    </contour>
  </outline>
</glyph>
<glyph name="Ka" format="2">
  <advance width="1131"/>
  <unicode hex="041A"/>
  <guideline x="480.0" y="796.0" angle="90.0" identifier="LxfLwWU0sJ"/>
  <outline>
    <contour>
      <point x="914.5333333333333" y="0.0" type="line"/>
      <point x="420.93333333333334" y="740.0" type="line"/>
      <point x="576.6666666666666" y="823.0" type="line"/>
      <point x="1129.2" y="0.0" type="line"/>
    </contour>
    <contour>
      <point x="261.73333333333335" y="830.0" type="line"/>
      <point x="466.1333333333333" y="830.0" type="line"/>
      <point x="879.9333333333334" y="1456.0" type="line"/>
      <point x="1084.1333333333332" y="1456.0" type="line"/>
      <point x="559.0666666666667" y="672.0" type="line"/>
      <point x="261.73333333333335" y="672.0" type="line"/>
    </contour>
    <contour>
      <point x="170.0" y="0.0" type="line"/>
      <point x="170.0" y="1456.0" type="line"/>
      <point x="353.46666666666664" y="1456.0" type="line"/>
      <point x="353.46666666666664" y="0.0" type="line"/>
    </contour>
  </outline>
</glyph>
<glyph name="Ucyr" format="2">
  <advance width="1025"/>
  <unicode hex="0423"/>
  <outline>
    <contour>
      <point x="442.0" y="393.06666666666666" type="line"/>
      <point x="15.0" y="1456.0" type="line"/>
      <point x="208.46666666666667" y="1456.0" type="line"/>
      <point x="466.93333333333334" y="778.6666666666666" type="line" smooth="yes"/>
      <point x="504.72133333333335" y="678.9706666666666"/>
      <point x="515.7573333333333" y="645.736"/>
      <point x="524.3333333333334" y="596.0666666666667" type="curve"/>
      <point x="529.2666666666667" y="596.0666666666667" type="line"/>
      <point x="535.0733333333334" y="645.736"/>
      <point x="542.1293333333333" y="680.4893333333333"/>
      <point x="578.6666666666666" y="778.6666666666666" type="curve" smooth="yes"/>
      <point x="827.5333333333333" y="1456.0" type="line"/>
      <point x="1009.6666666666666" y="1456.0" type="line"/>
      <point x="614.1333333333333" y="394.0" type="line" smooth="yes"/>
      <point x="489.9603628482731" y="60.564296695566895"/>
      <point x="378.0074326241621" y="-19.333333333333336"/>
      <point x="246.6" y="-19.333333333333336" type="curve" smooth="yes"/>
      <point x="183.2626666666667" y="-19.333333333333336"/>
      <point x="156.77333333333334" y="-12.733333333333334"/>
      <point x="126.4" y="0.6666666666666661" type="curve"/>
      <point x="126.4" y="174.13333333333333" type="line"/>
      <point x="152.664" y="163.41333333333333"/>
      <point x="175.224" y="156.13333333333333"/>
      <point x="224.0" y="156.13333333333333" type="curve" smooth="yes"/>
      <point x="314.048" y="156.13333333333333"/>
      <point x="360.8853333333334" y="209.12933333333334"/>
      <point x="442.0" y="393.06666666666666" type="curve"/>
    </contour>
  </outline>
</glyph>
<glyph name="Ef" format="2">
  <advance width="1456"/>
  <unicode hex="0424"/>
  <outline>
    <contour>
      <point x="819.9333333333334" y="1476.0" type="line"/>
      <point x="819.9333333333334" y="1283.0" type="line"/>
      <point x="826.6" y="1283.0" type="line" smooth="yes"/>
      <point x="1164.1906666666666" y="1283.0"/>
      <point x="1361.6" y="1077.02"/>
      <point x="1361.6" y="738.0" type="curve" smooth="yes"/>
      <point x="1361.6" y="398.97999999999996"/>
      <point x="1164.1906666666666" y="194.0"/>
      <point x="826.6" y="194.0" type="curve" smooth="yes"/>
      <point x="819.9333333333334" y="194.0" type="line"/>
      <point x="819.9333333333334" y="-20.0" type="line"/>
      <point x="636.0" y="-20.0" type="line"/>
      <point x="636.0" y="194.0" type="line"/>
      <point x="629.3333333333334" y="194.0" type="line" smooth="yes"/>
      <point x="293.172" y="194.0"/>
      <point x="94.33333333333333" y="399.97999999999996"/>
      <point x="94.33333333333333" y="739.0" type="curve" smooth="yes"/>
      <point x="94.33333333333333" y="1078.02"/>
      <point x="293.172" y="1283.0"/>
      <point x="629.3333333333334" y="1283.0" type="curve" smooth="yes"/>
      <point x="636.0" y="1283.0" type="line"/>
      <point x="636.0" y="1476.0" type="line"/>
    </contour>
    <contour>
      <point x="826.6" y="1132.0" type="curve" smooth="yes"/>
      <point x="819.9333333333334" y="1132.0" type="line"/>
      <point x="819.9333333333334" y="345.0" type="line"/>
      <point x="826.6" y="345.0" type="line" smooth="yes"/>
      <point x="1070.0333333333333" y="345.0"/>
      <point x="1180.8666666666668" y="480.05999999999995"/>
      <point x="1180.8666666666668" y="736.0" type="curve" smooth="yes"/>
      <point x="1180.8666666666668" y="989.26"/>
      <point x="1070.0333333333333" y="1132.0"/>
    </contour>
    <contour>
      <point x="629.3333333333334" y="1132.0" type="line" smooth="yes"/>
      <point x="385.9" y="1132.0"/>
      <point x="275.06666666666666" y="996.94"/>
      <point x="275.06666666666666" y="741.0" type="curve" smooth="yes"/>
      <point x="275.06666666666666" y="487.74"/>
      <point x="385.9" y="345.0"/>
      <point x="629.3333333333334" y="345.0" type="curve" smooth="yes"/>
      <point x="636.0" y="345.0" type="line"/>
      <point x="636.0" y="1132.0" type="line"/>
    </contour>
  </outline>
</glyph>
<glyph name="Tse" format="2">
  <advance width="1290"/>
  <unicode hex="0426"/>
  <outline>
    <contour>
      <point x="928.8" y="153.73333333333332" type="line"/>
      <point x="928.8" y="1456.0" type="line"/>
      <point x="1112.2666666666667" y="1456.0" type="line"/>
      <point x="1112.2666666666667" y="153.73333333333332" type="line"/>
      <point x="1270.9333333333334" y="153.73333333333332" type="line"/>
      <point x="1270.9333333333334" y="-290.0" type="line"/>
      <point x="1098.9333333333334" y="-290.0" type="line"/>
      <point x="1098.9333333333334" y="0.0" type="line"/>
      <point x="170.0" y="0.0" type="line"/>
      <point x="170.0" y="1456.0" type="line"/>
      <point x="353.46666666666664" y="1456.0" type="line"/>
      <point x="353.46666666666664" y="153.73333333333332" type="line"/>
    </contour>
  </outline>
</glyph>
<glyph name="Ecyr" format="2">
  <advance width="1146"/>
  <unicode hex="042D"/>
  <guideline x="1147.0" y="753.0" angle="90.0" identifier="Ovo68woMtl"/>
  <outline>
    <contour>
      <point x="936.8666666666667" y="815.0666666666667" type="line"/>
      <point x="936.8666666666667" y="661.3333333333334" type="line"/>
      <point x="359.2" y="661.3333333333334" type="line"/>
      <point x="359.2" y="815.0666666666667" type="line"/>
    </contour>
    <contour>
      <point x="845.2" y="639.8666666666667" type="curve" smooth="yes"/>
      <point x="845.2" y="816.2" type="line" smooth="yes"/>
      <point x="845.2" y="1161.2946666666667"/>
      <point x="739.4693333333335" y="1327.3333333333333"/>
      <point x="524.5333333333333" y="1327.3333333333333" type="curve" smooth="yes"/>
      <point x="320.0493333333333" y="1327.3333333333333"/>
      <point x="252.53333333333333" y="1172.4279999999999"/>
      <point x="252.53333333333333" y="1010.4666666666667" type="curve" smooth="yes"/>
      <point x="252.53333333333333" y="1000.6666666666666" type="line"/>
      <point x="69.06666666666666" y="1000.6666666666666" type="line"/>
      <point x="69.06666666666666" y="1010.4666666666667" type="line" smooth="yes"/>
      <point x="69.06666666666666" y="1298.8346666666666"/>
      <point x="237.8626666666667" y="1486.0"/>
      <point x="524.5333333333333" y="1486.0" type="curve" smooth="yes"/>
      <point x="829.0706666666666" y="1486.0"/>
      <point x="1029.6" y="1264.112"/>
      <point x="1029.6" y="772.6" type="curve" smooth="yes"/>
      <point x="1029.6" y="680.3333333333334" type="line" smooth="yes"/>
      <point x="1029.6" y="200.79199999999992"/>
      <point x="829.3679999999999" y="-30.0"/>
      <point x="514.2" y="-30.0" type="curve" smooth="yes"/>
      <point x="220.11466666666666" y="-30.0"/>
      <point x="47.733333333333334" y="155.77549387755465"/>
      <point x="47.733333333333334" y="445.0" type="curve" smooth="yes"/>
      <point x="47.733333333333334" y="455.3333333333333" type="line"/>
      <point x="231.2" y="455.3333333333333" type="line"/>
      <point x="231.2" y="445.0" type="line"/>
      <point x="239.776" y="288.3093333333333"/>
      <point x="325.79066666666665" y="128.66666666666666"/>
      <point x="515.2666666666667" y="128.66666666666666" type="curve" smooth="yes"/>
      <point x="713.7653333333333" y="128.66666666666666"/>
      <point x="845.2" y="308.52933333333334"/>
    </contour>
  </outline>
</glyph>
<glyph name="Yu" format="2">
  <advance width="1719"/>
  <unicode hex="042E"/>
  <guideline x="732.0" y="785.0" angle="90.0" identifier="6nH5tb4DEh"/>
  <outline>
    <contour>
      <point x="170.0" y="0.0" type="line"/>
      <point x="170.0" y="1456.0" type="line"/>
      <point x="353.46666666666664" y="1456.0" type="line"/>
      <point x="353.46666666666664" y="827.8666666666667" type="line"/>
      <point x="685.0" y="827.8666666666667" type="line"/>
      <point x="685.0" y="674.1333333333333" type="line"/>
      <point x="353.46666666666664" y="674.1333333333333" type="line"/>
      <point x="353.46666666666664" y="0.0" type="line"/>
    </contour>
    <contour>
      <point x="592.3333333333334" y="682.0" type="curve" smooth="yes"/>
      <point x="592.3333333333334" y="774.0" type="line" smooth="yes"/>
      <point x="592.3333333333334" y="1252.8266666666666"/>
      <point x="795.472" y="1486.0"/>
      <point x="1098.1333333333332" y="1486.0" type="curve" smooth="yes"/>
      <point x="1400.7946666666667" y="1486.0"/>
      <point x="1602.8666666666668" y="1252.8266666666666"/>
      <point x="1602.8666666666668" y="774.0" type="curve" smooth="yes"/>
      <point x="1602.8666666666668" y="682.0" type="line" smooth="yes"/>
      <point x="1602.8666666666668" y="203.17333333333335"/>
      <point x="1400.7946666666667" y="-30.0"/>
      <point x="1098.1333333333332" y="-30.0" type="curve" smooth="yes"/>
      <point x="795.472" y="-30.0"/>
      <point x="592.3333333333334" y="203.17333333333335"/>
    </contour>
    <contour>
      <point x="776.7333333333333" y="650.0" type="line" smooth="yes"/>
      <point x="776.7333333333333" y="304.10133333333334"/>
      <point x="898.384" y="128.66666666666666"/>
      <point x="1098.1333333333332" y="128.66666666666666" type="curve" smooth="yes"/>
      <point x="1297.972" y="128.66666666666666"/>
      <point x="1417.4" y="304.10133333333334"/>
      <point x="1417.4" y="650.0" type="curve" smooth="yes"/>
      <point x="1417.4" y="807.0666666666666" type="line" smooth="yes"/>
      <point x="1417.4" y="1152.9653333333335"/>
      <point x="1297.972" y="1327.3333333333333"/>
      <point x="1098.1333333333332" y="1327.3333333333333" type="curve" smooth="yes"/>
      <point x="898.384" y="1327.3333333333333"/>
      <point x="776.7333333333333" y="1152.9653333333335"/>
      <point x="776.7333333333333" y="807.0666666666666" type="curve" smooth="yes"/>
    </contour>
  </outline>
</glyph>
<glyph name="Ya" format="2">
  <advance width="1094"/>
  <unicode hex="042F"/>
  <outline>
    <contour>
      <point x="924.2666666666667" y="0.0" type="line"/>
      <point x="924.2666666666667" y="1456.0" type="line"/>
      <point x="538.8" y="1456.0" type="line" smooth="yes"/>
      <point x="261.8375813953621" y="1456.0"/>
      <point x="107.33333333333333" y="1316.184"/>
      <point x="107.33333333333333" y="1029.0666666666666" type="curve" smooth="yes"/>
      <point x="107.33333333333333" y="778.2048685262776"/>
      <point x="224.4233168082257" y="635.6159019305695"/>
      <point x="438.0" y="605.0666666666667" type="curve"/>
      <point x="462.73333333333335" y="596.1333333333333" type="line"/>
      <point x="740.8" y="596.1333333333333" type="line"/>
      <point x="740.8" y="0.0" type="line"/>
    </contour>
    <contour>
      <point x="740.8" y="747.8666666666667" type="line"/>
      <point x="533.4666666666667" y="747.8666666666667" type="line" smooth="yes"/>
      <point x="352.47733333333326" y="747.8666666666667"/>
      <point x="290.8" y="865.0506666666666"/>
      <point x="290.8" y="1029.0666666666666" type="curve" smooth="yes"/>
      <point x="290.8" y="1194.512"/>
      <point x="353.83061246616535" y="1305.3333333333333"/>
      <point x="538.8" y="1305.3333333333333" type="curve" smooth="yes"/>
      <point x="740.8" y="1305.3333333333333" type="line"/>
    </contour>
    <contour>
      <point x="241.6" y="0.0" type="line"/>
      <point x="548.4666666666667" y="672.0" type="line"/>
      <point x="354.93333333333334" y="672.0" type="line"/>
      <point x="40.0" y="0.0" type="line"/>
    </contour>
  </outline>
</glyph>
<glyph name="be" format="2">
  <advance width="1014"/>
  <unicode hex="0431"/>
  <outline>
    <contour>
      <point x="276.46666666666664" y="564.6666666666666" type="curve" smooth="yes"/>
      <point x="276.46666666666664" y="468.6666666666667" type="line" smooth="yes"/>
      <point x="276.46666666666664" y="253.81999999999996"/>
      <point x="355.192" y="117.73333333333333"/>
      <point x="513.1333333333333" y="117.73333333333333" type="curve" smooth="yes"/>
      <point x="671.0746666666666" y="117.73333333333333"/>
      <point x="750.8666666666667" y="253.81999999999996"/>
      <point x="750.8666666666667" y="468.6666666666667" type="curve" smooth="yes"/>
      <point x="750.8666666666667" y="564.6666666666666" type="line" smooth="yes"/>
      <point x="750.8666666666667" y="786.6600000000001"/>
      <point x="679.6506666666667" y="915.6"/>
      <point x="513.1333333333333" y="915.6" type="curve" smooth="yes"/>
      <point x="346.616" y="915.6"/>
      <point x="276.46666666666664" y="779.5133333333333"/>
    </contour>
    <contour>
      <point x="552.7333333333333" y="1063.3333333333333" type="curve" smooth="yes"/>
      <point x="775.6199999999999" y="1063.3333333333333"/>
      <point x="932.3333333333334" y="861.5026666666666"/>
      <point x="932.3333333333334" y="532.6666666666666" type="curve" smooth="yes"/>
      <point x="932.3333333333334" y="500.6666666666667" type="line" smooth="yes"/>
      <point x="932.3333333333334" y="159.50266666666664"/>
      <point x="768.8053333333335" y="-30.0"/>
      <point x="513.1333333333333" y="-30.0" type="curve" smooth="yes"/>
      <point x="243.88266666666664" y="-30.0"/>
      <point x="95.0" y="157.74933333333325"/>
      <point x="95.0" y="543.1333333333333" type="curve" smooth="yes"/>
      <point x="95.0" y="631.0" type="line" smooth="yes"/>
      <point x="95.0" y="1096.9626666666668"/>
      <point x="200.64666666666665" y="1378.9546666666665"/>
      <point x="548.6" y="1441.6666666666667" type="curve" smooth="yes"/>
      <point x="770.5135765301084" y="1482.2042630865162"/>
      <point x="753.7661664689921" y="1502.4974990116273"/>
      <point x="760.4666666666667" y="1536.0" type="curve"/>
      <point x="908.4666666666667" y="1536.0" type="line"/>
      <point x="896.5853333333333" y="1391.012"/>
      <point x="835.0653333333335" y="1327.4599999999998"/>
      <point x="594.1333333333333" y="1288.6" type="curve" smooth="yes"/>
      <point x="308.7258750173088" y="1241.9152937071217"/>
      <point x="237.9587727919645" y="1077.2772675812378"/>
      <point x="218.86666666666667" y="821.2666666666667" type="curve"/>
      <point x="225.6" y="821.2666666666667" type="line"/>
      <point x="272.41066666666666" y="972.7760000000001"/>
      <point x="372.012" y="1063.3333333333333"/>
    </contour>
  </outline>
</glyph>
<glyph name="ve" format="2">
  <advance width="1001"/>
  <unicode hex="0432"/>
  <outline>
    <contour>
      <point x="148.0" y="0.0" type="line"/>
      <point x="148.0" y="1052.0" type="line"/>
      <point x="502.8" y="1052.0" type="line" smooth="yes"/>
      <point x="731.5826666666667" y="1052.0"/>
      <point x="870.2666666666667" y="959.94"/>
      <point x="870.2666666666667" y="771.0" type="curve" smooth="yes"/>
      <point x="870.2666666666667" y="651.74"/>
      <point x="797.7673202500173" y="568.0296676189198"/>
      <point x="682.8" y="544.0" type="curve"/>
      <point x="682.8" y="541.0" type="line"/>
      <point x="823.1426666666666" y="520.9893333333334"/>
      <point x="907.2666666666667" y="434.64"/>
      <point x="907.2666666666667" y="306.0" type="curve" smooth="yes"/>
      <point x="907.2666666666667" y="111.69999999999999"/>
      <point x="758.9026666666666" y="0.0"/>
      <point x="532.8" y="0.0" type="curve" smooth="yes"/>
    </contour>
    <contour>
      <point x="325.46666666666664" y="145.0" type="line"/>
      <point x="532.8" y="145.0" type="line" smooth="yes"/>
      <point x="668.14" y="145.0"/>
      <point x="728.8" y="209.51999999999998"/>
      <point x="728.8" y="306.0" type="curve" smooth="yes"/>
      <point x="728.8" y="401.14"/>
      <point x="669.48" y="463.0"/>
      <point x="532.8" y="463.0" type="curve" smooth="yes"/>
      <point x="325.46666666666664" y="463.0" type="line"/>
    </contour>
    <contour>
      <point x="325.46666666666664" y="607.0" type="line"/>
      <point x="502.8" y="607.0" type="line" smooth="yes"/>
      <point x="636.8" y="607.0"/>
      <point x="690.8" y="665.86"/>
      <point x="690.8" y="761.0" type="curve" smooth="yes"/>
      <point x="690.8" y="854.8"/>
      <point x="636.8" y="907.0"/>
      <point x="502.8" y="907.0" type="curve" smooth="yes"/>
      <point x="325.46666666666664" y="907.0" type="line"/>
    </contour>
  </outline>
</glyph>
<glyph name="de" format="2">
  <advance width="1005"/>
  <unicode hex="0434"/>
  <outline>
    <contour>
      <point x="811.8" y="-270.0" type="line"/>
      <point x="811.8" y="0.0" type="line"/>
      <point x="178.0" y="0.0" type="line"/>
      <point x="178.0" y="-270.0" type="line"/>
      <point x="10.0" y="-270.0" type="line"/>
      <point x="10.0" y="145.0" type="line"/>
      <point x="979.8" y="145.0" type="line"/>
      <point x="979.8" y="-270.0" type="line"/>
    </contour>
    <contour>
      <point x="349.93333333333334" y="907.0" type="line"/>
      <point x="337.2" y="465.2" type="line" smooth="yes"/>
      <point x="330.58933333333334" y="238.73999999999998"/>
      <point x="308.11333333333334" y="162.332"/>
      <point x="271.93333333333334" y="82.2" type="curve"/>
      <point x="89.73333333333333" y="82.2" type="line"/>
      <point x="141.1893333333333" y="162.6893333333333"/>
      <point x="167.5306666666667" y="253.99466666666663"/>
      <point x="172.53333333333333" y="451.6" type="curve" smooth="yes"/>
      <point x="190.26666666666665" y="1052.0" type="line"/>
      <point x="851.4666666666667" y="1052.0" type="line"/>
      <point x="851.4666666666667" y="0.0" type="line"/>
      <point x="674.0" y="0.0" type="line"/>
      <point x="674.0" y="907.0" type="line"/>
    </contour>
  </outline>
</glyph>
<glyph name="ka" format="2">
  <advance width="887"/>
  <unicode hex="043A"/>
  <guideline x="241.0" y="553.0" angle="90.0" identifier="lmgRx0QBdK"/>
  <outline>
    <contour>
      <point x="704.1333333333333" y="0.0" type="line"/>
      <point x="391.8" y="477.0" type="line"/>
      <point x="503.6666666666667" y="603.0" type="line"/>
      <point x="902.2666666666667" y="0.0" type="line"/>
    </contour>
    <contour>
      <point x="236.73333333333332" y="610.0" type="line"/>
      <point x="400.8" y="610.0" type="line"/>
      <point x="679.1333333333333" y="1052.0" type="line"/>
      <point x="865.1333333333333" y="1052.0" type="line"/>
      <point x="488.8" y="465.0" type="line"/>
      <point x="236.73333333333332" y="465.0" type="line"/>
    </contour>
    <contour>
      <point x="325.46666666666664" y="1052.0" type="line"/>
      <point x="325.46666666666664" y="0.0" type="line"/>
      <point x="148.0" y="0.0" type="line"/>
      <point x="148.0" y="1052.0" type="line"/>
    </contour>
  </outline>
</glyph>
<glyph name="en" format="2">
  <advance width="1013"/>
  <unicode hex="043D"/>
  <outline>
    <contour>
      <point x="148.0" y="1052.0" type="line"/>
      <point x="325.46666666666664" y="1052.0" type="line"/>
      <point x="325.46666666666664" y="610.0" type="line"/>
      <point x="687.7333333333333" y="610.0" type="line"/>
      <point x="687.7333333333333" y="1052.0" type="line"/>
      <point x="865.2" y="1052.0" type="line"/>
      <point x="865.2" y="0.0" type="line"/>
      <point x="687.7333333333333" y="0.0" type="line"/>
      <point x="687.7333333333333" y="465.0" type="line"/>
      <point x="325.46666666666664" y="465.0" type="line"/>
      <point x="325.46666666666664" y="0.0" type="line"/>
      <point x="148.0" y="0.0" type="line"/>
    </contour>
  </outline>
</glyph>
<glyph name="pe" format="2">
  <advance width="1009"/>
  <unicode hex="043F"/>
  <outline>
    <contour>
      <point x="148.0" y="1052.0" type="line"/>
      <point x="860.5333333333333" y="1052.0" type="line"/>
      <point x="860.5333333333333" y="0.0" type="line"/>
      <point x="683.0666666666666" y="0.0" type="line"/>
      <point x="683.0666666666666" y="907.0" type="line"/>
      <point x="325.46666666666664" y="907.0" type="line"/>
      <point x="325.46666666666664" y="0.0" type="line"/>
      <point x="148.0" y="0.0" type="line"/>
    </contour>
  </outline>
</glyph>
<glyph name="te" format="2">
  <advance width="842"/>
  <unicode hex="0442"/>
  <outline>
    <contour>
      <point x="51.33333333333333" y="907.0" type="line"/>
      <point x="51.33333333333333" y="1052.0" type="line"/>
      <point x="790.6666666666666" y="1052.0" type="line"/>
      <point x="790.6666666666666" y="907.0" type="line"/>
      <point x="509.73333333333335" y="907.0" type="line"/>
      <point x="509.73333333333335" y="0.0" type="line"/>
      <point x="332.26666666666665" y="0.0" type="line"/>
      <point x="332.26666666666665" y="907.0" type="line"/>
    </contour>
  </outline>
</glyph>
<glyph name="shcha" format="2">
  <advance width="1513"/>
  <unicode hex="0449"/>
  <outline>
    <contour>
      <point x="148.0" y="0.0" type="line"/>
      <point x="148.0" y="1052.0" type="line"/>
      <point x="325.46666666666664" y="1052.0" type="line"/>
      <point x="325.46666666666664" y="145.0" type="line"/>
      <point x="665.0666666666666" y="145.0" type="line"/>
      <point x="665.0666666666666" y="1052.0" type="line"/>
      <point x="842.5333333333333" y="1052.0" type="line"/>
      <point x="842.5333333333333" y="145.0" type="line"/>
      <point x="1182.1333333333332" y="145.0" type="line"/>
      <point x="1182.1333333333332" y="1052.0" type="line"/>
      <point x="1359.6" y="1052.0" type="line"/>
      <point x="1359.6" y="145.0" type="line"/>
      <point x="1487.9333333333334" y="145.0" type="line"/>
      <point x="1487.9333333333334" y="-270.0" type="line"/>
      <point x="1319.9333333333334" y="-270.0" type="line"/>
      <point x="1319.9333333333334" y="0.0" type="line"/>
    </contour>
  </outline>
</glyph>
<glyph name="hard" format="2">
  <advance width="1064"/>
  <unicode hex="044A"/>
  <outline>
    <contour>
      <point x="30.0" y="907.0" type="line"/>
      <point x="30.0" y="1052.0" type="line"/>
      <point x="433.4666666666667" y="1052.0" type="line"/>
      <point x="433.4666666666667" y="681.3333333333334" type="line"/>
      <point x="590.1333333333333" y="681.3333333333334" type="line" smooth="yes"/>
      <point x="849.7360000000001" y="681.3333333333334"/>
      <point x="993.6" y="551.528"/>
      <point x="993.6" y="342.6666666666667" type="curve" smooth="yes"/>
      <point x="993.6" y="133.80533333333332"/>
      <point x="849.7360000000001" y="0.0"/>
      <point x="590.1333333333333" y="0.0" type="curve" smooth="yes"/>
      <point x="256.0" y="0.0" type="line"/>
      <point x="256.0" y="907.0" type="line"/>
    </contour>
    <contour>
      <point x="590.1333333333333" y="536.3333333333334" type="curve" smooth="yes"/>
      <point x="433.4666666666667" y="536.3333333333334" type="line"/>
      <point x="433.4666666666667" y="145.0" type="line"/>
      <point x="590.1333333333333" y="145.0" type="line" smooth="yes"/>
      <point x="757.6333333333333" y="145.0"/>
      <point x="816.1333333333333" y="227.60533333333333"/>
      <point x="816.1333333333333" y="342.6666666666667" type="curve" smooth="yes"/>
      <point x="816.1333333333333" y="456.38800000000003"/>
      <point x="757.6333333333333" y="536.3333333333334"/>
    </contour>
  </outline>
</glyph>
<glyph name="soft" format="2">
  <advance width="956"/>
  <unicode hex="044C"/>
  <outline>
    <contour>
      <point x="325.46666666666664" y="1052.0" type="line"/>
      <point x="325.46666666666664" y="681.3333333333334" type="line"/>
      <point x="482.1333333333333" y="681.3333333333334" type="line" smooth="yes"/>
      <point x="741.7360000000001" y="681.3333333333334"/>
      <point x="885.6" y="551.528"/>
      <point x="885.6" y="342.6666666666667" type="curve" smooth="yes"/>
      <point x="885.6" y="133.80533333333332"/>
      <point x="741.7360000000001" y="0.0"/>
      <point x="482.1333333333333" y="0.0" type="curve" smooth="yes"/>
      <point x="148.0" y="0.0" type="line"/>
      <point x="148.0" y="1052.0" type="line"/>
    </contour>
    <contour>
      <point x="482.1333333333333" y="536.3333333333334" type="curve" smooth="yes"/>
      <point x="325.46666666666664" y="536.3333333333334" type="line"/>
      <point x="325.46666666666664" y="145.0" type="line"/>
      <point x="482.1333333333333" y="145.0" type="line" smooth="yes"/>
      <point x="649.6333333333333" y="145.0"/>
      <point x="708.1333333333333" y="227.60533333333333"/>
      <point x="708.1333333333333" y="342.6666666666667" type="curve" smooth="yes"/>
      <point x="708.1333333333333" y="456.38800000000003"/>
      <point x="649.6333333333333" y="536.3333333333334"/>
    </contour>
  </outline>
</glyph>
<glyph name="yu" format="2">
  <advance width="1393"/>
  <unicode hex="044E"/>
  <guideline x="571.4" y="661.9333333333334" angle="90.0" identifier="yUVFXGYgv5"/>
  <outline>
    <contour>
      <point x="148.0" y="1052.0" type="line"/>
      <point x="325.46666666666664" y="1052.0" type="line"/>
      <point x="325.46666666666664" y="610.0" type="line"/>
      <point x="571.3333333333334" y="610.0" type="line"/>
      <point x="571.3333333333334" y="465.0" type="line"/>
      <point x="325.46666666666664" y="465.0" type="line"/>
      <point x="325.46666666666664" y="0.0" type="line"/>
      <point x="148.0" y="0.0" type="line"/>
    </contour>
    <contour>
      <point x="480.6666666666667" y="510.0" type="curve" smooth="yes"/>
      <point x="480.6666666666667" y="542.0" type="line" smooth="yes"/>
      <point x="480.6666666666667" y="889.5066666666667"/>
      <point x="640.9626666666667" y="1082.0"/>
      <point x="894.1333333333333" y="1082.0" type="curve" smooth="yes"/>
      <point x="1147.3039999999999" y="1082.0"/>
      <point x="1308.6666666666667" y="889.5066666666667"/>
      <point x="1308.6666666666667" y="542.0" type="curve" smooth="yes"/>
      <point x="1308.6666666666667" y="510.0" type="line" smooth="yes"/>
      <point x="1308.6666666666667" y="162.49333333333328"/>
      <point x="1147.3039999999999" y="-30.0"/>
      <point x="894.1333333333333" y="-30.0" type="curve" smooth="yes"/>
      <point x="640.9626666666667" y="-30.0"/>
      <point x="480.6666666666667" y="162.49333333333328"/>
    </contour>
    <contour>
      <point x="662.1333333333333" y="574.0" type="curve" smooth="yes"/>
      <point x="662.1333333333333" y="478.0" type="line" smooth="yes"/>
      <point x="662.1333333333333" y="256.7213333333333"/>
      <point x="738.6933333333334" y="117.73333333333333"/>
      <point x="894.1333333333333" y="117.73333333333333" type="curve" smooth="yes"/>
      <point x="1049.5733333333333" y="117.73333333333333"/>
      <point x="1127.2" y="256.7213333333333"/>
      <point x="1127.2" y="478.0" type="curve" smooth="yes"/>
      <point x="1127.2" y="574.0" type="line" smooth="yes"/>
      <point x="1127.2" y="802.4253333333334"/>
      <point x="1056.72" y="934.2666666666667"/>
      <point x="894.1333333333333" y="934.2666666666667" type="curve" smooth="yes"/>
      <point x="731.5466666666666" y="934.2666666666667"/>
      <point x="662.1333333333333" y="795.2786666666667"/>
    </contour>
  </outline>
</glyph>
<glyph name="dzhe" format="2">
  <advance width="1009"/>
  <unicode hex="045F"/>
  <outline>
    <contour>
      <point x="148.0" y="0.0" type="line"/>
      <point x="148.0" y="1052.0" type="line"/>
      <point x="325.46666666666664" y="1052.0" type="line"/>
      <point x="325.46666666666664" y="145.0" type="line"/>
      <point x="683.0666666666666" y="145.0" type="line"/>
      <point x="683.0666666666666" y="1052.0" type="line"/>
      <point x="860.5333333333333" y="1052.0" type="line"/>
      <point x="860.5333333333333" y="0.0" type="line"/>
      <point x="588.2666666666667" y="0.0" type="line"/>
      <point x="588.2666666666667" y="-270.0" type="line"/>
      <point x="420.26666666666665" y="-270.0" type="line"/>
      <point x="420.26666666666665" y="0.0" type="line"/>
    </contour>
  </outline>
</glyph>
<glyph name="Gheup" format="2">
  <advance width="976"/>
  <unicode hex="0490"/>
  <outline>
    <contour>
      <point x="170.0" y="0.0" type="line"/>
      <point x="170.0" y="1456.0" type="line"/>
      <point x="762.6666666666666" y="1456.0" type="line"/>
      <point x="762.6666666666666" y="1747.0666666666666" type="line"/>
      <point x="934.6666666666666" y="1747.0666666666666" type="line"/>
      <point x="934.6666666666666" y="1303.3333333333333" type="line"/>
      <point x="353.46666666666664" y="1303.3333333333333" type="line"/>
      <point x="353.46666666666664" y="0.0" type="line"/>
    </contour>
  </outline>
</glyph>
<glyph name="gheup" format="2">
  <advance width="742"/>
  <unicode hex="0491"/>
  <anchor x="244.0" y="500.0" name="aboveLC"/>
  <outline>
    <contour>
      <point x="148.0" y="1052.0" type="line"/>
      <point x="523.0666666666666" y="1052.0" type="line"/>
      <point x="523.0666666666666" y="1322.0" type="line"/>
      <point x="691.0666666666666" y="1322.0" type="line"/>
      <point x="691.0666666666666" y="907.0" type="line"/>
      <point x="325.46666666666664" y="907.0" type="line"/>
      <point x="325.46666666666664" y="0.0" type="line"/>
      <point x="148.0" y="0.0" type="line"/>
    </contour>
  </outline>
</glyph>
<glyph name="Zhedescender" format="2">
  <advance width="1648"/>
  <unicode hex="0496"/>
  <outline>
    <contour>
      <point x="731.0666666666667" y="0.0" type="line"/>
      <point x="731.0666666666667" y="1456.0" type="line"/>
      <point x="914.5333333333333" y="1456.0" type="line"/>
      <point x="914.5333333333333" y="0.0" type="line"/>
    </contour>
    <contour>
      <point x="1432.1333333333332" y="0.0" type="line"/>
      <point x="978.5333333333333" y="740.0" type="line"/>
      <point x="1140.6666666666667" y="823.0" type="line"/>
      <point x="1646.8" y="0.0" type="line"/>
    </contour>
    <contour>
      <point x="213.46666666666667" y="0.0" type="line"/>
      <point x="1.3333333333333321" y="0.0" type="line"/>
      <point x="507.4666666666667" y="823.0" type="line"/>
      <point x="667.0666666666666" y="740.0" type="line"/>
    </contour>
    <contour>
      <point x="823.8666666666667" y="830.0" type="line"/>
      <point x="823.8666666666667" y="672.0" type="line"/>
      <point x="521.6" y="672.0" type="line"/>
      <point x="47.2" y="1456.0" type="line"/>
      <point x="248.06666666666666" y="1456.0" type="line"/>
      <point x="621.8666666666667" y="830.0" type="line"/>
    </contour>
    <contour>
      <point x="823.8666666666667" y="830.0" type="line"/>
      <point x="1023.7333333333333" y="830.0" type="line"/>
      <point x="1397.5333333333333" y="1456.0" type="line"/>
      <point x="1598.5333333333333" y="1456.0" type="line"/>
      <point x="1124.1333333333334" y="672.0" type="line"/>
      <point x="823.8666666666667" y="672.0" type="line"/>
    </contour>
    <contour>
      <point x="1432.1333333333332" y="0.0" type="line"/>
      <point x="1432.1333333333332" y="153.73333333333332" type="line"/>
      <point x="1692.4" y="153.73333333333332" type="line"/>
      <point x="1692.4" y="-290.0" type="line"/>
      <point x="1520.4" y="-290.0" type="line"/>
      <point x="1520.4" y="0.0" type="line"/>
    </contour>
  </outline>
</glyph>
<glyph name="zhedescender" format="2">
  <advance width="1243"/>
  <unicode hex="0497"/>
  <outline>
    <contour>
      <point x="1055.3333333333333" y="0.0" type="line"/>
      <point x="772.4" y="477.8" type="line"/>
      <point x="885.2666666666667" y="603.8" type="line"/>
      <point x="1246.1333333333332" y="0.0" type="line"/>
    </contour>
    <contour>
      <point x="702.6666666666666" y="1052.0" type="line"/>
      <point x="702.6666666666666" y="0.0" type="line"/>
      <point x="525.2" y="0.0" type="line"/>
      <point x="525.2" y="1052.0" type="line"/>
    </contour>
    <contour>
      <point x="613.9333333333334" y="610.0" type="line"/>
      <point x="782.0" y="610.0" type="line"/>
      <point x="1030.3333333333333" y="1052.0" type="line"/>
      <point x="1209.1333333333332" y="1052.0" type="line"/>
      <point x="871.1333333333333" y="465.0" type="line"/>
      <point x="613.9333333333334" y="465.0" type="line"/>
    </contour>
    <contour>
      <point x="1055.3333333333333" y="145.0" type="line"/>
      <point x="1266.8666666666668" y="145.0" type="line"/>
      <point x="1266.8666666666668" y="-270.0" type="line"/>
      <point x="1098.8666666666668" y="-270.0" type="line"/>
      <point x="1098.8666666666668" y="0.0" type="line"/>
      <point x="1055.3333333333333" y="0.0" type="line"/>
    </contour>
    <contour>
      <point x="172.53333333333333" y="0.0" type="line"/>
      <point x="-14.333333333333334" y="0.0" type="line"/>
      <point x="346.5333333333333" y="603.8" type="line"/>
      <point x="455.4666666666667" y="477.8" type="line"/>
    </contour>
    <contour>
      <point x="613.9333333333334" y="610.0" type="line"/>
      <point x="613.9333333333334" y="465.0" type="line"/>
      <point x="356.8666666666667" y="465.0" type="line"/>
      <point x="18.866666666666667" y="1052.0" type="line"/>
      <point x="197.53333333333333" y="1052.0" type="line"/>
      <point x="445.8666666666667" y="610.0" type="line"/>
    </contour>
  </outline>
</glyph>
<glyph name="kaverticalstrokecyr" format="2">
  <advance width="1135"/>
  <unicode hex="049D"/>
  <guideline x="547.0" y="651.0" angle="90.0" identifier="ATaXbxe4rK"/>
  <outline>
    <contour>
      <point x="627.9333333333333" y="852.0" type="line"/>
      <point x="627.9333333333333" y="200.0" type="line"/>
      <point x="466.1333333333333" y="200.0" type="line"/>
      <point x="466.1333333333333" y="852.0" type="line"/>
    </contour>
    <contour>
      <point x="325.46666666666664" y="1052.0" type="line"/>
      <point x="325.46666666666664" y="0.0" type="line"/>
      <point x="148.0" y="0.0" type="line"/>
      <point x="148.0" y="1052.0" type="line"/>
    </contour>
    <contour>
      <point x="958.8666666666667" y="0.0" type="line"/>
      <point x="675.9333333333333" y="477.8" type="line"/>
      <point x="788.8" y="603.8" type="line"/>
      <point x="1149.6666666666667" y="0.0" type="line"/>
    </contour>
    <contour>
      <point x="547.0" y="610.0" type="line"/>
      <point x="685.5333333333333" y="610.0" type="line"/>
      <point x="933.8666666666667" y="1052.0" type="line"/>
      <point x="1112.6666666666667" y="1052.0" type="line"/>
      <point x="774.6666666666666" y="465.0" type="line"/>
      <point x="547.0" y="465.0" type="line"/>
    </contour>
  </outline>
</glyph>
<glyph name="kabashkircyr" format="2">
  <advance width="1036"/>
  <unicode hex="04A1"/>
  <outline>
    <contour>
      <point x="852.6666666666666" y="0.0" type="line"/>
      <point x="540.3333333333334" y="477.0" type="line"/>
      <point x="652.2" y="603.0" type="line"/>
      <point x="1050.8" y="0.0" type="line"/>
    </contour>
    <contour>
      <point x="385.1333333333333" y="610.0" type="line"/>
      <point x="549.3333333333334" y="610.0" type="line"/>
      <point x="827.6666666666666" y="1052.0" type="line"/>
      <point x="1013.6666666666666" y="1052.0" type="line"/>
      <point x="637.3333333333334" y="465.0" type="line"/>
      <point x="385.1333333333333" y="465.0" type="line"/>
    </contour>
    <contour>
      <point x="474.0" y="1052.0" type="line"/>
      <point x="474.0" y="0.0" type="line"/>
      <point x="296.53333333333336" y="0.0" type="line"/>
      <point x="296.53333333333336" y="907.0" type="line"/>
      <point x="30.0" y="907.0" type="line"/>
      <point x="30.0" y="1052.0" type="line"/>
    </contour>
  </outline>
</glyph>
<glyph name="tedescender-cy" format="2">
  <advance width="842"/>
  <unicode hex="04AD"/>
  <outline>
    <contour>
      <point x="51.33333333333333" y="907.0" type="line"/>
      <point x="51.33333333333333" y="1052.0" type="line"/>
      <point x="790.6666666666666" y="1052.0" type="line"/>
      <point x="790.6666666666666" y="907.0" type="line"/>
      <point x="509.73333333333335" y="907.0" type="line"/>
      <point x="509.73333333333335" y="145.0" type="line"/>
      <point x="638.0666666666667" y="145.0" type="line"/>
      <point x="638.0666666666667" y="-270.0" type="line"/>
      <point x="470.06666666666666" y="-270.0" type="line"/>
      <point x="470.06666666666666" y="0.0" type="line"/>
      <point x="332.26666666666665" y="0.0" type="line"/>
      <point x="332.26666666666665" y="907.0" type="line"/>
    </contour>
  </outline>
</glyph>
<glyph name="ustraight" format="2">
  <advance width="801"/>
  <unicode hex="04AF"/>
  <outline>
    <contour>
      <point x="489.3333333333333" y="-416.0" type="line"/>
      <point x="311.8666666666667" y="-416.0" type="line"/>
      <point x="311.8666666666667" y="0.0" type="line"/>
      <point x="0.0" y="1052.0" type="line"/>
      <point x="180.0" y="1052.0" type="line"/>
      <point x="368.93333333333334" y="369.0" type="line" smooth="yes"/>
      <point x="383.49466666666666" y="315.4"/>
      <point x="393.81066666666663" y="273.05333333333334"/>
      <point x="400.6" y="217.66666666666666" type="curve"/>
      <point x="406.6" y="217.66666666666666" type="line"/>
      <point x="411.96000000000004" y="273.05333333333334"/>
      <point x="423.70533333333333" y="315.4"/>
      <point x="438.26666666666665" y="369.0" type="curve" smooth="yes"/>
      <point x="626.2666666666667" y="1052.0" type="line"/>
      <point x="801.2" y="1052.0" type="line"/>
      <point x="489.3333333333333" y="0.0" type="line"/>
    </contour>
  </outline>
</glyph>
<glyph name="Ustraightstroke" format="2">
  <advance width="1030"/>
  <unicode hex="04B0"/>
  <outline>
    <contour>
      <point x="177.73333333333335" y="544.0" type="line"/>
      <point x="851.8666666666667" y="544.0" type="line"/>
      <point x="851.8666666666667" y="378.0" type="line"/>
      <point x="177.73333333333335" y="378.0" type="line"/>
    </contour>
    <contour>
      <point x="423.06666666666666" y="0.0" type="line"/>
      <point x="423.06666666666666" y="546.1333333333333" type="line"/>
      <point x="15.0" y="1456.0" type="line"/>
      <point x="213.93333333333334" y="1456.0" type="line"/>
      <point x="466.2" y="868.8" type="line" smooth="yes"/>
      <point x="483.352" y="828.5999999999999"/>
      <point x="500.4893333333334" y="778.8013333333333"/>
      <point x="513.8" y="738.3333333333334" type="curve"/>
      <point x="521.9333333333334" y="738.3333333333334" type="line"/>
      <point x="535.244" y="778.8013333333333"/>
      <point x="552.3813333333334" y="828.5999999999999"/>
      <point x="569.5333333333333" y="868.8" type="curve" smooth="yes"/>
      <point x="824.7333333333333" y="1456.0" type="line"/>
      <point x="1014.6" y="1456.0" type="line"/>
      <point x="606.5333333333333" y="546.1333333333333" type="line"/>
      <point x="606.5333333333333" y="0.0" type="line"/>
    </contour>
  </outline>
</glyph>
<glyph name="Cheverticalstroke-cy" format="2">
  <advance width="1254"/>
  <unicode hex="04B8"/>
  <outline>
    <contour>
      <point x="702.0" y="1106.0" type="line"/>
      <point x="702.0" y="250.0" type="line"/>
      <point x="542.6666666666666" y="250.0" type="line"/>
      <point x="542.6666666666666" y="1106.0" type="line"/>
    </contour>
    <contour>
      <point x="332.0" y="1090.6666666666667" type="line" smooth="yes"/>
      <point x="332.0" y="790.6853333333332"/>
      <point x="446.79466666666667" y="729.7333333333333"/>
      <point x="657.8" y="729.7333333333333" type="curve" smooth="yes"/>
      <point x="794.3906666666667" y="729.7333333333333"/>
      <point x="890.6746666666668" y="744.044"/>
      <point x="991.8" y="766.4666666666667" type="curve"/>
      <point x="991.8" y="612.7333333333333" type="line"/>
      <point x="856.5493333333334" y="588.9706666666666"/>
      <point x="782.716" y="576.0"/>
      <point x="656.6666666666666" y="576.0" type="curve" smooth="yes"/>
      <point x="328.54533333333336" y="576.0"/>
      <point x="150.66666666666666" y="706.3333333333333"/>
      <point x="150.66666666666666" y="1090.4666666666667" type="curve" smooth="yes"/>
      <point x="150.66666666666666" y="1456.0" type="line"/>
      <point x="332.0" y="1456.0" type="line"/>
    </contour>
    <contour>
      <point x="1083.6" y="1456.0" type="line"/>
      <point x="1083.6" y="0.0" type="line"/>
      <point x="900.1333333333333" y="0.0" type="line"/>
      <point x="900.1333333333333" y="1456.0" type="line"/>
    </contour>
  </outline>
</glyph>
<glyph name="cheverticalstroke-cy" format="2">
  <advance width="1030"/>
  <unicode hex="04B9"/>
  <outline>
    <contour>
      <point x="704.2" y="0.0" type="line"/>
      <point x="704.2" y="1052.0" type="line"/>
      <point x="881.6666666666666" y="1052.0" type="line"/>
      <point x="881.6666666666666" y="0.0" type="line"/>
    </contour>
    <contour>
      <point x="307.8" y="773.0" type="line" smooth="yes"/>
      <point x="307.8" y="594.6013333333333"/>
      <point x="362.16400000000004" y="542.0"/>
      <point x="521.2666666666667" y="542.0" type="curve" smooth="yes"/>
      <point x="629.092" y="542.0"/>
      <point x="686.352" y="547.016"/>
      <point x="794.2666666666667" y="575.0666666666667" type="curve"/>
      <point x="794.2666666666667" y="429.06666666666666" type="line"/>
      <point x="686.084" y="407.89466666666664"/>
      <point x="623.1173333333334" y="396.0"/>
      <point x="501.26666666666665" y="396.0" type="curve" smooth="yes"/>
      <point x="234.33866666666665" y="396.0"/>
      <point x="130.33333333333334" y="508.39466666666664"/>
      <point x="130.33333333333334" y="773.0" type="curve" smooth="yes"/>
      <point x="130.33333333333334" y="1052.0" type="line"/>
      <point x="307.8" y="1052.0" type="line"/>
    </contour>
    <contour>
      <point x="588.3333333333334" y="852.0" type="line"/>
      <point x="588.3333333333334" y="200.0" type="line"/>
      <point x="423.3333333333333" y="200.0" type="line"/>
      <point x="423.3333333333333" y="852.0" type="line"/>
    </contour>
  </outline>
</glyph>
<glyph name="Schwacyr" format="2">
  <advance width="1242"/>
  <unicode hex="04D8"/>
  <guideline x="144.20000000000005" y="784.8666666666667" angle="90.0" identifier="UtNSclIhRG"/>
  <guideline x="1317.0666666666666" y="735.2666666666667" angle="90.0" identifier="hwb5F7EShy"/>
  <outline>
    <contour>
      <point x="207.73333333333332" y="787.8666666666667" type="line"/>
      <point x="1033.8" y="787.8666666666667" type="line"/>
      <point x="1033.8" y="634.1333333333333" type="line"/>
      <point x="207.73333333333332" y="634.1333333333333" type="line"/>
    </contour>
    <contour>
      <point x="940.0666666666666" y="805.5333333333333" type="line" smooth="yes"/>
      <point x="940.0666666666666" y="1158.668"/>
      <point x="830.1893333333335" y="1327.3333333333333"/>
      <point x="604.5333333333333" y="1327.3333333333333" type="curve" smooth="yes"/>
      <point x="400.9426666666667" y="1327.3333333333333"/>
      <point x="331.768" y="1172.9413333333334"/>
      <point x="333.73333333333335" y="1010.5333333333333" type="curve" smooth="yes"/>
      <point x="333.8666666666667" y="1000.6666666666666" type="line"/>
      <point x="150.4" y="1000.6666666666666" type="line"/>
      <point x="150.33333333333334" y="1010.6666666666666" type="line" smooth="yes"/>
      <point x="148.54666666666665" y="1300.1066666666668"/>
      <point x="318.756" y="1486.0"/>
      <point x="604.5333333333333" y="1486.0" type="curve" smooth="yes"/>
      <point x="919.7906666666667" y="1486.0"/>
      <point x="1125.5333333333333" y="1262.6826666666666"/>
      <point x="1125.5333333333333" y="772.6" type="curve" smooth="yes"/>
      <point x="1125.5333333333333" y="680.3333333333334" type="line" smooth="yes"/>
      <point x="1125.5333333333333" y="203.74"/>
      <point x="924.98" y="-30.0"/>
      <point x="620.8" y="-30.0" type="curve" smooth="yes"/>
      <point x="316.62" y="-30.0"/>
      <point x="115.0" y="204.61999999999995"/>
      <point x="115.0" y="683.0" type="curve" smooth="yes"/>
      <point x="115.0" y="787.8666666666667" type="line"/>
      <point x="299.4" y="787.8666666666667" type="line"/>
      <point x="299.4" y="653.2" type="line" smooth="yes"/>
      <point x="299.4" y="302.924"/>
      <point x="422.30133333333333" y="128.66666666666666"/>
      <point x="620.8" y="128.66666666666666" type="curve" smooth="yes"/>
      <point x="819.2986666666668" y="128.66666666666666"/>
      <point x="940.0666666666666" y="301.68666666666667"/>
      <point x="940.0666666666666" y="650.5333333333333" type="curve" smooth="yes"/>
    </contour>
  </outline>
</glyph>
<glyph name="Obarcyr" format="2">
  <advance width="1262"/>
  <unicode hex="04E8"/>
  <guideline x="212.0" y="786.0" angle="90.0" identifier="UtNSclIhRG"/>
  <guideline x="1248.0" y="730.0" angle="90.0" identifier="hwb5F7EShy"/>
  <outline>
    <contour>
      <point x="207.73333333333332" y="827.8666666666667" type="line"/>
      <point x="1053.9333333333334" y="827.8666666666667" type="line"/>
      <point x="1053.9333333333334" y="674.1333333333333" type="line"/>
      <point x="207.73333333333332" y="674.1333333333333" type="line"/>
    </contour>
    <contour>
      <point x="115.0" y="682.0" type="curve" smooth="yes"/>
      <point x="115.0" y="774.0" type="line" smooth="yes"/>
      <point x="115.0" y="1252.8266666666666"/>
      <point x="321.88533333333334" y="1486.0"/>
      <point x="630.8" y="1486.0" type="curve" smooth="yes"/>
      <point x="939.7146666666667" y="1486.0"/>
      <point x="1145.5333333333333" y="1252.8266666666666"/>
      <point x="1145.5333333333333" y="774.0" type="curve" smooth="yes"/>
      <point x="1145.5333333333333" y="682.0" type="line" smooth="yes"/>
      <point x="1145.5333333333333" y="203.17333333333335"/>
      <point x="939.7146666666667" y="-30.0"/>
      <point x="630.8" y="-30.0" type="curve" smooth="yes"/>
      <point x="321.88533333333334" y="-30.0"/>
      <point x="115.0" y="203.17333333333335"/>
    </contour>
    <contour>
      <point x="299.4" y="650.0" type="line" smooth="yes"/>
      <point x="299.4" y="304.10133333333334"/>
      <point x="423.368" y="128.66666666666666"/>
      <point x="630.8" y="128.66666666666666" type="curve" smooth="yes"/>
      <point x="838.2320000000001" y="128.66666666666666"/>
      <point x="960.0666666666666" y="304.10133333333334"/>
      <point x="960.0666666666666" y="650.0" type="curve" smooth="yes"/>
      <point x="960.0666666666666" y="807.0666666666666" type="line" smooth="yes"/>
      <point x="960.0666666666666" y="1152.9653333333335"/>
      <point x="838.2320000000001" y="1327.3333333333333"/>
      <point x="630.8" y="1327.3333333333333" type="curve" smooth="yes"/>
      <point x="423.368" y="1327.3333333333333"/>
      <point x="299.4" y="1152.9653333333335"/>
      <point x="299.4" y="807.0666666666666" type="curve" smooth="yes"/>
    </contour>
  </outline>
</glyph>
<glyph name="obarcyr" format="2">
  <advance width="1006"/>
  <unicode hex="04E9"/>
  <guideline x="176.66666666666666" y="651.8" angle="90.0" identifier="hR8aPakcxg"/>
  <guideline x="833.7333333333333" y="589.7333333333333" angle="90.0" identifier="Zk7mCVRpZk"/>
  <outline>
    <contour>
      <point x="176.6" y="610.0" type="line"/>
      <point x="833.8" y="610.0" type="line"/>
      <point x="833.8" y="465.0" type="line"/>
      <point x="176.6" y="465.0" type="line"/>
    </contour>
    <contour>
      <point x="85.0" y="510.0" type="curve" smooth="yes"/>
      <point x="85.0" y="542.0" type="line" smooth="yes"/>
      <point x="85.0" y="889.5066666666667"/>
      <point x="247.4613333333333" y="1082.0"/>
      <point x="503.1333333333333" y="1082.0" type="curve" smooth="yes"/>
      <point x="758.8053333333335" y="1082.0"/>
      <point x="922.3333333333334" y="889.5066666666667"/>
      <point x="922.3333333333334" y="542.0" type="curve" smooth="yes"/>
      <point x="922.3333333333334" y="510.0" type="line" smooth="yes"/>
      <point x="922.3333333333334" y="162.49333333333328"/>
      <point x="758.8053333333335" y="-30.0"/>
      <point x="503.1333333333333" y="-30.0" type="curve" smooth="yes"/>
      <point x="247.4613333333333" y="-30.0"/>
      <point x="85.0" y="162.49333333333328"/>
    </contour>
    <contour>
      <point x="266.46666666666664" y="573.3333333333334" type="curve" smooth="yes"/>
      <point x="266.46666666666664" y="478.6666666666667" type="line" smooth="yes"/>
      <point x="266.46666666666664" y="257.03066666666666"/>
      <point x="345.192" y="117.73333333333333"/>
      <point x="503.1333333333333" y="117.73333333333333" type="curve" smooth="yes"/>
      <point x="661.0746666666666" y="117.73333333333333"/>
      <point x="740.8666666666667" y="257.03066666666666"/>
      <point x="740.8666666666667" y="478.6666666666667" type="curve" smooth="yes"/>
      <point x="740.8666666666667" y="573.3333333333334" type="line" smooth="yes"/>
      <point x="740.8666666666667" y="802.116"/>
      <point x="669.6506666666667" y="934.2666666666667"/>
      <point x="503.1333333333333" y="934.2666666666667" type="curve" smooth="yes"/>
      <point x="336.616" y="934.2666666666667"/>
      <point x="266.46666666666664" y="794.9693333333333"/>
    </contour>
  </outline>
</glyph>
<glyph name="Germandbls" format="2">
  <advance width="1353"/>
  <unicode hex="1E9E"/>
  <outline>
    <contour>
      <point x="188.66666666666666" y="1066.0" type="line" smooth="yes"/>
      <point x="188.66666666666666" y="1353.9213333333332"/>
      <point x="327.79466666666667" y="1510.0"/>
      <point x="579.0" y="1510.0" type="curve" smooth="yes"/>
      <point x="811.8026666666667" y="1510.0"/>
      <point x="944.3333333333334" y="1417.7533333333336"/>
      <point x="944.3333333333334" y="1244.0" type="curve" smooth="yes"/>
      <point x="944.3333333333334" y="1107.32"/>
      <point x="883.0666666666666" y="1024.96"/>
      <point x="802.6666666666666" y="966.0" type="curve" smooth="yes"/>
      <point x="742.9026666666667" y="922.1373333333333"/>
      <point x="718.0" y="894.1786666666667"/>
      <point x="718.0" y="871.6666666666666" type="curve" smooth="yes"/>
      <point x="718.0" y="826.2853333333333"/>
      <point x="776.6800000000001" y="799.8733333333333"/>
      <point x="952.6666666666666" y="736.0" type="curve" smooth="yes"/>
      <point x="1211.2866666666669" y="642.2"/>
      <point x="1273.0" y="537.0"/>
      <point x="1273.0" y="336.0" type="curve" smooth="yes"/>
      <point x="1273.0" y="97.47999999999999"/>
      <point x="1130.2959999999998" y="-30.0"/>
      <point x="865.3333333333334" y="-30.0" type="curve" smooth="yes"/>
      <point x="600.9066666666666" y="-30.0"/>
      <point x="454.3333333333333" y="101.62399999999997"/>
      <point x="454.3333333333333" y="338.0" type="curve" smooth="yes"/>
      <point x="454.3333333333333" y="350.0" type="line"/>
      <point x="657.3333333333334" y="350.0" type="line"/>
      <point x="657.3333333333334" y="338.0" type="line" smooth="yes"/>
      <point x="657.3333333333334" y="206.85866666666664"/>
      <point x="727.8373333333334" y="135.0"/>
      <point x="854.3333333333334" y="135.0" type="curve" smooth="yes"/>
      <point x="997.892" y="135.0"/>
      <point x="1076.0" y="203.5933333333333"/>
      <point x="1076.0" y="330.0" type="curve" smooth="yes"/>
      <point x="1076.0" y="459.98"/>
      <point x="1044.8066666666666" y="499.58"/>
      <point x="815.6666666666666" y="584.0" type="curve" smooth="yes"/>
      <point x="585.9013333333334" y="667.9733333333332"/>
      <point x="513.3333333333334" y="736.5213333333334"/>
      <point x="513.3333333333334" y="841.6666666666666" type="curve" smooth="yes"/>
      <point x="513.3333333333334" y="928.052"/>
      <point x="551.2986666666667" y="993.3773333333334"/>
      <point x="638.6666666666666" y="1056.0" type="curve" smooth="yes"/>
      <point x="732.4666666666667" y="1123.0"/>
      <point x="770.6666666666666" y="1152.62"/>
      <point x="770.6666666666666" y="1229.0" type="curve" smooth="yes"/>
      <point x="770.6666666666666" y="1305.5586666666668"/>
      <point x="704.26" y="1348.0"/>
      <point x="585.0" y="1348.0" type="curve" smooth="yes"/>
      <point x="445.72933333333333" y="1348.0"/>
      <point x="370.0" y="1235.928"/>
      <point x="370.0" y="1036.0" type="curve" smooth="yes"/>
      <point x="370.0" y="355.0" type="line" smooth="yes"/>
      <point x="370.0" y="125.85999999999999"/>
      <point x="259.56666666666666" y="-16.0"/>
      <point x="78.66666666666667" y="-16.0" type="curve" smooth="yes"/>
      <point x="61.24666666666667" y="-16.0"/>
      <point x="43.086666666666666" y="-14.68"/>
      <point x="25.666666666666664" y="-12.0" type="curve"/>
      <point x="23.666666666666664" y="172.0" type="line"/>
      <point x="35.72666666666667" y="167.98"/>
      <point x="48.60666666666666" y="167.0"/>
      <point x="60.666666666666664" y="167.0" type="curve" smooth="yes"/>
      <point x="141.0666666666667" y="167.0"/>
      <point x="188.66666666666666" y="233.06"/>
      <point x="188.66666666666666" y="355.0" type="curve" smooth="yes"/>
    </contour>
  </outline>
</glyph>
<glyph name="endash" format="2">
  <advance width="939"/>
  <unicode hex="2013"/>
  <outline>
    <contour>
      <point x="0.0" y="532.0" type="line"/>
      <point x="0.0" y="700.0" type="line"/>
      <point x="938.6666666666666" y="700.0" type="line"/>
      <point x="938.6666666666666" y="532.0" type="line"/>
    </contour>
  </outline>
</glyph>
<glyph name="emdash" format="2">
  <advance width="1963"/>
  <unicode hex="2014"/>
  <outline>
    <contour>
      <point x="260.0" y="532.0" type="line"/>
      <point x="260.0" y="700.0" type="line"/>
      <point x="1702.6666666666667" y="700.0" type="line"/>
      <point x="1702.6666666666667" y="532.0" type="line"/>
    </contour>
  </outline>
</glyph>
<glyph name="quotedblleft" format="2">
  <advance width="830"/>
  <unicode hex="201C"/>
  <outline>
    <contour>
      <point x="92.0" y="1073.0" type="line"/>
      <point x="92.0" y="1194.0" type="line" smooth="yes"/>
      <point x="92.0" y="1314.6"/>
      <point x="154.77999999999997" y="1464.88"/>
      <point x="266.0" y="1556.0" type="curve"/>
      <point x="371.0" y="1483.0" type="line"/>
      <point x="309.36" y="1394.56"/>
      <point x="275.0" y="1305.54"/>
      <point x="275.0" y="1197.0" type="curve" smooth="yes"/>
      <point x="275.0" y="1073.0" type="line"/>
    </contour>
    <contour>
      <point x="512.0" y="1073.0" type="line"/>
      <point x="512.0" y="1194.0" type="line" smooth="yes"/>
      <point x="512.0" y="1314.6"/>
      <point x="574.78" y="1464.88"/>
      <point x="686.0" y="1556.0" type="curve"/>
      <point x="791.0" y="1483.0" type="line"/>
      <point x="729.36" y="1394.56"/>
      <point x="695.0" y="1305.54"/>
      <point x="695.0" y="1197.0" type="curve" smooth="yes"/>
      <point x="695.0" y="1073.0" type="line"/>
    </contour>
  </outline>
</glyph>
<glyph name="minute" format="2">
  <advance width="538"/>
  <unicode hex="2032"/>
  <outline>
    <contour>
      <point x="87.2" y="937.3333333333334" type="line"/>
      <point x="261.66666666666663" y="1579.2666666666667" type="line"/>
      <point x="471.73333333333335" y="1510.6666666666667" type="line" smooth="yes"/>
      <point x="231.0" y="884.0" type="line"/>
    </contour>
  </outline>
</glyph>
<glyph name="guilsinglright" format="2">
  <advance width="591"/>
  <unicode hex="203A"/>
  <guideline x="0" y="901.0" angle="0" identifier="Amp5Ormvx4"/>
  <guideline x="0" y="555.0" angle="0" identifier="JDX5vz3jKp"/>
  <outline>
    <contour>
      <point x="79.53333333333333" y="153.0" type="line"/>
      <point x="284.2" y="551.0" type="line"/>
      <point x="79.53333333333333" y="949.0" type="line"/>
      <point x="241.53333333333333" y="949.0" type="line"/>
      <point x="483.2" y="579.9333333333333" type="line"/>
      <point x="483.2" y="520.9333333333333" type="line"/>
      <point x="241.53333333333333" y="153.0" type="line"/>
    </contour>
  </outline>
</glyph>
<glyph name="foursuperior" format="2">
  <advance width="676"/>
  <unicode hex="2074"/>
  <outline>
    <contour>
      <point x="61.0" y="880.0" type="line"/>
      <point x="54.0" y="982.0" type="line"/>
      <point x="357.3333333333333" y="1496.0" type="line"/>
      <point x="481.3333333333333" y="1496.0" type="line"/>
      <point x="355.26666666666665" y="1270.0" type="line"/>
      <point x="212.0" y="1010.0" type="line"/>
      <point x="625.3333333333334" y="1010.0" type="line"/>
      <point x="625.3333333333334" y="880.0" type="line"/>
    </contour>
    <contour>
      <point x="517.3333333333334" y="1496.0" type="line"/>
      <point x="517.3333333333334" y="697.0" type="line"/>
      <point x="360.3333333333333" y="697.0" type="line"/>
      <point x="360.3333333333333" y="1496.0" type="line"/>
    </contour>
  </outline>
</glyph>
